<svg width="44" height="44" viewBox="0 0 44 44" fill="none" xmlns="http://www.w3.org/2000/svg">
<path d="M21.9996 0.120605C9.93594 0.120605 0.121094 9.93545 0.121094 21.9995C0.121094 34.064 9.93594 43.8792 21.9996 43.8792C34.0641 43.8792 43.8789 34.064 43.8789 21.9995C43.8785 9.93545 34.0637 0.120605 21.9996 0.120605ZM33.6441 16.2933C33.064 17.162 32.3426 17.9275 31.5098 18.5581C31.5133 18.6851 31.5156 18.812 31.5156 18.939C31.5156 25.3194 26.6605 31.919 18.5355 31.919C16.0561 31.9202 13.6285 31.2092 11.5414 29.8706C11.467 29.8231 11.4109 29.7517 11.3824 29.6682C11.3539 29.5847 11.3546 29.4939 11.3844 29.4108C11.4134 29.3273 11.4701 29.2562 11.5452 29.2094C11.6203 29.1627 11.7091 29.143 11.7969 29.1538C12.1395 29.1933 12.4789 29.2128 12.8062 29.2128C14.4 29.2128 15.9188 28.7843 17.252 27.9655C16.449 27.7717 15.7095 27.3745 15.1046 26.812C14.4997 26.2496 14.0497 25.5409 13.798 24.7542C13.7774 24.6896 13.774 24.6208 13.7879 24.5544C13.8019 24.4881 13.8328 24.4265 13.8777 24.3757C13.9226 24.3248 13.9801 24.2866 14.0444 24.2648C14.1087 24.2431 14.1776 24.2386 14.2441 24.2519C14.3176 24.2659 14.3914 24.278 14.4648 24.2882C13.1082 23.4237 12.2281 21.9038 12.2281 20.221V20.1651C12.2282 20.0972 12.2459 20.0304 12.2797 19.9714C12.3135 19.9123 12.362 19.8632 12.4206 19.8287C12.4792 19.7942 12.5458 19.7756 12.6138 19.7747C12.6817 19.7739 12.7488 19.7908 12.8082 19.8237C12.9781 19.9179 13.1543 19.9995 13.3352 20.0683C12.641 19.2103 12.2628 18.1398 12.2641 17.0362C12.2641 16.1854 12.4895 15.348 12.9156 14.6147C12.9473 14.5601 12.9918 14.5139 13.0453 14.4803C13.0988 14.4466 13.1596 14.4264 13.2226 14.4214C13.2856 14.4164 13.3489 14.4268 13.407 14.4516C13.4651 14.4764 13.5163 14.515 13.5562 14.564C15.634 17.1116 18.6543 18.7144 21.9031 19.0097C21.8801 18.8161 21.8686 18.6214 21.8688 18.4265C21.8688 15.7714 24.0293 13.6112 26.6848 13.6112C27.9375 13.6112 29.1496 14.1054 30.0438 14.9733C30.9176 14.7788 31.755 14.4467 32.5246 13.9894C32.5438 13.9291 32.5774 13.8744 32.6224 13.8299C32.6674 13.7855 32.7225 13.7527 32.783 13.7342C32.8435 13.7158 32.9076 13.7124 32.9698 13.7242C33.0319 13.736 33.0903 13.7627 33.1398 13.8021C33.1893 13.8414 33.2285 13.8922 33.2541 13.95C33.2797 14.0079 33.2908 14.0711 33.2865 14.1342C33.2823 14.1973 33.2628 14.2585 33.2297 14.3124C33.1966 14.3663 33.1509 14.4113 33.0965 14.4437C32.9052 15.0434 32.5972 15.5993 32.1902 16.0796C32.5213 15.9796 32.8457 15.8591 33.1617 15.7187C33.2391 15.6845 33.3255 15.6763 33.4079 15.6955C33.4903 15.7146 33.5643 15.76 33.6187 15.8248C33.6731 15.8896 33.705 15.9703 33.7096 16.0548C33.7142 16.1393 33.6912 16.223 33.6441 16.2933Z" fill="#1A1AFF"/>
</svg>
