<svg width="45" height="45" viewBox="0 0 45 45" fill="none" xmlns="http://www.w3.org/2000/svg">
<path d="M35.625 7.5H33.75V5.625C33.75 4.5 33 3.75 31.875 3.75C30.75 3.75 30 4.5 30 5.625V7.5H15V5.625C15 4.5 14.25 3.75 13.125 3.75C12 3.75 11.25 4.5 11.25 5.625V7.5H9.375C6.1875 7.5 3.75 9.9375 3.75 13.125V15H41.25V13.125C41.25 9.9375 38.8125 7.5 35.625 7.5ZM3.75 35.625C3.75 38.8125 6.1875 41.25 9.375 41.25H35.625C38.8125 41.25 41.25 38.8125 41.25 35.625V18.75H3.75V35.625ZM31.875 22.5C33 22.5 33.75 23.25 33.75 24.375C33.75 25.5 33 26.25 31.875 26.25C30.75 26.25 30 25.5 30 24.375C30 23.25 30.75 22.5 31.875 22.5ZM31.875 30C33 30 33.75 30.75 33.75 31.875C33.75 33 33 33.75 31.875 33.75C30.75 33.75 30 33 30 31.875C30 30.75 30.75 30 31.875 30ZM22.5 22.5C23.625 22.5 24.375 23.25 24.375 24.375C24.375 25.5 23.625 26.25 22.5 26.25C21.375 26.25 20.625 25.5 20.625 24.375C20.625 23.25 21.375 22.5 22.5 22.5ZM22.5 30C23.625 30 24.375 30.75 24.375 31.875C24.375 33 23.625 33.75 22.5 33.75C21.375 33.75 20.625 33 20.625 31.875C20.625 30.75 21.375 30 22.5 30ZM13.125 22.5C14.25 22.5 15 23.25 15 24.375C15 25.5 14.25 26.25 13.125 26.25C12 26.25 11.25 25.5 11.25 24.375C11.25 23.25 12 22.5 13.125 22.5ZM13.125 30C14.25 30 15 30.75 15 31.875C15 33 14.25 33.75 13.125 33.75C12 33.75 11.25 33 11.25 31.875C11.25 30.75 12 30 13.125 30Z" fill="#0000FF"/>
</svg>
