<svg width="45" height="46" viewBox="0 0 45 46" fill="none" xmlns="http://www.w3.org/2000/svg">
<path fill-rule="evenodd" clip-rule="evenodd" d="M13.5309 32.1019C12.9653 32.4484 12.5404 32.9836 12.3312 33.613C12.1219 34.2425 12.1419 34.9256 12.3876 35.5418C12.6332 36.1579 13.0887 36.6674 13.6736 36.9802C14.2585 37.293 14.9352 37.3891 15.584 37.2514C16.2329 37.1136 16.8122 36.751 17.2196 36.2276C17.627 35.7042 17.8363 35.0536 17.8105 34.3908C17.7847 33.728 17.5255 33.0956 17.0786 32.6054C16.6317 32.1152 16.026 31.7987 15.3684 31.7119C15.3333 31.5861 15.3011 31.4595 15.2719 31.3322C15.1437 30.753 15.0436 30.1679 14.9719 29.5791C14.8944 28.9839 14.8506 28.3848 14.8406 27.7847C14.8387 27.6199 14.8434 27.4551 14.8547 27.2906C15.2147 27.1875 15.5766 27.0938 15.9375 27.0122C16.3509 26.9184 16.5966 27.4059 16.7944 27.8016L16.875 27.96H27.8897C28.1044 27.5531 28.5909 26.9044 29.0625 27.0122C29.565 27.1266 30.0703 27.2625 30.5709 27.4181L30.5681 27.4191C30.5662 27.4172 30.5662 27.4172 30.5681 27.4209C30.5719 27.4341 30.5925 27.4959 30.6131 27.6272C30.6366 27.7791 30.6525 27.9759 30.66 28.2131C30.6731 28.6856 30.6459 29.2603 30.5906 29.8397C30.5344 30.4181 30.4509 30.9778 30.3572 31.4194C30.3366 31.5178 30.3159 31.6069 30.2953 31.6875H29.0625C28.8884 31.6876 28.7178 31.7361 28.5698 31.8277C28.4218 31.9193 28.3022 32.0502 28.2244 32.2059L27.2869 34.0809C27.2216 34.211 27.1876 34.3545 27.1875 34.5V36.375C27.1875 36.6236 27.2863 36.8621 27.4621 37.0379C27.6379 37.2137 27.8764 37.3125 28.125 37.3125H30V35.4375H29.0625V34.7213L29.6419 33.5625H32.2331L32.8125 34.7213V35.4375H31.875V37.3125H33.75C33.9986 37.3125 34.2371 37.2137 34.4129 37.0379C34.5887 36.8621 34.6875 36.6236 34.6875 36.375V34.5C34.6874 34.3545 34.6534 34.211 34.5881 34.0809L33.6506 32.2059C33.5728 32.0502 33.4532 31.9193 33.3052 31.8277C33.1572 31.7361 32.9866 31.6876 32.8125 31.6875H32.2162C32.3166 31.1878 32.4 30.6047 32.4562 30.0197C32.5181 29.3878 32.55 28.7325 32.5341 28.1606L32.5331 28.1344C36.2719 29.7141 39.375 32.3119 39.375 35.0344V40.125H5.625V35.0344C5.625 32.1919 9.00938 29.4844 12.9666 27.9309C12.9769 28.5141 13.0322 29.1731 13.1119 29.8116C13.1981 30.5006 13.3153 31.1859 13.4447 31.7503C13.4728 31.8713 13.5009 31.9884 13.5309 32.1019ZM15 35.4516C15.5044 35.4516 15.9375 35.0391 15.9375 34.5C15.9375 33.9619 15.5044 33.5484 15 33.5484C14.4956 33.5484 14.0625 33.9609 14.0625 34.5C14.0625 35.0381 14.4956 35.4516 15 35.4516ZM22.5 23.25C24.4891 23.25 26.3968 22.4598 27.8033 21.0533C29.2098 19.6468 30 17.7391 30 15.75C30 13.7609 29.2098 11.8532 27.8033 10.4467C26.3968 9.04018 24.4891 8.25 22.5 8.25C20.5109 8.25 18.6032 9.04018 17.1967 10.4467C15.7902 11.8532 15 13.7609 15 15.75C15 17.7391 15.7902 19.6468 17.1967 21.0533C18.6032 22.4598 20.5109 23.25 22.5 23.25ZM22.5 25.125C27.6778 25.125 31.875 20.9278 31.875 15.75C31.875 10.5722 27.6778 6.375 22.5 6.375C17.3222 6.375 13.125 10.5722 13.125 15.75C13.125 20.9278 17.3222 25.125 22.5 25.125Z" fill="#0000FF"/>
</svg>
