<svg width="45" height="45" viewBox="0 0 45 45" fill="none" xmlns="http://www.w3.org/2000/svg">
<path d="M22.4999 8.03559C19.1894 8.02994 15.9781 9.16508 13.4066 11.2499H16.0713C16.4975 11.2499 16.9063 11.4192 17.2077 11.7206C17.5091 12.022 17.6784 12.4308 17.6784 12.857C17.6784 13.2833 17.5091 13.692 17.2077 13.9934C16.9063 14.2948 16.4975 14.4642 16.0713 14.4642H9.64272C9.4299 14.4642 9.21919 14.4219 9.02283 14.3399C8.82646 14.2578 8.64836 14.1375 8.49885 13.9861C8.34933 13.8346 8.23139 13.655 8.15186 13.4576C8.07234 13.2602 8.03281 13.0489 8.03557 12.8361V6.42845C8.03557 6.00221 8.2049 5.59343 8.5063 5.29203C8.80769 4.99063 9.21648 4.82131 9.64272 4.82131C10.069 4.82131 10.4777 4.99063 10.7791 5.29203C11.0805 5.59343 11.2499 6.00221 11.2499 6.42845V8.86167C14.4141 6.24437 18.3935 4.81519 22.4999 4.82131C32.2633 4.82131 40.1784 12.7365 40.1784 22.4999C40.1784 32.2633 32.2633 40.1784 22.4999 40.1784C12.7365 40.1784 4.82129 32.2633 4.82129 22.4999C4.82129 21.9052 4.85022 21.3154 4.90807 20.7336C4.92635 20.5216 4.98657 20.3153 5.08522 20.1267C5.18388 19.9381 5.31901 19.771 5.48278 19.635C5.64655 19.4991 5.83568 19.397 6.03921 19.3348C6.24274 19.2725 6.45661 19.2513 6.6684 19.2724C6.88019 19.2935 7.08569 19.3564 7.27296 19.4575C7.46024 19.5587 7.62555 19.696 7.75932 19.8615C7.89309 20.0271 7.99265 20.2176 8.05221 20.4219C8.11177 20.6262 8.13015 20.8403 8.10629 21.0518C7.81372 23.9596 8.40883 26.8879 9.81324 29.4508C11.2177 32.0137 13.3655 34.091 15.9738 35.4092C18.5821 36.7274 21.5285 37.2246 24.4249 36.8352C27.3214 36.4459 30.0319 35.1883 32.1995 33.2281C34.3671 31.2679 35.8901 28.6971 36.5679 25.8543C37.2456 23.0115 37.0463 20.03 35.9962 17.3027C34.9462 14.5754 33.0946 12.2302 30.6854 10.5759C28.2761 8.92165 25.4223 8.03599 22.4999 8.03559ZM24.107 12.857C24.107 12.4308 23.9377 12.022 23.6363 11.7206C23.3349 11.4192 22.9261 11.2499 22.4999 11.2499C22.0736 11.2499 21.6648 11.4192 21.3634 11.7206C21.062 12.022 20.8927 12.4308 20.8927 12.857V22.4999C20.8927 22.9261 21.062 23.3349 21.3634 23.6363C21.6648 23.9377 22.0736 24.107 22.4999 24.107H26.5177C26.944 24.107 27.3527 23.9377 27.6541 23.6363C27.9555 23.3349 28.1249 22.9261 28.1249 22.4999C28.1249 22.0736 27.9555 21.6649 27.6541 21.3635C27.3527 21.0621 26.944 20.8927 26.5177 20.8927H24.107V12.857Z" fill="#0000FF" fill-opacity="0.9"/>
</svg>
