<svg width="45" height="45" viewBox="0 0 45 45" fill="none" xmlns="http://www.w3.org/2000/svg">
<path d="M25.9123 41.25H19.0873C18.6597 41.2501 18.2449 41.104 17.9117 40.8359C17.5785 40.5679 17.347 40.194 17.2555 39.7763L16.4923 36.2438C15.4743 35.7977 14.509 35.2399 13.6142 34.5806L10.1698 35.6775C9.76215 35.8075 9.32225 35.7942 8.92319 35.6396C8.52414 35.4851 8.18994 35.1988 7.97609 34.8281L4.55609 28.92C4.34449 28.549 4.26506 28.1172 4.3308 27.6952C4.39654 27.2731 4.60355 26.8859 4.91797 26.5969L7.58984 24.1594C7.46834 23.0552 7.46834 21.941 7.58984 20.8369L4.91797 18.405C4.6031 18.1158 4.39581 17.7283 4.33006 17.3058C4.26431 16.8834 4.34401 16.4512 4.55609 16.08L7.96859 10.1681C8.18244 9.79747 8.51664 9.51111 8.9157 9.3566C9.31475 9.2021 9.75465 9.18874 10.1623 9.31875L13.6067 10.4156C14.0642 10.0781 14.5405 9.76312 15.0317 9.47812C15.5061 9.21187 15.9936 8.97 16.4923 8.75438L17.2573 5.22562C17.3484 4.80787 17.5795 4.43379 17.9124 4.1654C18.2452 3.89702 18.6598 3.75045 19.0873 3.75H25.9123C26.3399 3.75045 26.7545 3.89702 27.0873 4.1654C27.4202 4.43379 27.6513 4.80787 27.7423 5.22562L28.5148 8.75625C29.5316 9.20488 30.4966 9.76252 31.393 10.4194L34.8392 9.3225C35.2467 9.19297 35.6861 9.20657 36.0848 9.36105C36.4834 9.51553 36.8173 9.80162 37.0311 10.1719L40.4436 16.0837C40.8786 16.8469 40.7286 17.8125 40.0817 18.4069L37.4098 20.8444C37.5313 21.9485 37.5313 23.0627 37.4098 24.1669L40.0817 26.6044C40.7286 27.2006 40.8786 28.1644 40.4436 28.9275L37.0311 34.8394C36.8172 35.21 36.4831 35.4964 36.084 35.6509C35.6849 35.8054 35.245 35.8188 34.8373 35.6888L31.393 34.5919C30.4988 35.2507 29.5342 35.8078 28.5167 36.2531L27.7423 39.7763C27.6509 40.1937 27.4196 40.5673 27.0868 40.8353C26.754 41.1033 26.3397 41.2496 25.9123 41.25ZM22.4923 15C20.5032 15 18.5956 15.7902 17.189 17.1967C15.7825 18.6032 14.9923 20.5109 14.9923 22.5C14.9923 24.4891 15.7825 26.3968 17.189 27.8033C18.5956 29.2098 20.5032 30 22.4923 30C24.4815 30 26.3891 29.2098 27.7956 27.8033C29.2022 26.3968 29.9923 24.4891 29.9923 22.5C29.9923 20.5109 29.2022 18.6032 27.7956 17.1967C26.3891 15.7902 24.4815 15 22.4923 15Z" fill="#0000FF"/>
</svg>
