<svg width="18" height="18" viewBox="0 0 25 25" fill="none" xmlns="http://www.w3.org/2000/svg">
<path d="M23.3471 12.1734C21.0068 7.84706 16.9027 5.229 12.361 5.229C7.81934 5.229 3.70822 7.84706 1.38878 12.1734L1.19434 12.4998L1.37489 12.8332C3.71517 17.1596 7.81934 19.7776 12.361 19.7776C16.9027 19.7776 21.0138 17.1943 23.3471 12.8332L23.5277 12.4998L23.3471 12.1734ZM12.361 18.354C8.45128 18.354 4.861 16.1734 2.77767 12.4998C4.861 8.82623 8.45128 6.64567 12.361 6.64567C16.2707 6.64567 19.8193 8.83317 21.9374 12.4998C19.8193 16.1734 16.2638 18.354 12.361 18.354Z" fill="#555555"/>
<path d="M12.5627 17.2846C15.1937 17.2846 17.3266 15.1517 17.3266 12.5207C17.3266 9.8897 15.1937 7.75684 12.5627 7.75684C9.93169 7.75684 7.79883 9.8897 7.79883 12.5207C7.79883 15.1517 9.93169 17.2846 12.5627 17.2846Z" fill="#555555"/>
</svg>
