<svg width="20" height="20" viewBox="0 0 30 30" fill="none" xmlns="http://www.w3.org/2000/svg">
<path d="M24.375 5H20.625V3.125C20.625 2.95924 20.5592 2.80027 20.4419 2.68306C20.3247 2.56585 20.1658 2.5 20 2.5C19.8342 2.5 19.6753 2.56585 19.5581 2.68306C19.4408 2.80027 19.375 2.95924 19.375 3.125V5H10.625V3.125C10.625 2.95924 10.5592 2.80027 10.4419 2.68306C10.3247 2.56585 10.1658 2.5 10 2.5C9.83424 2.5 9.67527 2.56585 9.55806 2.68306C9.44085 2.80027 9.375 2.95924 9.375 3.125V5H5.625C4.7965 5.00099 4.00222 5.33055 3.41639 5.91639C2.83055 6.50222 2.50099 7.2965 2.5 8.125V24.375C2.50099 25.2035 2.83055 25.9978 3.41639 26.5836C4.00222 27.1694 4.7965 27.499 5.625 27.5H24.375C25.2036 27.4993 25.9981 27.1699 26.584 26.584C27.1699 25.9981 27.4993 25.2036 27.5 24.375V8.125C27.4993 7.2964 27.1699 6.50193 26.584 5.91602C25.9981 5.33011 25.2036 5.00066 24.375 5ZM26.25 24.375C26.25 24.8723 26.0525 25.3492 25.7008 25.7008C25.3492 26.0525 24.8723 26.25 24.375 26.25H5.625C5.12772 26.25 4.65081 26.0525 4.29917 25.7008C3.94754 25.3492 3.75 24.8723 3.75 24.375V13.75H26.25V24.375ZM26.25 12.5H3.75V8.125C3.75 7.09 4.5875 6.25 5.625 6.25H9.375V8.125C9.375 8.29076 9.44085 8.44973 9.55806 8.56694C9.67527 8.68415 9.83424 8.75 10 8.75C10.1658 8.75 10.3247 8.68415 10.4419 8.56694C10.5592 8.44973 10.625 8.29076 10.625 8.125V6.25H19.375V8.125C19.375 8.29076 19.4408 8.44973 19.5581 8.56694C19.6753 8.68415 19.8342 8.75 20 8.75C20.1658 8.75 20.3247 8.68415 20.4419 8.56694C20.5592 8.44973 20.625 8.29076 20.625 8.125V6.25H24.375C24.8723 6.25 25.3492 6.44754 25.7008 6.79917C26.0525 7.15081 26.25 7.62772 26.25 8.125V12.5Z" fill="#555555"/>
</svg>
