<svg width="16" height="24" viewBox="0 0 16 24" fill="none" xmlns="http://www.w3.org/2000/svg">
<path d="M15.6548 7.95609C15.8223 8.1844 15.8975 8.46747 15.8655 8.74881C15.8334 9.03014 15.6965 9.28904 15.4819 9.47385C15.2674 9.65865 14.9911 9.75576 14.7081 9.74579C14.4251 9.73583 14.1563 9.61952 13.9553 9.42009L8.00032 3.46509L2.04532 9.42009L1.91932 9.52959C1.691 9.69706 1.40793 9.77229 1.1266 9.74024C0.845263 9.7082 0.586359 9.57125 0.401555 9.35672C0.216752 9.14218 0.119643 8.86586 0.129608 8.58288C0.139573 8.2999 0.25588 8.03109 0.455316 7.83009L7.20532 1.08009L7.33132 0.970587C7.54802 0.810516 7.81498 0.733529 8.08364 0.753623C8.3523 0.773718 8.60483 0.88956 8.79532 1.08009L15.5453 7.83009L15.6548 7.95609ZM0.345816 16.0441C0.178339 15.8158 0.103116 15.5327 0.13516 15.2514C0.167204 14.97 0.304158 14.7111 0.518689 14.5263C0.733219 14.3415 1.00955 14.2444 1.29253 14.2544C1.5755 14.2643 1.84432 14.3807 2.04532 14.5801L8.00032 20.5351L13.9553 14.5801L14.0813 14.4706C14.3096 14.3031 14.5927 14.2279 14.874 14.2599C15.1554 14.292 15.4143 14.4289 15.5991 14.6435C15.7839 14.858 15.881 15.1343 15.871 15.4173C15.8611 15.7003 15.7448 15.9691 15.5453 16.1701L8.79532 22.9201L8.66932 23.0296C8.45261 23.1897 8.18566 23.2666 7.91699 23.2465C7.64833 23.2265 7.3958 23.1106 7.20532 22.9201L0.455316 16.1701L0.345816 16.0441Z" fill="#555555" fill-opacity="0.9"/>
</svg>
