<svg width="20" height="20" viewBox="0 0 25 25" fill="none" xmlns="http://www.w3.org/2000/svg">
<path d="M23.5213 5.77789L19.4449 1.68067C19.1755 1.41266 18.811 1.26221 18.431 1.26221C18.051 1.26221 17.6865 1.41266 17.4171 1.68067L2.96574 16.1112L1.6463 21.8057C1.60078 22.0138 1.60234 22.2295 1.65087 22.437C1.69939 22.6445 1.79365 22.8385 1.92676 23.0049C2.05987 23.1713 2.22847 23.3059 2.42024 23.3987C2.61201 23.4916 2.82211 23.5405 3.03519 23.5418C3.13447 23.5518 3.23452 23.5518 3.3338 23.5418L9.09074 22.2223L23.5213 7.80567C23.7893 7.5363 23.9398 7.17177 23.9398 6.79178C23.9398 6.41179 23.7893 6.04726 23.5213 5.77789ZM8.3963 20.9723L3.00047 22.1043L4.22963 16.8126L15.0421 6.04178L19.2088 10.2084L8.3963 20.9723ZM20.1394 9.2015L15.9727 5.03484L18.3894 2.63206L22.4866 6.79873L20.1394 9.2015Z" fill="#555555"/>
</svg>
