<svg width="30" height="30" viewBox="0 0 30 30" fill="none" xmlns="http://www.w3.org/2000/svg">
<path d="M8.71097 8.71146C8.79806 8.62415 8.90151 8.55489 9.01541 8.50762C9.12931 8.46036 9.25141 8.43604 9.37472 8.43604C9.49804 8.43604 9.62014 8.46036 9.73404 8.50762C9.84793 8.55489 9.95139 8.62415 10.0385 8.71146L14.9997 13.6746L19.961 8.71146C20.0481 8.6243 20.1516 8.55515 20.2655 8.50798C20.3794 8.46081 20.5015 8.43653 20.6247 8.43653C20.748 8.43653 20.8701 8.46081 20.9839 8.50798C21.0978 8.55515 21.2013 8.6243 21.2885 8.71146C21.3756 8.79863 21.4448 8.9021 21.492 9.01599C21.5391 9.12988 21.5634 9.25194 21.5634 9.37521C21.5634 9.49848 21.5391 9.62054 21.492 9.73443C21.4448 9.84832 21.3756 9.9518 21.2885 10.039L16.3253 15.0002L21.2885 19.9615C21.3756 20.0486 21.4448 20.1521 21.492 20.266C21.5391 20.3799 21.5634 20.5019 21.5634 20.6252C21.5634 20.7485 21.5391 20.8705 21.492 20.9844C21.4448 21.0983 21.3756 21.2018 21.2885 21.289C21.2013 21.3761 21.0978 21.4453 20.9839 21.4924C20.8701 21.5396 20.748 21.5639 20.6247 21.5639C20.5015 21.5639 20.3794 21.5396 20.2655 21.4924C20.1516 21.4453 20.0481 21.3761 19.961 21.289L14.9997 16.3258L10.0385 21.289C9.95131 21.3761 9.84783 21.4453 9.73394 21.4924C9.62006 21.5396 9.49799 21.5639 9.37472 21.5639C9.25145 21.5639 9.12939 21.5396 9.0155 21.4924C8.90162 21.4453 8.79814 21.3761 8.71097 21.289C8.62381 21.2018 8.55466 21.0983 8.50749 20.9844C8.46032 20.8705 8.43604 20.7485 8.43604 20.6252C8.43604 20.5019 8.46032 20.3799 8.50749 20.266C8.55466 20.1521 8.62381 20.0486 8.71097 19.9615L13.6741 15.0002L8.71097 10.039C8.62367 9.95188 8.5544 9.84842 8.50714 9.73452C8.45987 9.62063 8.43555 9.49852 8.43555 9.37521C8.43555 9.2519 8.45987 9.12979 8.50714 9.0159C8.5544 8.902 8.62367 8.79855 8.71097 8.71146Z" fill="#555555"/>
</svg>
