<svg width="204" height="204" viewBox="0 0 204 204" fill="none" xmlns="http://www.w3.org/2000/svg">
<g filter="url(#filter0_d_133_2979)">
<circle cx="99.5" cy="99.5" r="98.5" fill="#0000FF" fill-opacity="0.2" shape-rendering="crispEdges"/>
</g>
<g clip-path="url(#clip0_133_2979)">
<path d="M57.9322 72.584V87.7952L48.3848 80.3514L57.9322 72.584Z" fill="#0D79D2"/>
<path d="M147.904 80.3519V80.1901V80.0282V79.8664C147.904 79.8664 147.904 79.7046 147.742 79.7046V79.5428L147.58 79.3809L134.473 68.7007V51.3858C134.473 50.5767 133.825 49.7676 132.855 49.7676H111.17L102.432 42.6475C98.7102 39.7347 93.5319 39.7347 89.81 42.6475L81.0716 49.7676H59.5494C58.7403 49.7676 57.9312 50.4149 57.9312 51.3858V68.7007L44.8236 79.3809C44.8236 79.3809 44.8236 79.3809 44.8236 79.5428C44.8236 79.5428 44.8236 79.5428 44.6618 79.7046L44.5 79.8664V80.0282V80.1901C44.5 80.1901 44.5 80.3519 44.5 80.5137V139.74V139.902C44.5 140.064 44.5 140.064 44.5 140.226C44.5 140.388 44.5 140.388 44.6618 140.549V140.711L44.8236 140.873C44.9855 141.035 45.1473 141.035 45.3091 141.197C45.3091 141.197 45.3091 141.197 45.4709 141.197C45.6328 141.197 45.7946 141.359 45.9564 141.359H146.286C146.448 141.359 146.609 141.359 146.771 141.197C146.771 141.197 146.771 141.197 146.933 141.197C147.095 141.197 147.257 141.035 147.418 140.873L147.58 140.711V140.549C147.58 140.388 147.58 140.388 147.742 140.226C147.742 140.064 147.742 140.064 147.742 139.902C147.742 139.902 147.742 139.902 147.742 139.74L147.904 80.3519ZM134.311 72.5844L143.858 80.3519L134.311 87.6338V72.5844ZM91.7519 45.0748C94.341 42.9711 97.9011 42.9711 100.49 45.0748L106.154 49.7676H86.0881L91.7519 45.0748ZM61.1676 52.8422H131.236V90.0612L104.374 110.774H87.8681L61.1676 90.223V52.8422ZM57.9312 72.5844V87.6338L48.3837 80.3519L57.9312 72.5844ZM47.4128 83.5883L84.4699 112.231L47.4128 136.828V83.5883ZM51.1347 138.122L87.8681 113.849H104.536L141.269 138.122H51.1347ZM144.829 136.828L107.61 112.231L144.667 83.5883V136.828H144.829Z" fill="black"/>
<path d="M61.1719 52.8423V90.0612L87.8724 110.613H104.378L131.079 90.0612V52.8423H61.1719ZM120.399 93.1358H71.8521C71.043 93.1358 70.2339 92.4885 70.2339 91.5176C70.2339 90.7085 70.8812 89.8994 71.8521 89.8994H120.399C121.208 89.8994 122.017 90.5467 122.017 91.5176C121.855 92.3267 121.208 93.1358 120.399 93.1358ZM120.399 83.2647H71.8521C71.043 83.2647 70.2339 82.6174 70.2339 81.6465C70.2339 80.8374 70.8812 80.0283 71.8521 80.0283H120.399C121.208 80.0283 122.017 80.6756 122.017 81.6465C121.855 82.6174 121.208 83.2647 120.399 83.2647ZM120.399 73.3936H71.8521C71.043 73.3936 70.2339 72.7463 70.2339 71.7754C70.2339 70.9663 70.8812 70.1572 71.8521 70.1572H120.399C121.208 70.1572 122.017 70.8045 122.017 71.7754C121.855 72.7463 121.208 73.3936 120.399 73.3936ZM120.399 63.6843H71.8521C71.043 63.6843 70.2339 63.037 70.2339 62.0661C70.2339 61.257 70.8812 60.4479 71.8521 60.4479H120.399C121.208 60.4479 122.017 61.0952 122.017 62.0661C121.855 63.037 121.208 63.6843 120.399 63.6843Z" fill="white"/>
<path d="M64.2465 52.8423V92.6503L61.1719 90.223V52.8423H64.2465Z" fill="white"/>
<path d="M128 52.8423V92.6503L131.075 90.223V52.8423H128Z" fill="white"/>
<path d="M141.107 138.122H51.1348L87.7064 113.849H104.536L141.107 138.122Z" fill="#0000FF"/>
<path d="M141.107 138.121H51.1348L54.2094 136.018H138.033L141.107 138.121Z" fill="#0000FF"/>
<path d="M138.034 136.017H54.2109L60.6838 131.81H131.562L138.034 136.017Z" fill="#0000FF"/>
<path d="M144.828 83.5879V136.827L107.609 112.23L144.828 83.5879Z" fill="#0000FF"/>
<path d="M143.858 80.3514L134.311 87.7952V72.584L143.858 80.3514Z" fill="#0D79D2"/>
<path d="M143.858 80.3514L142.24 81.4842L134.311 75.0113V72.584L143.858 80.3514Z" fill="#0D79D2"/>
<path d="M142.24 81.4851L139.651 83.5887L134.311 79.2196V75.0122L142.24 81.4851Z" fill="#0D79D2"/>
<path d="M48.3848 80.3514L49.8412 81.4842L57.9322 75.0113V72.584L48.3848 80.3514Z" fill="#0D79D2"/>
<path d="M49.8438 81.4851L52.5947 83.5887L57.9348 79.2196V75.0122L49.8438 81.4851Z" fill="#0D79D2"/>
<path d="M84.633 112.23L47.4141 136.827V83.5879L84.633 112.23Z" fill="#0000FF"/>
<path d="M50.0032 85.5297V135.209L47.4141 136.827V83.5879L50.0032 85.5297Z" fill="#0000FF"/>
<path d="M55.9893 90.0613V131.164L50.002 135.209V85.5303L55.9893 90.0613Z" fill="#0000FF"/>
<path d="M142.244 85.5297V135.209L144.833 136.827V83.5879L142.244 85.5297Z" fill="#0000FF"/>
<path d="M136.254 90.0613V131.164L142.241 135.209V85.5303L136.254 90.0613Z" fill="#0000FF"/>
<path d="M106.158 49.7672H86.0918L91.7555 45.0743C94.3447 42.9707 97.9048 42.9707 100.494 45.0743L106.158 49.7672Z" fill="#0D79D2"/>
<path d="M106.158 49.7672H104.216L100.332 46.6926C97.9048 44.5889 94.1829 44.5889 91.7555 46.6926L88.0337 49.7672H86.0918L91.7555 45.0743C94.3447 42.9707 97.9048 42.9707 100.494 45.0743L106.158 49.7672Z" fill="#0D79D2"/>
<path d="M104.213 49.7676H100.977L100.33 49.2821C97.7405 47.1785 94.1805 47.1785 91.5913 49.2821L91.2677 49.7676H88.0312L91.7531 46.693C94.3423 44.5893 97.9024 44.5893 100.33 46.693L104.213 49.7676Z" fill="#0D79D2"/>
<path d="M121.852 62.066C121.852 62.8751 121.204 63.6842 120.233 63.6842H71.8487C71.0396 63.6842 70.2305 63.0369 70.2305 62.066C70.2305 61.2569 70.8778 60.4478 71.8487 60.4478H120.395C121.204 60.4478 121.852 61.2569 121.852 62.066ZM121.852 71.9371C121.852 72.7462 121.204 73.5553 120.233 73.5553H71.8487C71.0396 73.5553 70.2305 72.908 70.2305 71.9371C70.2305 71.128 70.8778 70.3189 71.8487 70.3189H120.395C121.204 70.3189 121.852 70.9661 121.852 71.9371ZM121.852 81.6464C121.852 82.4555 121.204 83.2646 120.233 83.2646H71.8487C71.0396 83.2646 70.2305 82.6173 70.2305 81.6464C70.2305 80.8373 70.8778 80.0281 71.8487 80.0281H120.395C121.204 80.19 121.852 80.8373 121.852 81.6464ZM121.852 91.5175C121.852 92.3266 121.204 93.1357 120.233 93.1357H71.8487C71.0396 93.1357 70.2305 92.4884 70.2305 91.5175C70.2305 90.7084 70.8778 89.8993 71.8487 89.8993H120.395C121.204 89.8993 121.852 90.5465 121.852 91.5175Z" fill="black"/>
</g>
<g clip-path="url(#clip1_133_2979)">
<path d="M156 160.453C169.406 160.453 180.273 149.586 180.273 136.18C180.273 122.774 169.406 111.907 156 111.907C142.594 111.907 131.727 122.774 131.727 136.18C131.727 149.586 142.594 160.453 156 160.453Z" fill="#0D79D2"/>
<path d="M161.107 159.88C161.573 159.79 162.035 159.686 162.494 159.568C163.273 159.351 164.04 159.095 164.793 158.802C165.548 158.51 166.288 158.18 167.01 157.814C167.731 157.446 168.434 157.043 169.115 156.605C169.796 156.168 170.454 155.697 171.087 155.195C171.722 154.691 172.331 154.155 172.912 153.591C173.492 153.027 174.043 152.435 174.563 151.817C175.085 151.198 175.576 150.553 176.033 149.885C176.49 149.218 176.913 148.528 177.301 147.819C177.689 147.108 178.041 146.379 178.356 145.634C178.672 144.888 178.95 144.128 179.19 143.354C179.395 142.678 179.57 141.992 179.715 141.3L165.295 126.88C162.724 124.308 159.366 123.024 156.003 123.024C152.64 123.024 149.275 124.308 146.703 126.88C141.56 132.023 141.56 140.333 146.703 145.476L161.107 159.88Z" fill="#0000FF"/>
<path d="M156.003 123.026C159.366 123.026 162.728 124.31 165.299 126.882C170.442 132.025 170.442 140.335 165.299 145.478C160.156 150.621 151.846 150.621 146.703 145.478C141.56 140.335 141.56 132.025 146.703 126.882C149.275 124.31 152.64 123.026 156.003 123.026ZM161.992 132.132C161.801 132.15 161.615 132.223 161.463 132.342L154.075 137.885L150.65 134.459C149.907 133.685 148.446 135.146 149.22 135.889L153.265 139.935C153.605 140.275 154.199 140.317 154.585 140.03L162.676 133.961C163.357 133.466 162.937 132.144 162.095 132.132C162.061 132.131 162.026 132.131 161.992 132.132L161.992 132.132Z" fill="white"/>
</g>
<defs>
<filter id="filter0_d_133_2979" x="0.343333" y="0.343333" width="203.567" height="203.567" filterUnits="userSpaceOnUse" color-interpolation-filters="sRGB">
<feFlood flood-opacity="0" result="BackgroundImageFix"/>
<feColorMatrix in="SourceAlpha" type="matrix" values="0 0 0 0 0 0 0 0 0 0 0 0 0 0 0 0 0 0 127 0" result="hardAlpha"/>
<feOffset dx="2.62667" dy="2.62667"/>
<feGaussianBlur stdDeviation="1.64167"/>
<feComposite in2="hardAlpha" operator="out"/>
<feColorMatrix type="matrix" values="0 0 0 0 0 0 0 0 0 0 0 0 0 0 1 0 0 0 0.5 0"/>
<feBlend mode="normal" in2="BackgroundImageFix" result="effect1_dropShadow_133_2979"/>
<feBlend mode="normal" in="SourceGraphic" in2="effect1_dropShadow_133_2979" result="shape"/>
</filter>
<clipPath id="clip0_133_2979">
<rect width="103.566" height="103.566" fill="white" transform="translate(44.3398 39.0869)"/>
</clipPath>
<clipPath id="clip1_133_2979">
<rect width="48.5464" height="48.5464" fill="white" transform="translate(131.725 111.906)"/>
</clipPath>
</defs>
</svg>
