<svg width="314" height="228" viewBox="0 0 314 228" fill="none" xmlns="http://www.w3.org/2000/svg">
<g opacity="0.2">
<mask id="path-1-inside-1_869_136" fill="white">
<path fill-rule="evenodd" clip-rule="evenodd" d="M116.117 213.559C116.117 218.633 113.33 223.057 109.202 225.381V223.879V213.559H116.117V213.548C116.117 213.552 116.117 213.555 116.117 213.559ZM115.98 211.622C115.372 207.373 112.795 203.759 109.202 201.736V211.622H115.98ZM107.236 211.622V200.828C105.778 200.293 104.203 200 102.559 200C95.7281 200 90.0771 205.051 89.1373 211.622H107.236ZM89 213.559C89 221.047 95.0705 227.117 102.559 227.117C104.203 227.117 105.778 226.825 107.236 226.289V213.559H89Z"/>
</mask>
<path fill-rule="evenodd" clip-rule="evenodd" d="M116.117 213.559C116.117 218.633 113.33 223.057 109.202 225.381V223.879V213.559H116.117V213.548C116.117 213.552 116.117 213.555 116.117 213.559ZM115.98 211.622C115.372 207.373 112.795 203.759 109.202 201.736V211.622H115.98ZM107.236 211.622V200.828C105.778 200.293 104.203 200 102.559 200C95.7281 200 90.0771 205.051 89.1373 211.622H107.236ZM89 213.559C89 221.047 95.0705 227.117 102.559 227.117C104.203 227.117 105.778 226.825 107.236 226.289V213.559H89Z" fill="#0000FF"/>
<path d="M109.202 225.381H108.427V226.707L109.582 226.056L109.202 225.381ZM109.202 213.559V212.784H108.427V213.559H109.202ZM116.117 213.559V214.334H116.892V213.559H116.117ZM115.98 211.622V212.397H116.874L116.747 211.512L115.98 211.622ZM109.202 201.736L109.582 201.061L108.427 200.411V201.736H109.202ZM109.202 211.622H108.427V212.397H109.202V211.622ZM107.236 200.828H108.011V200.288L107.503 200.101L107.236 200.828ZM107.236 211.622V212.397H108.011V211.622H107.236ZM89.1373 211.622L88.3703 211.512L88.2438 212.397H89.1373V211.622ZM89 213.559V212.784H88.2252L88.2252 213.559L89 213.559ZM107.236 226.289L107.503 227.016L108.011 226.83V226.289H107.236ZM107.236 213.559H108.011V212.784H107.236V213.559ZM109.582 226.056C113.944 223.6 116.892 218.924 116.892 213.559H115.343C115.343 218.342 112.716 222.513 108.822 224.706L109.582 226.056ZM108.427 223.879V225.381H109.977V223.879H108.427ZM108.427 213.559V223.879H109.977V213.559H108.427ZM116.117 212.784H109.202V214.334H116.117V212.784ZM115.343 213.548V213.559H116.892V213.548H115.343ZM116.892 213.559C116.892 213.557 116.892 213.555 116.892 213.553C116.892 213.551 116.892 213.55 116.892 213.548H115.343C115.343 213.55 115.343 213.552 115.343 213.554C115.343 213.556 115.343 213.557 115.343 213.559H116.892ZM116.747 211.512C116.104 207.018 113.379 203.199 109.582 201.061L108.822 202.411C112.211 204.32 114.64 207.728 115.213 211.732L116.747 211.512ZM108.427 201.736V211.622H109.977V201.736H108.427ZM109.202 212.397H115.98V210.847H109.202V212.397ZM106.461 200.828V211.622H108.011V200.828H106.461ZM102.559 200.775C104.11 200.775 105.595 201.051 106.969 201.556L107.503 200.101C105.961 199.534 104.295 199.225 102.559 199.225V200.775ZM89.9043 211.732C90.7903 205.537 96.119 200.775 102.559 200.775V199.225C95.3371 199.225 89.364 204.565 88.3703 211.512L89.9043 211.732ZM89.1373 212.397H107.236V210.847H89.1373V212.397ZM102.559 226.343C95.4984 226.343 89.7748 220.619 89.7748 213.559L88.2252 213.559C88.2253 221.475 94.6426 227.892 102.559 227.892V226.343ZM106.969 225.562C105.595 226.067 104.11 226.343 102.559 226.343V227.892C104.295 227.892 105.961 227.583 107.503 227.016L106.969 225.562ZM106.461 213.559V226.289H108.011V213.559H106.461ZM107.236 212.784H89V214.334H107.236V212.784Z" fill="white" mask="url(#path-1-inside-1_869_136)"/>
</g>
<g opacity="0.2">
<mask id="path-3-inside-2_869_136" fill="white">
<path fill-rule="evenodd" clip-rule="evenodd" d="M238.117 109.559C238.117 114.633 235.33 119.057 231.202 121.381V119.879V109.559H238.117C238.117 109.559 238.117 109.559 238.117 109.559ZM237.98 107.622C237.372 103.373 234.795 99.7594 231.202 97.7363V107.622H237.98ZM229.236 107.622V96.8284C227.778 96.2925 226.203 96 224.559 96C217.728 96 212.077 101.051 211.137 107.622H229.236ZM211 109.508C211 109.525 211 109.542 211 109.559C211 117.047 217.07 123.117 224.559 123.117C226.203 123.117 227.778 122.825 229.236 122.289V109.559H211V109.508Z"/>
</mask>
<path fill-rule="evenodd" clip-rule="evenodd" d="M238.117 109.559C238.117 114.633 235.33 119.057 231.202 121.381V119.879V109.559H238.117C238.117 109.559 238.117 109.559 238.117 109.559ZM237.98 107.622C237.372 103.373 234.795 99.7594 231.202 97.7363V107.622H237.98ZM229.236 107.622V96.8284C227.778 96.2925 226.203 96 224.559 96C217.728 96 212.077 101.051 211.137 107.622H229.236ZM211 109.508C211 109.525 211 109.542 211 109.559C211 117.047 217.07 123.117 224.559 123.117C226.203 123.117 227.778 122.825 229.236 122.289V109.559H211V109.508Z" fill="#0000FF"/>
<path d="M231.202 121.381H230.427V122.707L231.582 122.056L231.202 121.381ZM231.202 109.559V108.784H230.427V109.559H231.202ZM238.117 109.559H238.892V108.784H238.117V109.559ZM237.98 107.622V108.396H238.874L238.747 107.512L237.98 107.622ZM231.202 97.7363L231.582 97.0612L230.427 96.4108V97.7363H231.202ZM231.202 107.622H230.427V108.396H231.202V107.622ZM229.236 96.8284H230.011V96.2877L229.503 96.1011L229.236 96.8284ZM229.236 107.622V108.396H230.011V107.622H229.236ZM211.137 107.622L210.37 107.512L210.244 108.396H211.137V107.622ZM211 109.508H211.775L210.225 109.506L211 109.508ZM229.236 122.289L229.503 123.016L230.011 122.83V122.289H229.236ZM229.236 109.559H230.011V108.784H229.236V109.559ZM211 109.559H210.225V110.333H211V109.559ZM231.582 122.056C235.944 119.6 238.892 114.924 238.892 109.559H237.343C237.343 114.342 234.716 118.513 230.822 120.706L231.582 122.056ZM230.427 119.879V121.381H231.977V119.879H230.427ZM230.427 109.559V119.879H231.977V109.559H230.427ZM238.117 108.784H231.202V110.333H238.117V108.784ZM238.892 109.559V109.559C238.892 109.559 238.892 109.559 238.892 109.559C238.892 109.559 238.892 109.559 238.892 109.559V109.559V109.559C238.892 109.559 238.892 109.559 238.892 109.559C238.892 109.559 238.892 109.559 238.892 109.559V109.559V109.559C238.892 109.559 238.892 109.559 238.892 109.559C238.892 109.559 238.892 109.559 238.892 109.559C238.892 109.559 238.892 109.559 238.892 109.559V109.559C238.892 109.559 238.892 109.559 238.892 109.559C238.892 109.559 238.892 109.559 238.892 109.559C238.892 109.559 238.892 109.559 238.892 109.559V109.559C238.892 109.559 238.892 109.559 238.892 109.559C238.892 109.559 238.892 109.559 238.892 109.559C238.892 109.559 238.892 109.559 238.892 109.559V109.559C238.892 109.559 238.892 109.559 238.892 109.559C238.892 109.559 238.892 109.559 238.892 109.559C238.892 109.559 238.892 109.559 238.892 109.559V109.559V109.559C238.892 109.559 238.892 109.559 238.892 109.559C238.892 109.559 238.892 109.559 238.892 109.559V109.559V109.559C238.892 109.559 238.892 109.559 238.892 109.559C238.892 109.559 238.892 109.559 238.892 109.559C238.892 109.559 238.892 109.559 238.892 109.559V109.559C238.892 109.559 238.892 109.559 238.892 109.559C238.892 109.559 238.892 109.559 238.892 109.559C238.892 109.559 238.892 109.559 238.892 109.559V109.559C238.892 109.559 238.892 109.559 238.892 109.559C238.892 109.559 238.892 109.559 238.892 109.559C238.892 109.559 238.892 109.559 238.892 109.559V109.559V109.559C238.892 109.559 238.892 109.559 238.892 109.559C238.892 109.559 238.892 109.559 238.892 109.559V109.559V109.559C238.892 109.559 238.892 109.559 238.892 109.559C238.892 109.559 238.892 109.559 238.892 109.559C238.892 109.559 238.892 109.559 238.892 109.559V109.559C238.892 109.559 238.892 109.559 238.892 109.559C238.892 109.559 238.892 109.559 238.892 109.559C238.892 109.559 238.892 109.559 238.892 109.559V109.559V109.559C238.892 109.559 238.892 109.559 238.892 109.559C238.892 109.559 238.892 109.559 238.892 109.559C238.892 109.559 238.892 109.559 238.892 109.559V109.559C238.892 109.559 238.892 109.559 238.892 109.559C238.892 109.559 238.892 109.559 238.892 109.559C238.892 109.559 238.892 109.559 238.892 109.559V109.559C238.892 109.559 238.892 109.559 238.892 109.559C238.892 109.559 238.892 109.559 238.892 109.559C238.892 109.559 238.892 109.559 238.892 109.559V109.559V109.559C238.892 109.559 238.892 109.559 238.892 109.559C238.892 109.559 238.892 109.559 238.892 109.559C238.892 109.559 238.892 109.559 238.892 109.559V109.559C238.892 109.559 238.892 109.559 238.892 109.559C238.892 109.559 238.892 109.559 238.892 109.559C238.892 109.559 238.892 109.559 238.892 109.559V109.559V109.559C238.892 109.559 238.892 109.559 238.892 109.559C238.892 109.559 238.892 109.559 238.892 109.559C238.892 109.559 238.892 109.559 238.892 109.559V109.559C238.892 109.559 238.892 109.559 238.892 109.559C238.892 109.559 238.892 109.559 238.892 109.559C238.892 109.559 238.892 109.559 238.892 109.559V109.559V109.559C238.892 109.559 238.892 109.559 238.892 109.559C238.892 109.559 238.892 109.559 238.892 109.559C238.892 109.559 238.892 109.559 238.892 109.559V109.559C238.892 109.559 238.892 109.559 238.892 109.559C238.892 109.559 238.892 109.559 238.892 109.559C238.892 109.559 238.892 109.559 238.892 109.559V109.559C238.892 109.559 238.892 109.559 238.892 109.559C238.892 109.559 238.892 109.559 238.892 109.559C238.892 109.559 238.892 109.559 238.892 109.559V109.559V109.559C238.892 109.559 238.892 109.559 238.892 109.559C238.892 109.559 238.892 109.559 238.892 109.559C238.892 109.559 238.892 109.559 238.892 109.559V109.559C238.892 109.559 238.892 109.559 238.892 109.559C238.892 109.559 238.892 109.559 238.892 109.559C238.892 109.559 238.892 109.559 238.892 109.559V109.559V109.559C238.892 109.559 238.892 109.559 238.892 109.559C238.892 109.559 238.892 109.559 238.892 109.559C238.892 109.559 238.892 109.559 238.892 109.559V109.559C238.892 109.559 238.892 109.559 238.892 109.559C238.892 109.559 238.892 109.559 238.892 109.559C238.892 109.559 238.892 109.559 238.892 109.559V109.559V109.559C238.892 109.559 238.892 109.559 238.892 109.559C238.892 109.559 238.892 109.559 238.892 109.559C238.892 109.559 238.892 109.559 238.892 109.559V109.559C238.892 109.559 238.892 109.559 238.892 109.559C238.892 109.559 238.892 109.559 238.892 109.559C238.892 109.559 238.892 109.559 238.892 109.559V109.559C238.892 109.559 238.892 109.559 238.892 109.559C238.892 109.559 238.892 109.559 238.892 109.559C238.892 109.559 238.892 109.559 238.892 109.559V109.559V109.559C238.892 109.559 238.892 109.559 238.892 109.559C238.892 109.559 238.892 109.559 238.892 109.559C238.892 109.559 238.892 109.559 238.892 109.559V109.559C238.892 109.559 238.892 109.559 238.892 109.559C238.892 109.559 238.892 109.559 238.892 109.559C238.892 109.559 238.892 109.559 238.892 109.559V109.559V109.559C238.892 109.559 238.892 109.559 238.892 109.559C238.892 109.559 238.892 109.559 238.892 109.559V109.559V109.559C238.892 109.559 238.892 109.559 238.892 109.559C238.892 109.559 238.892 109.559 238.892 109.559C238.892 109.559 238.892 109.559 238.892 109.559V109.559C238.892 109.559 238.892 109.559 238.892 109.559C238.892 109.559 238.892 109.559 238.892 109.559C238.892 109.559 238.892 109.559 238.892 109.559V109.559C238.892 109.559 238.892 109.559 238.892 109.559C238.892 109.559 238.892 109.559 238.892 109.559C238.892 109.559 238.892 109.559 238.892 109.559V109.559V109.559C238.892 109.559 238.892 109.559 238.892 109.559C238.892 109.559 238.892 109.559 238.892 109.559V109.559V109.559C238.892 109.559 238.892 109.559 238.892 109.559C238.892 109.559 238.892 109.559 238.892 109.559C238.892 109.559 238.892 109.559 238.892 109.559V109.559C238.892 109.559 238.892 109.559 238.892 109.559C238.892 109.559 238.892 109.559 238.892 109.559C238.892 109.559 238.892 109.559 238.892 109.559V109.559C238.892 109.559 238.892 109.559 238.892 109.559C238.892 109.559 238.892 109.559 238.892 109.559C238.892 109.559 238.892 109.559 238.892 109.559V109.559C238.892 109.559 238.892 109.559 238.892 109.559C238.892 109.559 238.892 109.559 238.892 109.559C238.892 109.559 238.892 109.559 238.892 109.559V109.559V109.559C238.892 109.559 238.892 109.559 238.892 109.559C238.892 109.559 238.892 109.559 238.892 109.559V109.559V109.559C238.892 109.559 238.892 109.559 238.892 109.559C238.892 109.559 238.892 109.559 238.892 109.559V109.559H237.343V109.559C237.343 109.559 237.343 109.559 237.343 109.559C237.343 109.559 237.343 109.559 237.343 109.559V109.559V109.559C237.343 109.559 237.343 109.559 237.343 109.559C237.343 109.559 237.343 109.559 237.343 109.559V109.559V109.559C237.343 109.559 237.343 109.559 237.343 109.559C237.343 109.559 237.343 109.559 237.343 109.559C237.343 109.559 237.343 109.559 237.343 109.559V109.559C237.343 109.559 237.343 109.559 237.343 109.559C237.343 109.559 237.343 109.559 237.343 109.559C237.343 109.559 237.343 109.559 237.343 109.559V109.559C237.343 109.559 237.343 109.559 237.343 109.559C237.343 109.559 237.343 109.559 237.343 109.559C237.343 109.559 237.343 109.559 237.343 109.559V109.559C237.343 109.559 237.343 109.559 237.343 109.559C237.343 109.559 237.343 109.559 237.343 109.559C237.343 109.559 237.343 109.559 237.343 109.559V109.559V109.559C237.343 109.559 237.343 109.559 237.343 109.559C237.343 109.559 237.343 109.559 237.343 109.559V109.559V109.559C237.343 109.559 237.343 109.559 237.343 109.559C237.343 109.559 237.343 109.559 237.343 109.559C237.343 109.559 237.343 109.559 237.343 109.559V109.559C237.343 109.559 237.343 109.559 237.343 109.559C237.343 109.559 237.343 109.559 237.343 109.559C237.343 109.559 237.343 109.559 237.343 109.559V109.559C237.343 109.559 237.343 109.559 237.343 109.559C237.343 109.559 237.343 109.559 237.343 109.559C237.343 109.559 237.343 109.559 237.343 109.559V109.559V109.559C237.343 109.559 237.343 109.559 237.343 109.559C237.343 109.559 237.343 109.559 237.343 109.559V109.559V109.559C237.343 109.559 237.343 109.559 237.343 109.559C237.343 109.559 237.343 109.559 237.343 109.559C237.343 109.559 237.343 109.559 237.343 109.559V109.559C237.343 109.559 237.343 109.559 237.343 109.559C237.343 109.559 237.343 109.559 237.343 109.559C237.343 109.559 237.343 109.559 237.343 109.559V109.559V109.559C237.343 109.559 237.343 109.559 237.343 109.559C237.343 109.559 237.343 109.559 237.343 109.559C237.343 109.559 237.343 109.559 237.343 109.559V109.559C237.343 109.559 237.343 109.559 237.343 109.559C237.343 109.559 237.343 109.559 237.343 109.559C237.343 109.559 237.343 109.559 237.343 109.559V109.559C237.343 109.559 237.343 109.559 237.343 109.559C237.343 109.559 237.343 109.559 237.343 109.559C237.343 109.559 237.343 109.559 237.343 109.559V109.559V109.559C237.343 109.559 237.343 109.559 237.343 109.559C237.343 109.559 237.343 109.559 237.343 109.559C237.343 109.559 237.343 109.559 237.343 109.559V109.559C237.343 109.559 237.343 109.559 237.343 109.559C237.343 109.559 237.343 109.559 237.343 109.559C237.343 109.559 237.343 109.559 237.343 109.559V109.559V109.559C237.343 109.559 237.343 109.559 237.343 109.559C237.343 109.559 237.343 109.559 237.343 109.559C237.343 109.559 237.343 109.559 237.343 109.559V109.559C237.343 109.559 237.343 109.559 237.343 109.559C237.343 109.559 237.343 109.559 237.343 109.559C237.343 109.559 237.343 109.559 237.343 109.559V109.559V109.559C237.343 109.559 237.343 109.559 237.343 109.559C237.343 109.559 237.343 109.559 237.343 109.559C237.343 109.559 237.343 109.559 237.343 109.559V109.559C237.343 109.559 237.343 109.559 237.343 109.559C237.343 109.559 237.343 109.559 237.343 109.559C237.343 109.559 237.343 109.559 237.343 109.559V109.559C237.343 109.559 237.343 109.559 237.343 109.559C237.343 109.559 237.343 109.559 237.343 109.559C237.343 109.559 237.343 109.559 237.343 109.559V109.559V109.559C237.343 109.559 237.343 109.559 237.343 109.559C237.343 109.559 237.343 109.559 237.343 109.559C237.343 109.559 237.343 109.559 237.343 109.559V109.559C237.343 109.559 237.343 109.559 237.343 109.559C237.343 109.559 237.343 109.559 237.343 109.559C237.343 109.559 237.343 109.559 237.343 109.559V109.559V109.559C237.343 109.559 237.343 109.559 237.343 109.559C237.343 109.559 237.343 109.559 237.343 109.559C237.343 109.559 237.343 109.559 237.343 109.559V109.559C237.343 109.559 237.343 109.559 237.343 109.559C237.343 109.559 237.343 109.559 237.343 109.559C237.343 109.559 237.343 109.559 237.343 109.559V109.559V109.559C237.343 109.559 237.343 109.559 237.343 109.559C237.343 109.559 237.343 109.559 237.343 109.559C237.343 109.559 237.343 109.559 237.343 109.559V109.559C237.343 109.559 237.343 109.559 237.343 109.559C237.343 109.559 237.343 109.559 237.343 109.559C237.343 109.559 237.343 109.559 237.343 109.559V109.559C237.343 109.559 237.343 109.559 237.343 109.559C237.343 109.559 237.343 109.559 237.343 109.559C237.343 109.559 237.343 109.559 237.343 109.559V109.559V109.559C237.343 109.559 237.343 109.559 237.343 109.559C237.343 109.559 237.343 109.559 237.343 109.559C237.343 109.559 237.343 109.559 237.343 109.559V109.559C237.343 109.559 237.343 109.559 237.343 109.559C237.343 109.559 237.343 109.559 237.343 109.559C237.343 109.559 237.343 109.559 237.343 109.559V109.559V109.559C237.343 109.559 237.343 109.559 237.343 109.559C237.343 109.559 237.343 109.559 237.343 109.559V109.559V109.559C237.343 109.559 237.343 109.559 237.343 109.559C237.343 109.559 237.343 109.559 237.343 109.559C237.343 109.559 237.343 109.559 237.343 109.559V109.559C237.343 109.559 237.343 109.559 237.343 109.559C237.343 109.559 237.343 109.559 237.343 109.559C237.343 109.559 237.343 109.559 237.343 109.559V109.559C237.343 109.559 237.343 109.559 237.343 109.559C237.343 109.559 237.343 109.559 237.343 109.559C237.343 109.559 237.343 109.559 237.343 109.559V109.559V109.559C237.343 109.559 237.343 109.559 237.343 109.559C237.343 109.559 237.343 109.559 237.343 109.559V109.559V109.559C237.343 109.559 237.343 109.559 237.343 109.559C237.343 109.559 237.343 109.559 237.343 109.559C237.343 109.559 237.343 109.559 237.343 109.559V109.559C237.343 109.559 237.343 109.559 237.343 109.559C237.343 109.559 237.343 109.559 237.343 109.559C237.343 109.559 237.343 109.559 237.343 109.559V109.559C237.343 109.559 237.343 109.559 237.343 109.559C237.343 109.559 237.343 109.559 237.343 109.559C237.343 109.559 237.343 109.559 237.343 109.559V109.559C237.343 109.559 237.343 109.559 237.343 109.559C237.343 109.559 237.343 109.559 237.343 109.559C237.343 109.559 237.343 109.559 237.343 109.559V109.559V109.559C237.343 109.559 237.343 109.559 237.343 109.559C237.343 109.559 237.343 109.559 237.343 109.559V109.559V109.559C237.343 109.559 237.343 109.559 237.343 109.559C237.343 109.559 237.343 109.559 237.343 109.559V109.559H238.892ZM238.747 107.512C238.104 103.018 235.378 99.199 231.582 97.0612L230.822 98.4114C234.211 100.32 236.64 103.728 237.213 107.731L238.747 107.512ZM230.427 97.7363V107.622H231.977V97.7363H230.427ZM231.202 108.396H237.98V106.847H231.202V108.396ZM228.461 96.8284V107.622H230.011V96.8284H228.461ZM224.559 96.7748C226.11 96.7748 227.595 97.0507 228.969 97.5556L229.503 96.1011C227.961 95.5343 226.295 95.2252 224.559 95.2252V96.7748ZM211.904 107.731C212.79 101.537 218.119 96.7748 224.559 96.7748V95.2252C217.337 95.2252 211.364 100.565 210.37 107.512L211.904 107.731ZM211.137 108.396H229.236V106.847H211.137V108.396ZM211.775 109.559C211.775 109.543 211.775 109.527 211.775 109.511L210.225 109.506C210.225 109.523 210.225 109.541 210.225 109.559H211.775ZM224.559 122.343C217.498 122.343 211.775 116.619 211.775 109.559H210.225C210.225 117.475 216.643 123.892 224.559 123.892V122.343ZM228.969 121.562C227.595 122.067 226.11 122.343 224.559 122.343V123.892C226.295 123.892 227.961 123.583 229.503 123.016L228.969 121.562ZM228.461 109.559V122.289H230.011V109.559H228.461ZM229.236 108.784H211V110.333H229.236V108.784ZM211.775 109.559V109.508H210.225V109.559H211.775Z" fill="white" mask="url(#path-3-inside-2_869_136)"/>
</g>
<g opacity="0.2">
<mask id="path-5-inside-3_869_136" fill="white">
<path fill-rule="evenodd" clip-rule="evenodd" d="M313.117 13.5587C313.117 18.6333 310.33 23.0568 306.202 25.3812V23.8786V13.0842H313.109C313.115 13.2417 313.117 13.3999 313.117 13.5587ZM312.904 11.1472C312.178 7.10449 309.66 3.68364 306.202 1.73623V11.1472H312.904ZM304.236 11.1472V0.828351C302.778 0.292522 301.203 0 299.559 0C292.893 0 287.351 4.8094 286.214 11.1472H304.236ZM286.008 13.0842C286.003 13.2417 286 13.3999 286 13.5587C286 21.047 292.07 27.1174 299.559 27.1174C301.203 27.1174 302.778 26.8249 304.236 26.2891V13.0842H286.008Z"/>
</mask>
<path fill-rule="evenodd" clip-rule="evenodd" d="M313.117 13.5587C313.117 18.6333 310.33 23.0568 306.202 25.3812V23.8786V13.0842H313.109C313.115 13.2417 313.117 13.3999 313.117 13.5587ZM312.904 11.1472C312.178 7.10449 309.66 3.68364 306.202 1.73623V11.1472H312.904ZM304.236 11.1472V0.828351C302.778 0.292522 301.203 0 299.559 0C292.893 0 287.351 4.8094 286.214 11.1472H304.236ZM286.008 13.0842C286.003 13.2417 286 13.3999 286 13.5587C286 21.047 292.07 27.1174 299.559 27.1174C301.203 27.1174 302.778 26.8249 304.236 26.2891V13.0842H286.008Z" fill="#0000FF"/>
<path d="M306.202 25.3812H305.427V26.7067L306.582 26.0563L306.202 25.3812ZM306.202 13.0842V12.3094H305.427V13.0842H306.202ZM313.109 13.0842L313.884 13.0576L313.858 12.3094H313.109V13.0842ZM312.904 11.1472V11.922H313.83L313.666 11.0103L312.904 11.1472ZM306.202 1.73623L306.582 1.06113L305.427 0.410747V1.73623H306.202ZM306.202 11.1472H305.427V11.922H306.202V11.1472ZM304.236 0.828351H305.011V0.287649L304.503 0.101127L304.236 0.828351ZM304.236 11.1472V11.922H305.011V11.1472H304.236ZM286.214 11.1472L285.451 11.0103L285.288 11.922H286.214V11.1472ZM286.008 13.0842V12.3094H285.26L285.234 13.0576L286.008 13.0842ZM304.236 26.2891L304.503 27.0163L305.011 26.8298V26.2891H304.236ZM304.236 13.0842H305.011V12.3094H304.236V13.0842ZM306.582 26.0563C310.944 23.6002 313.892 18.9243 313.892 13.5587H312.343C312.343 18.3423 309.716 22.5134 305.822 24.7061L306.582 26.0563ZM305.427 23.8786V25.3812H306.977V23.8786H305.427ZM305.427 13.0842V23.8786H306.977V13.0842H305.427ZM313.109 12.3094H306.202V13.859H313.109V12.3094ZM313.892 13.5587C313.892 13.391 313.889 13.2239 313.884 13.0576L312.335 13.1108C312.34 13.2595 312.343 13.4088 312.343 13.5587H313.892ZM313.666 11.0103C312.899 6.73427 310.236 3.11897 306.582 1.06113L305.822 2.41133C309.084 4.2483 311.457 7.4747 312.141 11.2841L313.666 11.0103ZM305.427 1.73623V11.1472H306.977V1.73623H305.427ZM306.202 11.922H312.904V10.3724H306.202V11.922ZM303.461 0.828351V11.1472H305.011V0.828351H303.461ZM299.559 0.774784C301.11 0.774784 302.595 1.05074 303.969 1.55558L304.503 0.101127C302.961 -0.465697 301.295 -0.774784 299.559 -0.774784V0.774784ZM286.976 11.2841C288.049 5.30896 293.275 0.774784 299.559 0.774784V-0.774784C292.512 -0.774784 286.654 4.30984 285.451 11.0103L286.976 11.2841ZM286.214 11.922H304.236V10.3724H286.214V11.922ZM286.775 13.5587C286.775 13.4088 286.777 13.2595 286.782 13.1108L285.234 13.0576C285.228 13.2239 285.225 13.391 285.225 13.5587H286.775ZM299.559 26.3426C292.498 26.3426 286.775 20.6191 286.775 13.5587H285.225C285.225 21.4749 291.643 27.8922 299.559 27.8922V26.3426ZM303.969 25.5619C302.595 26.0667 301.11 26.3426 299.559 26.3426V27.8922C301.295 27.8922 302.961 27.5831 304.503 27.0163L303.969 25.5619ZM303.461 13.0842V26.2891H305.011V13.0842H303.461ZM304.236 12.3094H286.008V13.859H304.236V12.3094Z" fill="white" mask="url(#path-5-inside-3_869_136)"/>
</g>
<g opacity="0.2">
<mask id="path-7-inside-4_869_136" fill="white">
<path fill-rule="evenodd" clip-rule="evenodd" d="M27.1174 109.559C27.1174 114.633 24.3296 119.057 20.2018 121.381V119.879V109.559H27.1174V109.513C27.1174 109.528 27.1174 109.543 27.1174 109.559ZM26.9801 107.622C26.3723 103.373 23.7946 99.7593 20.2018 97.7362V107.622H26.9801ZM18.2358 107.622V96.8283C16.7779 96.2925 15.2025 96 13.5587 96C6.72814 96 1.07728 101.051 0.137334 107.622H18.2358ZM1.12323e-09 109.559C1.12323e-09 109.559 0 109.559 0 109.559C0 117.047 6.07044 123.117 13.5587 123.117C15.2025 123.117 16.7779 122.825 18.2358 122.289V109.559H1.12323e-09Z"/>
</mask>
<path fill-rule="evenodd" clip-rule="evenodd" d="M27.1174 109.559C27.1174 114.633 24.3296 119.057 20.2018 121.381V119.879V109.559H27.1174V109.513C27.1174 109.528 27.1174 109.543 27.1174 109.559ZM26.9801 107.622C26.3723 103.373 23.7946 99.7593 20.2018 97.7362V107.622H26.9801ZM18.2358 107.622V96.8283C16.7779 96.2925 15.2025 96 13.5587 96C6.72814 96 1.07728 101.051 0.137334 107.622H18.2358ZM1.12323e-09 109.559C1.12323e-09 109.559 0 109.559 0 109.559C0 117.047 6.07044 123.117 13.5587 123.117C15.2025 123.117 16.7779 122.825 18.2358 122.289V109.559H1.12323e-09Z" fill="#0000FF"/>
<path d="M20.2018 121.381H19.4271V122.707L20.582 122.056L20.2018 121.381ZM20.2018 109.559V108.784H19.4271V109.559H20.2018ZM27.1174 109.559V110.333H27.8921V109.559H27.1174ZM27.1174 109.513L27.8921 109.51L26.3426 109.513H27.1174ZM26.9801 107.622V108.396H27.8736L27.7471 107.512L26.9801 107.622ZM20.2018 97.7362L20.582 97.061L19.4271 96.4107V97.7362H20.2018ZM20.2018 107.622H19.4271V108.396H20.2018V107.622ZM18.2358 96.8283H19.0106V96.2876L18.5031 96.1011L18.2358 96.8283ZM18.2358 107.622V108.396H19.0106V107.622H18.2358ZM0.137334 107.622L-0.629642 107.512L-0.756172 108.396H0.137334V107.622ZM1.12323e-09 109.559V108.784H-0.774784V109.559H1.12323e-09ZM18.2358 122.289L18.5031 123.016L19.0106 122.83V122.289H18.2358ZM18.2358 109.559H19.0106V108.784H18.2358V109.559ZM20.582 122.056C24.9436 119.6 27.8922 114.924 27.8922 109.559H26.3426C26.3426 114.342 23.7155 118.513 19.8217 120.706L20.582 122.056ZM19.4271 119.879V121.381H20.9766V119.879H19.4271ZM19.4271 109.559V119.879H20.9766V109.559H19.4271ZM27.1174 108.784H20.2018V110.333H27.1174V108.784ZM26.3426 109.513V109.559H27.8921V109.513H26.3426ZM27.8922 109.559C27.8922 109.543 27.8922 109.526 27.8921 109.51L26.3426 109.515C26.3426 109.53 26.3426 109.544 26.3426 109.559H27.8922ZM27.7471 107.512C27.1042 103.018 24.3784 99.1988 20.582 97.061L19.8217 98.4113C23.2108 100.32 25.6404 103.728 26.2131 107.731L27.7471 107.512ZM19.4271 97.7362V107.622H20.9766V97.7362H19.4271ZM20.2018 108.396H26.9801V106.847H20.2018V108.396ZM17.461 96.8283V107.622H19.0106V96.8283H17.461ZM13.5587 96.7748C15.1099 96.7748 16.595 97.0507 17.9686 97.5555L18.5031 96.1011C16.9608 95.5343 15.295 95.2252 13.5587 95.2252V96.7748ZM0.90431 107.731C1.79044 101.537 7.11913 96.7748 13.5587 96.7748V95.2252C6.33716 95.2252 0.364119 100.565 -0.629642 107.512L0.90431 107.731ZM0.137334 108.396H18.2358V106.847H0.137334V108.396ZM0.774784 109.559C0.774784 109.559 0.774784 109.559 0.774784 109.559C0.774784 109.559 0.774784 109.559 0.774784 109.559H-0.774784C-0.774784 109.559 -0.774784 109.559 -0.774784 109.559C-0.774784 109.559 -0.774784 109.559 -0.774784 109.559H0.774784ZM13.5587 122.343C6.49834 122.343 0.774784 116.619 0.774784 109.559H-0.774784C-0.774784 117.475 5.64254 123.892 13.5587 123.892V122.343ZM17.9686 121.562C16.595 122.067 15.1099 122.343 13.5587 122.343V123.892C15.295 123.892 16.9608 123.583 18.5031 123.016L17.9686 121.562ZM17.461 109.559V122.289H19.0106V109.559H17.461ZM18.2358 108.784H1.12323e-09V110.333H18.2358V108.784Z" fill="white" mask="url(#path-7-inside-4_869_136)"/>
</g>
<g opacity="0.2">
<mask id="path-9-inside-5_869_136" fill="white">
<path fill-rule="evenodd" clip-rule="evenodd" d="M313.117 213.559C313.117 218.633 310.329 223.057 306.202 225.381V223.879V213.559H313.117V213.476C313.117 213.504 313.117 213.531 313.117 213.559ZM312.98 211.622C312.372 207.373 309.795 203.759 306.202 201.736V211.622H312.98ZM304.236 211.622V200.828C302.778 200.292 301.202 200 299.559 200C292.728 200 287.077 205.051 286.137 211.622H304.236ZM286 213.559C286 221.047 292.07 227.117 299.559 227.117C301.202 227.117 302.778 226.825 304.236 226.289V213.559H286Z"/>
</mask>
<path fill-rule="evenodd" clip-rule="evenodd" d="M313.117 213.559C313.117 218.633 310.329 223.057 306.202 225.381V223.879V213.559H313.117V213.476C313.117 213.504 313.117 213.531 313.117 213.559ZM312.98 211.622C312.372 207.373 309.795 203.759 306.202 201.736V211.622H312.98ZM304.236 211.622V200.828C302.778 200.292 301.202 200 299.559 200C292.728 200 287.077 205.051 286.137 211.622H304.236ZM286 213.559C286 221.047 292.07 227.117 299.559 227.117C301.202 227.117 302.778 226.825 304.236 226.289V213.559H286Z" fill="#0000FF"/>
<path d="M306.202 225.381H305.427V226.707L306.582 226.056L306.202 225.381ZM306.202 213.559V212.784H305.427V213.559H306.202ZM313.117 213.559V214.334H313.892V213.559H313.117ZM313.117 213.476L313.892 213.472L312.342 213.476H313.117ZM312.98 211.622V212.397H313.874L313.747 211.512L312.98 211.622ZM306.202 201.736L306.582 201.061L305.427 200.411V201.736H306.202ZM306.202 211.622H305.427V212.397H306.202V211.622ZM304.236 200.828H305.01V200.288L304.503 200.101L304.236 200.828ZM304.236 211.622V212.397H305.01V211.622H304.236ZM286.137 211.622L285.37 211.512L285.244 212.397H286.137V211.622ZM286 213.559V212.784H285.225L285.225 213.559L286 213.559ZM304.236 226.289L304.503 227.016L305.01 226.83V226.289H304.236ZM304.236 213.559H305.01V212.784H304.236V213.559ZM306.582 226.056C310.943 223.6 313.892 218.924 313.892 213.559H312.343C312.343 218.342 309.715 222.514 305.822 224.706L306.582 226.056ZM305.427 223.879V225.381H306.976V223.879H305.427ZM305.427 213.559V223.879H306.976V213.559H305.427ZM313.117 212.784H306.202V214.334H313.117V212.784ZM312.342 213.476V213.559H313.892V213.476H312.342ZM313.892 213.559C313.892 213.53 313.892 213.501 313.892 213.472L312.342 213.481C312.343 213.507 312.343 213.533 312.343 213.559H313.892ZM313.747 211.512C313.104 207.018 310.378 203.199 306.582 201.061L305.822 202.411C309.211 204.32 311.64 207.728 312.213 211.732L313.747 211.512ZM305.427 201.736V211.622H306.976V201.736H305.427ZM306.202 212.397H312.98V210.847H306.202V212.397ZM303.461 200.828V211.622H305.01V200.828H303.461ZM299.559 200.775C301.11 200.775 302.595 201.051 303.968 201.555L304.503 200.101C302.961 199.534 301.295 199.225 299.559 199.225V200.775ZM286.904 211.732C287.79 205.537 293.119 200.775 299.559 200.775V199.225C292.337 199.225 286.364 204.565 285.37 211.512L286.904 211.732ZM286.137 212.397H304.236V210.847H286.137V212.397ZM299.559 226.343C292.498 226.343 286.775 220.619 286.775 213.559L285.225 213.559C285.225 221.475 291.643 227.892 299.559 227.892V226.343ZM303.968 225.562C302.595 226.067 301.11 226.343 299.559 226.343V227.892C301.295 227.892 302.961 227.583 304.503 227.016L303.968 225.562ZM303.461 213.559V226.289H305.01V213.559H303.461ZM304.236 212.784H286V214.334H304.236V212.784Z" fill="white" mask="url(#path-9-inside-5_869_136)"/>
</g>
<g opacity="0.2">
<mask id="path-11-inside-6_869_136" fill="white">
<path fill-rule="evenodd" clip-rule="evenodd" d="M102.559 0C104.203 0 105.778 0.292515 107.236 0.82833V6.74067H90.8364C93.1862 2.70931 97.5561 0 102.559 0ZM89.9051 8.67763C89.3205 10.1922 89 11.838 89 13.5587C89 21.047 95.0704 27.1174 102.559 27.1174C110.047 27.1174 116.117 21.047 116.117 13.5587C116.117 11.838 115.797 10.1922 115.212 8.67763H109.202V18.9977V20.6093L107.236 21.4228V8.67763H89.9051ZM109.202 6.74067H114.281C113.065 4.65432 111.308 2.92207 109.202 1.7362V6.74067Z"/>
</mask>
<path fill-rule="evenodd" clip-rule="evenodd" d="M102.559 0C104.203 0 105.778 0.292515 107.236 0.82833V6.74067H90.8364C93.1862 2.70931 97.5561 0 102.559 0ZM89.9051 8.67763C89.3205 10.1922 89 11.838 89 13.5587C89 21.047 95.0704 27.1174 102.559 27.1174C110.047 27.1174 116.117 21.047 116.117 13.5587C116.117 11.838 115.797 10.1922 115.212 8.67763H109.202V18.9977V20.6093L107.236 21.4228V8.67763H89.9051ZM109.202 6.74067H114.281C113.065 4.65432 111.308 2.92207 109.202 1.7362V6.74067Z" fill="#0000FF"/>
<path d="M107.236 0.82833H108.011V0.287625L107.503 0.101104L107.236 0.82833ZM107.236 6.74067V7.51546H108.011V6.74067H107.236ZM90.8364 6.74067L90.167 6.3505L89.488 7.51546H90.8364V6.74067ZM89.9051 8.67763V7.90285H89.3737L89.1823 8.39863L89.9051 8.67763ZM115.212 8.67763L115.935 8.39863L115.744 7.90285H115.212V8.67763ZM109.202 8.67763V7.90285H108.427V8.67763H109.202ZM109.202 20.6093L109.498 21.3252L109.977 21.1272V20.6093H109.202ZM107.236 21.4228H106.461V22.5819L107.532 22.1387L107.236 21.4228ZM107.236 8.67763H108.011V7.90285H107.236V8.67763ZM109.202 6.74067H108.427V7.51546H109.202V6.74067ZM114.281 6.74067V7.51546H115.629L114.95 6.35051L114.281 6.74067ZM109.202 1.7362L109.582 1.06109L108.427 0.410722V1.7362H109.202ZM107.503 0.101104C105.961 -0.465705 104.295 -0.774784 102.559 -0.774784V0.774784C104.11 0.774784 105.595 1.05073 106.969 1.55556L107.503 0.101104ZM108.011 6.74067V0.82833H106.461V6.74067H108.011ZM90.8364 7.51546H107.236V5.96589H90.8364V7.51546ZM102.559 -0.774784C97.2692 -0.774784 92.6499 2.0908 90.167 6.3505L91.5058 7.13084C93.7225 3.32781 97.8429 0.774784 102.559 0.774784V-0.774784ZM89.1823 8.39863C88.5639 10.0008 88.2252 11.7411 88.2252 13.5587H89.7748C89.7748 11.9349 90.0771 10.3836 90.628 8.95664L89.1823 8.39863ZM88.2252 13.5587C88.2252 21.4749 94.6425 27.8922 102.559 27.8922V26.3426C95.4983 26.3426 89.7748 20.6191 89.7748 13.5587H88.2252ZM102.559 27.8922C110.475 27.8922 116.892 21.4749 116.892 13.5587H115.343C115.343 20.6191 109.619 26.3426 102.559 26.3426V27.8922ZM116.892 13.5587C116.892 11.7411 116.554 10.0008 115.935 8.39863L114.489 8.95664C115.04 10.3836 115.343 11.9349 115.343 13.5587H116.892ZM115.212 7.90285H109.202V9.45242H115.212V7.90285ZM108.427 8.67763V18.9977H109.977V8.67763H108.427ZM108.427 18.9977V20.6093H109.977V18.9977H108.427ZM108.906 19.8934L106.94 20.7069L107.532 22.1387L109.498 21.3252L108.906 19.8934ZM108.011 21.4228V8.67763H106.461V21.4228H108.011ZM107.236 7.90285H89.9051V9.45242H107.236V7.90285ZM109.202 7.51546H114.281V5.96589H109.202V7.51546ZM114.95 6.35051C113.665 4.14525 111.808 2.3146 109.582 1.06109L108.822 2.4113C110.808 3.52953 112.465 5.16339 113.612 7.13084L114.95 6.35051ZM108.427 1.7362V6.74067H109.977V1.7362H108.427Z" fill="white" mask="url(#path-11-inside-6_869_136)"/>
</g>
</svg>
