<svg width="30" height="30" viewBox="0 0 45 45" fill="none" xmlns="http://www.w3.org/2000/svg">
<g clip-path="url(#clip0_183_745)">
<path d="M22.5004 42.85C23.2878 42.8319 24.0434 42.5358 24.6336 42.0143C25.2238 41.4927 25.6106 40.7792 25.7254 40H19.1504C19.2685 40.8004 19.6733 41.5306 20.2895 42.0549C20.9057 42.5791 21.6914 42.8617 22.5004 42.85Z" fill="#555555"/>
<path d="M40.6375 34.7875C39.4321 33.7129 38.3768 32.481 37.5 31.125C36.5428 29.2532 35.9691 27.209 35.8125 25.1125V18.9375C35.8074 18.1874 35.7405 17.4391 35.6125 16.7C34.6286 16.5033 33.6831 16.1487 32.8125 15.65C33.1444 16.7186 33.3129 17.8311 33.3125 18.95V25.125C33.4657 27.6825 34.1692 30.1768 35.375 32.4375C36.238 33.805 37.262 35.064 38.425 36.1875H6.4125C7.57551 35.064 8.5995 33.805 9.4625 32.4375C10.6683 30.1768 11.3718 27.6825 11.525 25.125V18.9375C11.5184 17.4909 11.7973 16.0571 12.3456 14.7184C12.8938 13.3797 13.7008 12.1622 14.7203 11.1358C15.7397 10.1094 16.9516 9.29416 18.2866 8.73677C19.6215 8.17937 21.0533 7.89077 22.5 7.8875C24.6172 7.88919 26.6869 8.51532 28.45 9.6875C28.2556 8.97373 28.1465 8.23945 28.125 7.5V6.7125C26.8198 6.07045 25.4177 5.64811 23.975 5.4625V3.8875C23.975 3.44492 23.7992 3.02047 23.4862 2.70752C23.1733 2.39456 22.7488 2.21875 22.3062 2.21875C21.8637 2.21875 21.4392 2.39456 21.1263 2.70752C20.8133 3.02047 20.6375 3.44492 20.6375 3.8875V5.525C17.4071 5.98069 14.4507 7.58968 12.314 10.0549C10.1773 12.5202 9.00466 15.6752 9.0125 18.9375V25.1125C8.85594 27.209 8.28222 29.2532 7.325 31.125C6.4636 32.4779 5.42524 33.7097 4.2375 34.7875C4.10416 34.9046 3.9973 35.0488 3.92402 35.2105C3.85074 35.3721 3.81272 35.5475 3.8125 35.725V37.425C3.8125 37.7565 3.9442 38.0745 4.17862 38.3089C4.41304 38.5433 4.73098 38.675 5.0625 38.675H39.8125C40.144 38.675 40.462 38.5433 40.6964 38.3089C40.9308 38.0745 41.0625 37.7565 41.0625 37.425V35.725C41.0623 35.5475 41.0243 35.3721 40.951 35.2105C40.8777 35.0488 40.7708 34.9046 40.6375 34.7875Z" fill="#555555"/>
<path d="M37.5 13.75C40.9518 13.75 43.75 10.9518 43.75 7.5C43.75 4.04822 40.9518 1.25 37.5 1.25C34.0482 1.25 31.25 4.04822 31.25 7.5C31.25 10.9518 34.0482 13.75 37.5 13.75Z" fill="#0000FF"/>
</g>
<defs>
<clipPath id="clip0_183_745">
<rect width="45" height="45" fill="white"/>
</clipPath>
</defs>
</svg>
