<svg width="30" height="30" viewBox="0 0 45 45" fill="none" xmlns="http://www.w3.org/2000/svg">
<g clip-path="url(#clip0_965_1367)">
<path d="M40.6375 34.7875C39.4321 33.7129 38.3768 32.481 37.5 31.125C36.5428 29.2532 35.9691 27.209 35.8125 25.1125V18.9375C35.8208 15.6445 34.6263 12.4618 32.4534 9.98747C30.2806 7.51309 27.2789 5.91733 24.0125 5.5V3.8875C24.0125 3.44492 23.8367 3.02047 23.5237 2.70752C23.2108 2.39456 22.7863 2.21875 22.3438 2.21875C21.9012 2.21875 21.4767 2.39456 21.1638 2.70752C20.8508 3.02047 20.675 3.44492 20.675 3.8875V5.525C17.4378 5.97241 14.4725 7.57782 12.3282 10.0439C10.1839 12.5099 9.00591 15.6696 9.0125 18.9375V25.1125C8.85594 27.209 8.28222 29.2532 7.325 31.125C6.4636 32.4779 5.42524 33.7097 4.2375 34.7875C4.10416 34.9046 3.9973 35.0488 3.92402 35.2105C3.85074 35.3721 3.81272 35.5475 3.8125 35.725V37.425C3.8125 37.7565 3.9442 38.0745 4.17862 38.3089C4.41304 38.5433 4.73098 38.675 5.0625 38.675H39.8125C40.144 38.675 40.462 38.5433 40.6964 38.3089C40.9308 38.0745 41.0625 37.7565 41.0625 37.425V35.725C41.0623 35.5475 41.0243 35.3721 40.951 35.2105C40.8777 35.0488 40.7708 34.9046 40.6375 34.7875ZM6.4125 36.175C7.57551 35.0515 8.5995 33.7925 9.4625 32.425C10.6683 30.1643 11.3718 27.67 11.525 25.1125V18.9375C11.4754 17.4725 11.7212 16.0126 12.2476 14.6446C12.774 13.2766 13.5703 12.0285 14.5891 10.9746C15.6079 9.92077 16.8283 9.08271 18.1777 8.51034C19.5272 7.93797 20.978 7.64301 22.4438 7.64301C23.9095 7.64301 25.3603 7.93797 26.7098 8.51034C28.0592 9.08271 29.2796 9.92077 30.2984 10.9746C31.3172 12.0285 32.1135 13.2766 32.6399 14.6446C33.1663 16.0126 33.4121 17.4725 33.3625 18.9375V25.1125C33.5157 27.67 34.2192 30.1643 35.425 32.425C36.288 33.7925 37.312 35.0515 38.475 36.175H6.4125Z" fill="#555555"/>
<path d="M22.5004 42.85C23.2878 42.8319 24.0434 42.5358 24.6336 42.0143C25.2238 41.4927 25.6106 40.7792 25.7254 40H19.1504C19.2685 40.8004 19.6733 41.5306 20.2895 42.0549C20.9057 42.5791 21.6914 42.8617 22.5004 42.85Z" fill="#555555"/>
</g>
<defs>
<clipPath id="clip0_965_1367">
<rect width="45" height="45" fill="white"/>
</clipPath>
</defs>
</svg>
