<svg width="30" height="30" viewBox="0 0 30 30" fill="none" xmlns="http://www.w3.org/2000/svg">
<circle cx="15" cy="15" r="15" fill="#0000FF"/>
<path d="M17.4321 9.4052C17.8515 8.98574 18.4203 8.75006 19.0134 8.75C19.6066 8.74994 20.1755 8.98551 20.5949 9.40488C21.0144 9.82426 21.25 10.3931 21.2501 10.9862C21.2502 11.5794 21.0146 12.1482 20.5952 12.5677L20.0377 13.1252L16.8752 9.9627L17.4321 9.4052ZM16.2127 10.6252L9.96272 16.8746C9.70874 17.1286 9.53024 17.4482 9.4471 17.7977L8.76272 20.6733C8.74419 20.7512 8.74593 20.8326 8.76777 20.9096C8.78961 20.9867 8.83082 21.0568 8.88748 21.1134C8.94413 21.17 9.01434 21.2112 9.09141 21.2329C9.16848 21.2547 9.24984 21.2563 9.32772 21.2377L12.2033 20.5533C12.5529 20.47 12.8725 20.2913 13.1265 20.0371L13.8458 19.3183C13.6975 18.6512 13.7199 17.9575 13.9109 17.3013C14.1019 16.6452 14.4554 16.0478 14.9385 15.5645C15.4217 15.0812 16.019 14.7276 16.6751 14.5364C17.3312 14.3453 18.025 14.3227 18.6921 14.4708L19.3752 13.7877L16.2121 10.6252H16.2127ZM15.799 16.2352C15.8456 16.3968 15.8592 16.5661 15.8388 16.7331C15.8185 16.9 15.7646 17.0611 15.6805 17.2068C15.5964 17.3525 15.4838 17.4796 15.3494 17.5807C15.215 17.6818 15.0616 17.7548 14.8983 17.7952L14.5333 17.8858C14.4748 18.2601 14.4761 18.6413 14.5371 19.0152L14.8746 19.0964C15.0393 19.1361 15.1943 19.2089 15.33 19.3103C15.4658 19.4117 15.5795 19.5397 15.6642 19.6864C15.749 19.8331 15.8031 19.9956 15.8231 20.1638C15.8431 20.3321 15.8288 20.5027 15.7808 20.6652L15.664 21.0596C15.939 21.3008 16.2515 21.4971 16.5921 21.6358L16.9002 21.3114C17.017 21.1886 17.1575 21.0908 17.3133 21.024C17.469 20.9572 17.6367 20.9227 17.8062 20.9227C17.9756 20.9227 18.1433 20.9572 18.2991 21.024C18.4548 21.0908 18.5953 21.1886 18.7121 21.3114L19.024 21.6402C19.3622 21.5025 19.6752 21.3097 19.9502 21.0696L19.8265 20.6408C19.7798 20.4792 19.7663 20.3098 19.7867 20.1428C19.8071 19.9759 19.861 19.8147 19.9451 19.669C20.0293 19.5234 20.142 19.3962 20.2764 19.2951C20.4109 19.1941 20.5644 19.1212 20.7277 19.0808L21.0921 18.9902C21.1506 18.6159 21.1493 18.2347 21.0883 17.8608L20.7508 17.7796C20.5862 17.7398 20.4313 17.667 20.2956 17.5656C20.1599 17.4641 20.0463 17.3361 19.9616 17.1894C19.8769 17.0427 19.8229 16.8803 19.8029 16.7121C19.7829 16.5438 19.7973 16.3733 19.8452 16.2108L19.9615 15.8164C19.6865 15.5742 19.373 15.3794 19.034 15.2402L18.7258 15.5639C18.6091 15.6869 18.4685 15.7847 18.3127 15.8516C18.1569 15.9185 17.9891 15.953 17.8196 15.953C17.65 15.953 17.4823 15.9185 17.3265 15.8516C17.1707 15.7847 17.0301 15.6869 16.9133 15.5639L16.6021 15.2358C16.2621 15.3733 15.9496 15.5671 15.6752 15.8064L15.799 16.2352ZM17.8127 19.3752C17.3127 19.3752 16.9065 18.9558 16.9065 18.4377C16.9065 17.9202 17.3127 17.5002 17.8127 17.5002C18.3127 17.5002 18.719 17.9202 18.719 18.4377C18.719 18.9558 18.3127 19.3752 17.8127 19.3752Z" fill="white"/>
</svg>
