<svg width="44" height="44" viewBox="0 0 44 44" fill="none" xmlns="http://www.w3.org/2000/svg">
<path d="M22 0.120605C9.93555 0.120605 0.121094 9.93545 0.121094 21.9995C0.121094 34.064 9.93555 43.8792 22 43.8792C34.0637 43.8792 43.8789 34.064 43.8789 21.9995C43.8789 9.93545 34.0637 0.120605 22 0.120605ZM28.1836 13.9323C28.1836 14.0359 28.1424 14.1353 28.0692 14.2085C27.9959 14.2818 27.8966 14.323 27.793 14.323L25.3059 14.3245C23.6648 14.3245 23.3648 14.9636 23.3648 16.2222V18.8331H27.6305C27.7426 18.8331 27.8496 18.8815 27.9234 18.9659C27.9973 19.0503 28.0316 19.1624 28.018 19.2737L27.4105 23.9741C27.3984 24.0683 27.3524 24.1548 27.281 24.2175C27.2097 24.2802 27.118 24.3148 27.0231 24.3147H23.3648V35.9862C23.3648 36.0898 23.3237 36.1892 23.2504 36.2624C23.1772 36.3357 23.0778 36.3769 22.9742 36.3769H18.1211C18.0175 36.3769 17.9181 36.3357 17.8449 36.2624C17.7716 36.1892 17.7305 36.0898 17.7305 35.9862V24.3147H14.0605C13.9569 24.3147 13.8576 24.2736 13.7843 24.2003C13.7111 24.1271 13.6699 24.0277 13.6699 23.9241V19.2237C13.6699 19.1201 13.7111 19.0208 13.7843 18.9475C13.8576 18.8743 13.9569 18.8331 14.0605 18.8331H17.7305V15.7569C17.7305 11.6827 20.1961 9.15225 24.166 9.15225C25.8727 9.15225 27.3809 9.2792 27.8441 9.34053C27.938 9.35293 28.0242 9.39903 28.0867 9.47024C28.1491 9.54145 28.1836 9.63293 28.1836 9.72764V13.9323Z" fill="#1A1AFF"/>
</svg>
