<svg width="44" height="44" viewBox="0 0 44 44" fill="none" xmlns="http://www.w3.org/2000/svg">
<path d="M22 0C17.6488 0 13.3953 1.29028 9.77746 3.70767C6.15958 6.12506 3.33979 9.56099 1.67466 13.581C0.00953221 17.6009 -0.426141 22.0244 0.422734 26.292C1.27161 30.5596 3.3669 34.4796 6.44366 37.5563C9.52042 40.6331 13.4404 42.7284 17.708 43.5773C21.9756 44.4261 26.3991 43.9905 30.419 42.3253C34.439 40.6602 37.875 37.8404 40.2923 34.2225C42.7097 30.6047 44 26.3512 44 22C44 19.1109 43.431 16.2501 42.3254 13.581C41.2198 10.9118 39.5992 8.48654 37.5564 6.44365C35.5135 4.40076 33.0882 2.78025 30.419 1.67465C27.7499 0.569047 24.8891 0 22 0ZM33.3896 26.7254C33.3699 27.6755 33.1894 28.6154 32.8556 29.5052C32.5613 30.2662 32.1113 30.9574 31.5343 31.5343C30.9574 32.1113 30.2662 32.5613 29.5052 32.8556C28.6154 33.1894 27.6755 33.3699 26.7254 33.3896C25.5017 33.4446 25.1121 33.4583 22 33.4583C18.8879 33.4583 18.4983 33.4446 17.2746 33.3896C16.3245 33.3699 15.3846 33.1894 14.4948 32.8556C13.7338 32.5613 13.0427 32.1113 12.4657 31.5343C11.8887 30.9574 11.4387 30.2662 11.1444 29.5052C10.8106 28.6154 10.6301 27.6755 10.6104 26.7254C10.5554 25.5017 10.5417 25.1121 10.5417 22C10.5417 18.8879 10.5554 18.4983 10.6104 17.2746C10.6301 16.3245 10.8106 15.3846 11.1444 14.4948C11.4387 13.7338 11.8887 13.0426 12.4657 12.4657C13.0427 11.8887 13.7338 11.4387 14.4948 11.1444C15.3846 10.8106 16.3245 10.6301 17.2746 10.6104C18.4983 10.5554 18.8879 10.5417 22 10.5417C25.1121 10.5417 25.5017 10.5554 26.7254 10.6104C27.6755 10.6301 28.6154 10.8106 29.5052 11.1444C30.2662 11.4387 30.9574 11.8887 31.5343 12.4657C32.1113 13.0426 32.5613 13.7338 32.8556 14.4948C33.1894 15.3846 33.3699 16.3245 33.3896 17.2746C33.4446 18.4983 33.4583 18.8879 33.4583 22C33.4583 25.1121 33.4446 25.5017 33.3896 26.7254Z" fill="#1A1AFF"/>
</svg>
