<svg width="45" height="46" viewBox="0 0 45 46" fill="none" xmlns="http://www.w3.org/2000/svg">
<path fill-rule="evenodd" clip-rule="evenodd" d="M31.875 15.75C31.875 20.9278 27.6778 25.125 22.5 25.125C17.3222 25.125 13.125 20.9278 13.125 15.75C13.125 10.5722 17.3222 6.375 22.5 6.375C27.6778 6.375 31.875 10.5722 31.875 15.75ZM30 15.75C30 17.7391 29.2098 19.6468 27.8033 21.0533C26.3968 22.4598 24.4891 23.25 22.5 23.25C20.5109 23.25 18.6032 22.4598 17.1967 21.0533C15.7902 19.6468 15 17.7391 15 15.75C15 13.7609 15.7902 11.8532 17.1967 10.4467C18.6032 9.04018 20.5109 8.25 22.5 8.25C24.4891 8.25 26.3968 9.04018 27.8033 10.4467C29.2098 11.8532 30 13.7609 30 15.75ZM16.7944 27.8016L16.8047 27.8222L16.875 27.96H27.8897C28.1044 27.5531 28.5909 26.9044 29.0625 27.0122C30.1219 27.2531 31.1887 27.5888 32.2134 28.0022L32.2444 27.9872L32.2547 28.0078L32.2622 28.0219C36.12 29.5894 39.375 32.2463 39.375 35.0344V40.125H5.625V35.0344C5.625 31.4953 10.8713 28.1653 15.9375 27.0122C16.3509 26.9184 16.5966 27.4059 16.7944 27.8016ZM30.66 29.4216C30.2578 29.2808 29.851 29.1535 29.4403 29.04L29.0222 29.835H15.7434L15.3553 29.0972L15.0178 29.1984C15.0112 29.2603 15.0056 29.3297 15.0028 29.4084C14.9906 29.7319 15.015 30.1153 15.0684 30.5053C15.1233 30.9121 15.2111 31.3137 15.3309 31.7063C15.9895 31.7843 16.5993 32.0925 17.0527 32.5765C17.506 33.0605 17.7738 33.6891 17.8086 34.3514C17.8435 35.0136 17.6432 35.6669 17.2432 36.1958C16.8431 36.7247 16.269 37.0953 15.6223 37.242C14.9756 37.3887 14.2978 37.3022 13.7087 36.9977C13.1195 36.6932 12.657 36.1903 12.4026 35.5779C12.1483 34.9654 12.1185 34.2828 12.3186 33.6505C12.5187 33.0183 12.9358 32.4771 13.4963 32.1225L13.4887 32.0963C13.3638 31.6579 13.2708 31.2111 13.2103 30.7594C13.1705 30.4708 13.1443 30.1804 13.1316 29.8894C11.9728 30.3844 10.8919 30.9825 9.98625 31.6425C8.18438 32.9587 7.5 34.1887 7.5 35.0344V38.25H37.5V35.0344C37.5 34.1878 36.8156 32.9578 35.0138 31.6434C34.2281 31.0785 33.3913 30.5882 32.5144 30.1791C32.4762 30.6872 32.3985 31.1915 32.2819 31.6875H32.8125C32.9866 31.6876 33.1572 31.7361 33.3052 31.8277C33.4532 31.9193 33.5728 32.0502 33.6506 32.2059L34.5881 34.0809C34.6538 34.2113 34.6875 34.3547 34.6875 34.5V36.375C34.6875 36.6236 34.5887 36.8621 34.4129 37.0379C34.2371 37.2137 33.9986 37.3125 33.75 37.3125H31.875V35.4375H32.8125V34.7213L32.2331 33.5625H29.6419L29.0625 34.7213V35.4375H30V37.3125H28.125C27.8764 37.3125 27.6379 37.2137 27.4621 37.0379C27.2863 36.8621 27.1875 36.6236 27.1875 36.375V34.5C27.1875 34.3547 27.2213 34.2113 27.2869 34.0809L28.2244 32.2059C28.3022 32.0502 28.4218 31.9193 28.5698 31.8277C28.7178 31.7361 28.8884 31.6876 29.0625 31.6875H30.3394C30.3506 31.65 30.3628 31.6125 30.3741 31.5712C30.4622 31.2703 30.5409 30.8962 30.5944 30.5063C30.6469 30.12 30.6712 29.7422 30.66 29.4216ZM15.9375 34.5C15.9375 35.0381 15.5044 35.4516 15 35.4516C14.4956 35.4516 14.0625 35.0391 14.0625 34.5C14.0625 33.9619 14.4956 33.5484 15 33.5484C15.5044 33.5484 15.9375 33.9609 15.9375 34.5Z" fill="#555555"/>
</svg>
