<svg width="45" height="46" viewBox="0 0 45 46" fill="none" xmlns="http://www.w3.org/2000/svg">
<path d="M30.663 22.038C30.8338 21.8612 30.9283 21.6244 30.9261 21.3786C30.924 21.1328 30.8254 20.8976 30.6516 20.7238C30.4778 20.55 30.2426 20.4514 29.9968 20.4493C29.751 20.4471 29.5142 20.5416 29.3374 20.7124L22.5002 27.5496L19.413 24.4624C19.2362 24.2916 18.9994 24.1971 18.7536 24.1993C18.5078 24.2014 18.2726 24.3 18.0988 24.4738C17.925 24.6476 17.8264 24.8828 17.8243 25.1286C17.8221 25.3744 17.9166 25.6112 18.0874 25.788L22.5002 30.2008L30.663 22.038Z" fill="#555555"/>
<path fill-rule="evenodd" clip-rule="evenodd" d="M35.625 14.8125V34.5C35.625 35.2459 35.3287 35.9613 34.8012 36.4887C34.2738 37.0162 33.5584 37.3125 32.8125 37.3125H15.9375C15.1916 37.3125 14.4762 37.0162 13.9488 36.4887C13.4213 35.9613 13.125 35.2459 13.125 34.5V8.25C13.125 7.50408 13.4213 6.78871 13.9488 6.26126C14.4762 5.73382 15.1916 5.4375 15.9375 5.4375H26.25L35.625 14.8125ZM26.25 15.75C26.0014 15.75 25.7629 15.6512 25.5871 15.4754C25.4113 15.2996 25.3125 15.0611 25.3125 14.8125V7.3125H15.9375C15.6889 7.3125 15.4504 7.41127 15.2746 7.58709C15.0988 7.7629 15 8.00136 15 8.25V34.5C15 34.7486 15.0988 34.9871 15.2746 35.1629C15.4504 35.3387 15.6889 35.4375 15.9375 35.4375H32.8125C33.0611 35.4375 33.2996 35.3387 33.4754 35.1629C33.6512 34.9871 33.75 34.7486 33.75 34.5V15.75H26.25ZM27.1875 9.02625L32.0363 13.875H27.1875V9.02625Z" fill="#555555"/>
<path d="M11.25 11.0625V36.375C11.25 37.1209 11.5463 37.8363 12.0738 38.3637C12.6012 38.8912 13.3166 39.1875 14.0625 39.1875H31.875V41.0625H14.0625C12.8193 41.0625 11.627 40.5686 10.7479 39.6896C9.86886 38.8105 9.375 37.6182 9.375 36.375V11.0625H11.25Z" fill="#555555"/>
</svg>
