<svg width="45" height="46" viewBox="0 0 45 46" fill="none" xmlns="http://www.w3.org/2000/svg">
<path d="M36.5627 23.4313C36.5631 20.6949 35.7651 18.0179 34.2665 15.7283C32.7679 13.4387 30.6339 11.6361 28.126 10.5414C25.6182 9.44671 22.8454 9.10747 20.1476 9.56528C17.4497 10.0231 14.9441 11.258 12.9377 13.1188H15.469C15.842 13.1188 16.1996 13.2669 16.4634 13.5307C16.7271 13.7944 16.8752 14.1521 16.8752 14.525C16.8752 14.898 16.7271 15.2557 16.4634 15.5194C16.1996 15.7831 15.842 15.9313 15.469 15.9313H9.844C9.47104 15.9313 9.11335 15.7831 8.84963 15.5194C8.58591 15.2557 8.43775 14.898 8.43775 14.525V8.90003C8.43775 8.52707 8.58591 8.16938 8.84963 7.90566C9.11335 7.64194 9.47104 7.49378 9.844 7.49378C10.217 7.49378 10.5746 7.64194 10.8384 7.90566C11.1021 8.16938 11.2502 8.52707 11.2502 8.90003V10.8538C14.2135 8.20424 18.017 6.68585 21.9903 6.56624C25.9636 6.44663 29.8515 7.73349 32.9688 10.2C36.0861 12.6665 38.2327 16.1542 39.0301 20.0485C39.8275 23.9428 39.2245 27.9935 37.3275 31.4867C35.4305 34.98 32.3613 37.6914 28.6608 39.1431C24.9603 40.5947 20.8661 40.6935 17.0999 39.4219C13.3337 38.1503 10.1373 35.59 8.0741 32.1923C6.01091 28.7946 5.21339 24.7776 5.82213 20.8494C5.87858 20.5182 6.05188 20.2183 6.31058 20.004C6.56928 19.7896 6.89624 19.6752 7.23213 19.6813C8.09462 19.6813 8.71525 20.5025 8.58962 21.3538C8.3063 23.266 8.42026 25.2161 8.92439 27.0823C9.42853 28.9485 10.312 30.6907 11.5197 32.2001C12.7273 33.7096 14.2332 34.9538 15.9433 35.8552C17.6534 36.7565 19.531 37.2956 21.4587 37.4388C23.3865 37.5819 25.3231 37.3261 27.1476 36.6873C28.9721 36.0484 30.6452 35.0403 32.0626 33.7258C33.48 32.4113 34.6112 30.8187 35.3854 29.0475C36.1597 27.2762 36.5605 25.3644 36.5627 23.4313ZM23.4377 15.4625C23.4377 15.0896 23.2896 14.7319 23.0259 14.4682C22.7621 14.2044 22.4045 14.0563 22.0315 14.0563C21.6585 14.0563 21.3009 14.2044 21.0371 14.4682C20.7734 14.7319 20.6252 15.0896 20.6252 15.4625V23.9C20.6252 24.6763 21.2552 25.3063 22.0315 25.3063H26.719C27.092 25.3063 27.4496 25.1581 27.7134 24.8944C27.9771 24.6307 28.1252 24.273 28.1252 23.9C28.1252 23.5271 27.9771 23.1694 27.7134 22.9057C27.4496 22.6419 27.092 22.4938 26.719 22.4938H23.4377V15.4625Z" fill="#555555"/>
</svg>
