<svg width="45" height="45" viewBox="0 0 45 45" fill="none" xmlns="http://www.w3.org/2000/svg">
<path d="M24.1876 5.625C24.1876 5.17745 24.0098 4.74822 23.6933 4.43176C23.3768 4.11529 22.9476 3.9375 22.5001 3.9375C22.0525 3.9375 21.6233 4.11529 21.3068 4.43176C20.9904 4.74822 20.8126 5.17745 20.8126 5.625V19.125C20.8126 19.5726 20.9904 20.0018 21.3068 20.3182C21.6233 20.6347 22.0525 20.8125 22.5001 20.8125C22.9476 20.8125 23.3768 20.6347 23.6933 20.3182C24.0098 20.0018 24.1876 19.5726 24.1876 19.125V5.625ZM30.9218 9C30.7296 8.88556 30.5165 8.81049 30.295 8.77915C30.0735 8.74781 29.848 8.76082 29.6316 8.81744C29.4151 8.87405 29.2121 8.97314 29.0343 9.10893C28.8565 9.24472 28.7075 9.41451 28.5959 9.60841C28.4844 9.80232 28.4125 10.0165 28.3844 10.2384C28.3564 10.4604 28.3727 10.6857 28.4326 10.9013C28.4924 11.1168 28.5945 11.3183 28.7329 11.4941C28.8713 11.6698 29.0433 11.8163 29.2388 11.925C31.8149 13.4078 33.8296 15.6993 34.9704 18.4441C36.1112 21.1888 36.3142 24.2333 35.5479 27.1053C34.7817 29.9772 33.0891 32.5159 30.7327 34.3276C28.3763 36.1393 25.4878 37.1227 22.5155 37.1252C19.5431 37.1277 16.653 36.1491 14.2936 34.3413C11.9341 32.5336 10.2373 29.9976 9.46628 27.127C8.69527 24.2564 8.89321 21.2115 10.0294 18.4649C11.1656 15.7182 13.1765 13.4233 15.7501 11.9362C15.9421 11.8254 16.1105 11.6779 16.2455 11.502C16.3806 11.3262 16.4796 11.1254 16.5371 10.9113C16.5945 10.6971 16.6093 10.4737 16.5804 10.2539C16.5515 10.0341 16.4796 9.82206 16.3688 9.63C16.258 9.43794 16.1105 9.26959 15.9346 9.13455C15.7587 8.99952 15.558 8.90044 15.3438 8.84299C15.1297 8.78553 14.9063 8.77082 14.6865 8.79969C14.4666 8.82856 14.2546 8.90045 14.0626 9.01125C10.8446 10.8686 8.3295 13.736 6.90761 17.1688C5.48572 20.6015 5.2365 24.4075 6.19863 27.9963C7.16075 31.5851 9.28042 34.7561 12.2288 37.0172C15.1771 39.2783 18.7893 40.5031 22.5048 40.5016C26.2204 40.5001 29.8315 39.2724 32.7781 37.0089C35.7246 34.7455 37.8417 31.5728 38.801 27.9832C39.7602 24.3937 39.508 20.5878 38.0833 17.1563C36.6587 13.7247 34.1413 10.8592 30.9218 9.0045V9Z" fill="#555555"/>
</svg>
