<svg width="45" height="46" viewBox="0 0 45 46" fill="none" xmlns="http://www.w3.org/2000/svg">
<path d="M16.875 23.4312C19.1128 23.4312 21.2589 22.5422 22.8412 20.9599C24.4236 19.3775 25.3125 17.2314 25.3125 14.9937C25.3125 12.7559 24.4236 10.6098 22.8412 9.02744C21.2589 7.4451 19.1128 6.55615 16.875 6.55615C14.6372 6.55615 12.4911 7.4451 10.9088 9.02744C9.32645 10.6098 8.4375 12.7559 8.4375 14.9937C8.4375 17.2314 9.32645 19.3775 10.9088 20.9599C12.4911 22.5422 14.6372 23.4312 16.875 23.4312ZM22.5 14.9937C22.5 16.4855 21.9074 17.9162 20.8525 18.9711C19.7976 20.026 18.3668 20.6187 16.875 20.6187C15.3832 20.6187 13.9524 20.026 12.8975 18.9711C11.8426 17.9162 11.25 16.4855 11.25 14.9937C11.25 13.5018 11.8426 12.0711 12.8975 11.0162C13.9524 9.96128 15.3832 9.36865 16.875 9.36865C18.3668 9.36865 19.7976 9.96128 20.8525 11.0162C21.9074 12.0711 22.5 13.5018 22.5 14.9937ZM33.75 37.4937C33.75 40.3062 30.9375 40.3062 30.9375 40.3062H2.8125C2.8125 40.3062 0 40.3062 0 37.4937C0 34.6812 2.8125 26.2437 16.875 26.2437C30.9375 26.2437 33.75 34.6812 33.75 37.4937ZM30.9375 37.4824C30.9347 36.7905 30.5044 34.7093 28.5975 32.8024C26.7638 30.9687 23.3128 29.0562 16.875 29.0562C10.4344 29.0562 6.98625 30.9687 5.1525 32.8024C3.24563 34.7093 2.81813 36.7905 2.8125 37.4824H30.9375Z" fill="#555555"/>
<path fill-rule="evenodd" clip-rule="evenodd" d="M37.9688 14.9937C38.3417 14.9937 38.6994 15.1418 38.9631 15.4055C39.2268 15.6693 39.375 16.0269 39.375 16.3999V20.6187H43.5938C43.9667 20.6187 44.3244 20.7668 44.5881 21.0305C44.8518 21.2943 45 21.6519 45 22.0249C45 22.3979 44.8518 22.7555 44.5881 23.0193C44.3244 23.283 43.9667 23.4312 43.5938 23.4312H39.375V27.6499C39.375 28.0229 39.2268 28.3805 38.9631 28.6443C38.6994 28.908 38.3417 29.0562 37.9688 29.0562C37.5958 29.0562 37.2381 28.908 36.9744 28.6443C36.7107 28.3805 36.5625 28.0229 36.5625 27.6499V23.4312H32.3438C31.9708 23.4312 31.6131 23.283 31.3494 23.0193C31.0857 22.7555 30.9375 22.3979 30.9375 22.0249C30.9375 21.6519 31.0857 21.2943 31.3494 21.0305C31.6131 20.7668 31.9708 20.6187 32.3438 20.6187H36.5625V16.3999C36.5625 16.0269 36.7107 15.6693 36.9744 15.4055C37.2381 15.1418 37.5958 14.9937 37.9688 14.9937Z" fill="#555555"/>
</svg>
