<svg width="27" height="17" viewBox="0 0 27 17" fill="none" xmlns="http://www.w3.org/2000/svg">
<path fill-rule="evenodd" clip-rule="evenodd" d="M0 8.50021C0 8.25157 0.098772 8.01311 0.274587 7.8373C0.450403 7.66148 0.68886 7.56271 0.9375 7.56271H23.0494L17.1488 1.66396C16.9727 1.48792 16.8738 1.24916 16.8738 1.00021C16.8738 0.751253 16.9727 0.512495 17.1488 0.336457C17.3248 0.16042 17.5635 0.0615234 17.8125 0.0615234C18.0615 0.0615234 18.3002 0.16042 18.4763 0.336457L25.9763 7.83646C26.0636 7.92354 26.1328 8.027 26.1801 8.14089C26.2274 8.25479 26.2517 8.37689 26.2517 8.50021C26.2517 8.62352 26.2274 8.74562 26.1801 8.85952C26.1328 8.97342 26.0636 9.07687 25.9763 9.16396L18.4763 16.664C18.3002 16.84 18.0615 16.9389 17.8125 16.9389C17.5635 16.9389 17.3248 16.84 17.1488 16.664C16.9727 16.4879 16.8738 16.2492 16.8738 16.0002C16.8738 15.7513 16.9727 15.5125 17.1488 15.3365L23.0494 9.43771H0.9375C0.68886 9.43771 0.450403 9.33894 0.274587 9.16312C0.098772 8.9873 0 8.74885 0 8.50021Z" fill="#0000FF"/>
</svg>
