<svg width="54" height="53" viewBox="0 0 54 53" fill="none" xmlns="http://www.w3.org/2000/svg">
<rect width="54" height="53" rx="10" fill="#0202FF" fill-opacity="0.1"/>
<path d="M27 29.5C27.2472 29.5 27.4889 29.4267 27.6945 29.2893C27.9 29.152 28.0602 28.9568 28.1549 28.7284C28.2495 28.4999 28.2742 28.2486 28.226 28.0061C28.1778 27.7637 28.0587 27.5409 27.8839 27.3661C27.7091 27.1913 27.4863 27.0722 27.2439 27.024C27.0014 26.9758 26.7501 27.0005 26.5216 27.0951C26.2932 27.1898 26.098 27.35 25.9607 27.5555C25.8233 27.7611 25.75 28.0028 25.75 28.25C25.75 28.5815 25.8817 28.8995 26.1161 29.1339C26.3505 29.3683 26.6685 29.5 27 29.5ZM33.25 29.5C33.4972 29.5 33.7389 29.4267 33.9445 29.2893C34.15 29.152 34.3102 28.9568 34.4049 28.7284C34.4995 28.4999 34.5242 28.2486 34.476 28.0061C34.4277 27.7637 34.3087 27.5409 34.1339 27.3661C33.9591 27.1913 33.7363 27.0722 33.4939 27.024C33.2514 26.9758 33.0001 27.0005 32.7716 27.0951C32.5432 27.1898 32.348 27.35 32.2107 27.5555C32.0733 27.7611 32 28.0028 32 28.25C32 28.5815 32.1317 28.8995 32.3661 29.1339C32.6005 29.3683 32.9185 29.5 33.25 29.5ZM27 34.5C27.2472 34.5 27.4889 34.4267 27.6945 34.2893C27.9 34.152 28.0602 33.9568 28.1549 33.7284C28.2495 33.4999 28.2742 33.2486 28.226 33.0061C28.1778 32.7637 28.0587 32.5409 27.8839 32.3661C27.7091 32.1913 27.4863 32.0723 27.2439 32.024C27.0014 31.9758 26.7501 32.0005 26.5216 32.0951C26.2932 32.1898 26.098 32.35 25.9607 32.5555C25.8233 32.7611 25.75 33.0028 25.75 33.25C25.75 33.5815 25.8817 33.8995 26.1161 34.1339C26.3505 34.3683 26.6685 34.5 27 34.5ZM33.25 34.5C33.4972 34.5 33.7389 34.4267 33.9445 34.2893C34.15 34.152 34.3102 33.9568 34.4049 33.7284C34.4995 33.4999 34.5242 33.2486 34.476 33.0061C34.4277 32.7637 34.3087 32.5409 34.1339 32.3661C33.9591 32.1913 33.7363 32.0723 33.4939 32.024C33.2514 31.9758 33.0001 32.0005 32.7716 32.0951C32.5432 32.1898 32.348 32.35 32.2107 32.5555C32.0733 32.7611 32 33.0028 32 33.25C32 33.5815 32.1317 33.8995 32.3661 34.1339C32.6005 34.3683 32.9185 34.5 33.25 34.5ZM20.75 29.5C20.9972 29.5 21.2389 29.4267 21.4445 29.2893C21.65 29.152 21.8102 28.9568 21.9048 28.7284C21.9995 28.4999 22.0242 28.2486 21.976 28.0061C21.9278 27.7637 21.8087 27.5409 21.6339 27.3661C21.4591 27.1913 21.2363 27.0722 20.9939 27.024C20.7514 26.9758 20.5001 27.0005 20.2716 27.0951C20.0432 27.1898 19.848 27.35 19.7107 27.5555C19.5733 27.7611 19.5 28.0028 19.5 28.25C19.5 28.5815 19.6317 28.8995 19.8661 29.1339C20.1005 29.3683 20.4185 29.5 20.75 29.5ZM35.75 17H34.5V15.75C34.5 15.4185 34.3683 15.1005 34.1339 14.8661C33.8995 14.6317 33.5815 14.5 33.25 14.5C32.9185 14.5 32.6005 14.6317 32.3661 14.8661C32.1317 15.1005 32 15.4185 32 15.75V17H22V15.75C22 15.4185 21.8683 15.1005 21.6339 14.8661C21.3995 14.6317 21.0815 14.5 20.75 14.5C20.4185 14.5 20.1005 14.6317 19.8661 14.8661C19.6317 15.1005 19.5 15.4185 19.5 15.75V17H18.25C17.2554 17 16.3016 17.3951 15.5983 18.0983C14.8951 18.8016 14.5 19.7554 14.5 20.75V35.75C14.5 36.7446 14.8951 37.6984 15.5983 38.4017C16.3016 39.1049 17.2554 39.5 18.25 39.5H35.75C36.7446 39.5 37.6984 39.1049 38.4017 38.4017C39.1049 37.6984 39.5 36.7446 39.5 35.75V20.75C39.5 19.7554 39.1049 18.8016 38.4017 18.0983C37.6984 17.3951 36.7446 17 35.75 17ZM37 35.75C37 36.0815 36.8683 36.3995 36.6339 36.6339C36.3995 36.8683 36.0815 37 35.75 37H18.25C17.9185 37 17.6005 36.8683 17.3661 36.6339C17.1317 36.3995 17 36.0815 17 35.75V24.5H37V35.75ZM37 22H17V20.75C17 20.4185 17.1317 20.1005 17.3661 19.8661C17.6005 19.6317 17.9185 19.5 18.25 19.5H35.75C36.0815 19.5 36.3995 19.6317 36.6339 19.8661C36.8683 20.1005 37 20.4185 37 20.75V22ZM20.75 34.5C20.9972 34.5 21.2389 34.4267 21.4445 34.2893C21.65 34.152 21.8102 33.9568 21.9048 33.7284C21.9995 33.4999 22.0242 33.2486 21.976 33.0061C21.9278 32.7637 21.8087 32.5409 21.6339 32.3661C21.4591 32.1913 21.2363 32.0723 20.9939 32.024C20.7514 31.9758 20.5001 32.0005 20.2716 32.0951C20.0432 32.1898 19.848 32.35 19.7107 32.5555C19.5733 32.7611 19.5 33.0028 19.5 33.25C19.5 33.5815 19.6317 33.8995 19.8661 34.1339C20.1005 34.3683 20.4185 34.5 20.75 34.5Z" fill="#0000FF"/>
</svg>
