<svg width="45" height="46" viewBox="0 0 45 46" fill="none" xmlns="http://www.w3.org/2000/svg">
<path d="M22.5 27.1812C22.8708 27.1812 23.2334 27.0712 23.5417 26.8652C23.85 26.6591 24.0904 26.3663 24.2323 26.0237C24.3742 25.6811 24.4113 25.3041 24.339 24.9404C24.2666 24.5766 24.088 24.2426 23.8258 23.9803C23.5636 23.7181 23.2295 23.5395 22.8658 23.4672C22.5021 23.3948 22.1251 23.432 21.7825 23.5739C21.4399 23.7158 21.147 23.9561 20.941 24.2645C20.735 24.5728 20.625 24.9353 20.625 25.3062C20.625 25.8034 20.8225 26.2803 21.1742 26.632C21.5258 26.9836 22.0027 27.1812 22.5 27.1812ZM31.875 27.1812C32.2458 27.1812 32.6084 27.0712 32.9167 26.8652C33.225 26.6591 33.4654 26.3663 33.6073 26.0237C33.7492 25.6811 33.7863 25.3041 33.714 24.9404C33.6416 24.5766 33.4631 24.2426 33.2008 23.9803C32.9386 23.7181 32.6045 23.5395 32.2408 23.4672C31.8771 23.3948 31.5001 23.432 31.1575 23.5739C30.8149 23.7158 30.522 23.9561 30.316 24.2645C30.11 24.5728 30 24.9353 30 25.3062C30 25.8034 30.1975 26.2803 30.5492 26.632C30.9008 26.9836 31.3777 27.1812 31.875 27.1812ZM22.5 34.6812C22.8708 34.6812 23.2334 34.5712 23.5417 34.3652C23.85 34.1591 24.0904 33.8663 24.2323 33.5237C24.3742 33.1811 24.4113 32.8041 24.339 32.4404C24.2666 32.0766 24.088 31.7425 23.8258 31.4803C23.5636 31.2181 23.2295 31.0395 22.8658 30.9672C22.5021 30.8948 22.1251 30.932 21.7825 31.0739C21.4399 31.2158 21.147 31.4561 20.941 31.7645C20.735 32.0728 20.625 32.4353 20.625 32.8062C20.625 33.3034 20.8225 33.7803 21.1742 34.132C21.5258 34.4836 22.0027 34.6812 22.5 34.6812ZM31.875 34.6812C32.2458 34.6812 32.6084 34.5712 32.9167 34.3652C33.225 34.1591 33.4654 33.8663 33.6073 33.5237C33.7492 33.1811 33.7863 32.8041 33.714 32.4404C33.6416 32.0766 33.4631 31.7425 33.2008 31.4803C32.9386 31.2181 32.6045 31.0395 32.2408 30.9672C31.8771 30.8948 31.5001 30.932 31.1575 31.0739C30.8149 31.2158 30.522 31.4561 30.316 31.7645C30.11 32.0728 30 32.4353 30 32.8062C30 33.3034 30.1975 33.7803 30.5492 34.132C30.9008 34.4836 31.3777 34.6812 31.875 34.6812ZM13.125 27.1812C13.4958 27.1812 13.8584 27.0712 14.1667 26.8652C14.475 26.6591 14.7154 26.3663 14.8573 26.0237C14.9992 25.6811 15.0363 25.3041 14.964 24.9404C14.8916 24.5766 14.713 24.2426 14.4508 23.9803C14.1886 23.7181 13.8545 23.5395 13.4908 23.4672C13.1271 23.3948 12.7501 23.432 12.4075 23.5739C12.0649 23.7158 11.772 23.9561 11.566 24.2645C11.36 24.5728 11.25 24.9353 11.25 25.3062C11.25 25.8034 11.4475 26.2803 11.7992 26.632C12.1508 26.9836 12.6277 27.1812 13.125 27.1812ZM35.625 8.43115H33.75V6.55615C33.75 6.05887 33.5525 5.58196 33.2008 5.23033C32.8492 4.8787 32.3723 4.68115 31.875 4.68115C31.3777 4.68115 30.9008 4.8787 30.5492 5.23033C30.1975 5.58196 30 6.05887 30 6.55615V8.43115H15V6.55615C15 6.05887 14.8025 5.58196 14.4508 5.23033C14.0992 4.8787 13.6223 4.68115 13.125 4.68115C12.6277 4.68115 12.1508 4.8787 11.7992 5.23033C11.4475 5.58196 11.25 6.05887 11.25 6.55615V8.43115H9.375C7.88316 8.43115 6.45242 9.02378 5.39752 10.0787C4.34263 11.1336 3.75 12.5643 3.75 14.0562V36.5562C3.75 38.048 4.34263 39.4787 5.39752 40.5336C6.45242 41.5885 7.88316 42.1812 9.375 42.1812H35.625C37.1168 42.1812 38.5476 41.5885 39.6025 40.5336C40.6574 39.4787 41.25 38.048 41.25 36.5562V14.0562C41.25 12.5643 40.6574 11.1336 39.6025 10.0787C38.5476 9.02378 37.1168 8.43115 35.625 8.43115ZM37.5 36.5562C37.5 37.0534 37.3025 37.5303 36.9508 37.882C36.5992 38.2336 36.1223 38.4312 35.625 38.4312H9.375C8.87772 38.4312 8.40081 38.2336 8.04918 37.882C7.69754 37.5303 7.5 37.0534 7.5 36.5562V19.6812H37.5V36.5562ZM37.5 15.9312H7.5V14.0562C7.5 13.5589 7.69754 13.082 8.04918 12.7303C8.40081 12.3787 8.87772 12.1812 9.375 12.1812H35.625C36.1223 12.1812 36.5992 12.3787 36.9508 12.7303C37.3025 13.082 37.5 13.5589 37.5 14.0562V15.9312ZM13.125 34.6812C13.4958 34.6812 13.8584 34.5712 14.1667 34.3652C14.475 34.1591 14.7154 33.8663 14.8573 33.5237C14.9992 33.1811 15.0363 32.8041 14.964 32.4404C14.8916 32.0766 14.713 31.7425 14.4508 31.4803C14.1886 31.2181 13.8545 31.0395 13.4908 30.9672C13.1271 30.8948 12.7501 30.932 12.4075 31.0739C12.0649 31.2158 11.772 31.4561 11.566 31.7645C11.36 32.0728 11.25 32.4353 11.25 32.8062C11.25 33.3034 11.4475 33.7803 11.7992 34.132C12.1508 34.4836 12.6277 34.6812 13.125 34.6812Z" fill="#555555"/>
</svg>
