<svg width="60" height="57" viewBox="0 0 60 57" fill="none" xmlns="http://www.w3.org/2000/svg">
<rect x="0.251953" y="0.815186" width="59.4382" height="55.8491" rx="5.94382" fill="white"/>
<path d="M15.1113 21.4095C15.1113 20.0607 16.2763 18.9661 17.7117 18.9661H37.7721C39.2076 18.9661 40.3726 20.0607 40.3726 21.4095V33.2774C40.3726 33.9254 40.0986 34.5469 39.6109 35.0051C39.1232 35.4634 38.4618 35.7208 37.7721 35.7208H17.7117C17.0221 35.7208 16.3606 35.4634 15.873 35.0051C15.3853 34.5469 15.1113 33.9254 15.1113 33.2774V21.4095ZM19.5692 20.7113V22.1076C19.5692 22.3853 19.4518 22.6517 19.2428 22.848C19.0338 23.0444 18.7503 23.1547 18.4547 23.1547H16.9688V25.2491H18.4547C18.8938 25.2491 19.3286 25.1678 19.7342 25.0099C20.1398 24.8521 20.5084 24.6207 20.8189 24.329C21.1293 24.0372 21.3756 23.6909 21.5436 23.3098C21.7116 22.9286 21.7981 22.5201 21.7981 22.1076V20.7113H19.5692ZM27.7419 30.834C28.6287 30.834 29.4791 30.503 30.1061 29.9139C30.7331 29.3247 31.0853 28.5257 31.0853 27.6925C31.0853 26.8593 30.7331 26.0602 30.1061 25.4711C29.4791 24.8819 28.6287 24.551 27.7419 24.551C26.8552 24.551 26.0048 24.8819 25.3778 25.4711C24.7508 26.0602 24.3985 26.8593 24.3985 27.6925C24.3985 28.5257 24.7508 29.3247 25.3778 29.9139C26.0048 30.503 26.8552 30.834 27.7419 30.834ZM16.9688 31.5321H18.4547C18.7503 31.5321 19.0338 31.6424 19.2428 31.8388C19.4518 32.0352 19.5692 32.3015 19.5692 32.5793V33.9755H21.7981V32.5793C21.7981 31.7461 21.4459 30.947 20.8189 30.3579C20.1919 29.7687 19.3415 29.4378 18.4547 29.4378H16.9688V31.5321ZM35.9147 32.5793C35.9147 32.3015 36.0321 32.0352 36.2411 31.8388C36.4501 31.6424 36.7336 31.5321 37.0292 31.5321H38.5151V29.4378H37.0292C36.1424 29.4378 35.292 29.7687 34.665 30.3579C34.038 30.947 33.6858 31.7461 33.6858 32.5793V33.9755H35.9147V32.5793ZM35.9147 22.1076V20.7113H33.6858V22.1076C33.6858 22.5201 33.7722 22.9286 33.9403 23.3098C34.1083 23.6909 34.3546 24.0372 34.665 24.329C35.292 24.9181 36.1424 25.2491 37.0292 25.2491H38.5151V23.1547H37.0292C36.7336 23.1547 36.4501 23.0444 36.2411 22.848C36.0321 22.6517 35.9147 22.3853 35.9147 22.1076ZM18.6791 37.8151C19.0704 38.4522 19.6333 38.9811 20.3113 39.3488C20.9892 39.7165 21.7583 39.9098 22.5411 39.9095H37.7721C38.699 39.9095 39.6169 39.7379 40.4732 39.4046C41.3296 39.0713 42.1077 38.5828 42.7631 37.967C43.4185 37.3511 43.9384 36.62 44.2931 35.8154C44.6479 35.0107 44.8304 34.1483 44.8304 33.2774V25.9472C44.8307 25.2117 44.6248 24.4891 44.2335 23.8521C43.8423 23.2151 43.2794 22.6861 42.6015 22.3184V33.2774C42.6015 34.4809 42.0927 35.6351 41.187 36.486C40.2813 37.337 39.053 37.8151 37.7721 37.8151H18.6791Z" fill="#1BBF00"/>
</svg>
