<svg width="476" height="338" viewBox="0 0 476 338" fill="none" xmlns="http://www.w3.org/2000/svg">
<g clip-path="url(#clip0_391_6988)">
<path opacity="0.1" d="M158.25 336.978C181.431 336.978 200.223 333.96 200.223 330.237C200.223 326.514 181.431 323.496 158.25 323.496C135.069 323.496 116.278 326.514 116.278 330.237C116.278 333.96 135.069 336.978 158.25 336.978Z" fill="#6C63FF"/>
<path opacity="0.1" d="M386.408 337.168C415.334 337.168 438.783 334.15 438.783 330.427C438.783 326.704 415.334 323.686 386.408 323.686C357.481 323.686 334.032 326.704 334.032 330.427C334.032 334.15 357.481 337.168 386.408 337.168Z" fill="#6C63FF"/>
<path opacity="0.1" d="M5.96164 145.681H49.6788V205.267H9.16214C9.05445 205.878 8.95107 206.494 8.83908 207.11H49.6788V255.165C49.6056 255.144 49.541 255.118 49.4721 255.092C48.3176 254.635 47.1718 254.153 46.026 253.636L45.2938 253.304C44.1451 252.762 42.9964 252.187 41.8477 251.581C41.4471 251.37 41.0465 251.151 40.6502 250.927C34.2733 247.355 28.4802 242.828 23.4718 237.504C23.3253 237.362 23.1875 237.212 23.041 237.074C22.3432 236.316 21.6583 235.549 20.9949 234.765L20.2627 233.903C19.4787 232.943 18.7206 231.956 17.984 230.957C17.8763 230.811 17.7729 230.664 17.6609 230.526C14.6652 226.373 12.1778 221.875 10.2519 217.13C10.1916 216.988 10.14 216.833 10.084 216.699C9.49239 215.177 8.9683 213.641 8.5117 212.09C8.31356 211.44 8.12403 210.798 7.96034 210.121C7.90003 209.923 7.84834 209.729 7.80096 209.536C5.35428 199.986 5.06567 190.066 5.06567 180.214C5.06567 179.064 5.06567 177.91 5.06567 176.768C5.06567 172.784 5.11306 168.773 5.18198 164.767C5.18198 163.729 5.22505 162.695 5.24659 161.653C5.3069 159.008 5.39305 156.363 5.50504 153.719C5.53089 152.982 5.56535 152.25 5.60412 151.517C5.60412 151.095 5.62565 150.673 5.66873 150.251C5.77211 148.717 5.85826 147.197 5.96164 145.681Z" fill="#6C63FF"/>
<path opacity="0.1" d="M49.6788 79.3357H25.6987C29.5968 73.2344 33.8559 67.3714 38.4533 61.7781C42.0157 57.4017 45.7762 53.1372 49.6788 49.0278V79.3357Z" fill="#6C63FF"/>
<path opacity="0.1" d="M298.461 83.8071H271.358V143.833H298.461V83.8071Z" fill="#6C63FF"/>
<path opacity="0.1" d="M369.147 79.3359H351.486V73.8481H359.404V57.501C360.09 57.7508 360.773 58.0078 361.454 58.272V73.8481H369.147V79.3359Z" fill="#6C63FF"/>
<path opacity="0.1" d="M452.003 207.111H475.983C475.772 219.211 473.342 231.095 468.027 242.071C463.603 251.19 457.456 259.163 450.193 266.128V228.222H452.003V207.111Z" fill="#6C63FF"/>
<path opacity="0.1" d="M475.996 205.267H452.003V155.467H464.986C471.706 171.168 475.974 188.398 475.996 205.267Z" fill="#6C63FF"/>
<path opacity="0.1" d="M298.465 100.495H283.944V119.314H298.465V100.495Z" fill="#6C63FF"/>
<path opacity="0.1" d="M298.465 139.503H283.944V143.837H298.465V139.503Z" fill="#6C63FF"/>
<path opacity="0.1" d="M346.442 151.453H334.191V163.703H346.442V151.453Z" fill="#6C63FF"/>
<path opacity="0.1" d="M81.1928 208.191H68.9421V220.442H81.1928V208.191Z" fill="#6C63FF"/>
<path opacity="0.1" d="M81.1928 236.647H68.9421V248.898H81.1928V236.647Z" fill="#6C63FF"/>
<path opacity="0.1" d="M393.209 151.453H380.958V163.703H393.209V151.453Z" fill="#6C63FF"/>
<path opacity="0.1" d="M393.209 181.67H380.958V193.921H393.209V181.67Z" fill="#6C63FF"/>
<path opacity="0.1" d="M393.209 211.883H380.958V224.134H393.209V211.883Z" fill="#6C63FF"/>
<path opacity="0.1" d="M393.209 242.101H380.958V254.351H393.209V242.101Z" fill="#6C63FF"/>
<path opacity="0.1" d="M393.209 272.318H380.958V284.569H393.209V272.318Z" fill="#6C63FF"/>
<path opacity="0.1" d="M7.93457 210.113C8.10256 210.772 8.29209 211.431 8.49024 212.081V210.552H11.9363V216.677H10.0926C10.1486 216.82 10.2046 216.975 10.2606 217.108H49.6789V210.113H7.93457ZM16.1189 216.677H12.6729V210.552H16.1189V216.677ZM20.2843 216.677H16.8382V210.552H20.2843V216.677ZM24.4583 216.677H21.0036V210.552H24.4497L24.4583 216.677ZM28.628 216.677H25.1819V210.552H28.628V216.677ZM32.802 216.677H29.3559V210.552H32.802V216.677ZM36.976 216.677H33.5299V210.552H36.976V216.677ZM41.1457 216.677H37.6996V210.552H41.1457V216.677ZM45.3154 216.677H41.8693V210.552H45.3154V216.677ZM49.4851 216.677H46.039V210.552H49.4851V216.677Z" fill="#6C63FF"/>
<path opacity="0.1" d="M17.6694 230.513C17.7771 230.651 17.8805 230.806 17.9925 230.944H20.2712V233.886C20.5167 234.179 20.7579 234.472 21.0078 234.747V230.927H24.4538V237.074H23.0582C23.196 237.216 23.3295 237.366 23.4889 237.504H49.6917V230.513H17.6694ZM28.6149 237.074H25.1689V230.953H28.6149V237.074ZM32.7889 237.074H29.3429V230.953H32.7889V237.074ZM36.9629 237.074H33.5169V230.953H36.9629V237.074ZM41.1326 237.074H37.6866V230.953H41.1326V237.074ZM45.3023 237.074H41.8563V230.953H45.3023V237.074ZM49.472 237.074H46.0259V230.953H49.472V237.074Z" fill="#6C63FF"/>
<path opacity="0.1" d="M40.6675 250.91C41.0595 251.134 41.4601 251.34 41.865 251.564V251.349H45.311V253.287L46.0433 253.628V251.349H49.4893V255.075C49.5554 255.108 49.6247 255.134 49.6961 255.153V250.91H40.6675Z" fill="#6C63FF"/>
<path opacity="0.1" d="M324.995 143.837H325.021H324.995ZM298.461 270.97H298.891H298.461ZM270.776 206.284C270.858 206.559 270.927 206.835 271.004 207.106C270.935 206.835 270.862 206.559 270.776 206.284ZM324.995 143.824H325.021H324.995ZM64.8198 79.3232V81.1626H84.0616V79.3232H64.8198ZM298.461 270.97H298.891H298.461ZM270.776 206.284C270.858 206.559 270.927 206.835 271.004 207.106C270.935 206.835 270.862 206.559 270.776 206.284ZM324.995 143.824H325.021H324.995ZM298.461 270.957H298.891H298.461ZM270.776 206.284C270.858 206.559 270.927 206.835 271.004 207.106C270.935 206.835 270.862 206.559 270.776 206.284Z" fill="#6C63FF"/>
<path d="M198.836 163.544C198.836 163.544 197.139 163.307 197.139 160.835C197.139 158.362 195.924 153.745 195.924 153.745C195.924 153.723 194.873 145.703 193.421 144.428C191.97 143.152 190.105 135.666 190.105 135.666C190.105 135.666 189.786 131.604 189.135 130.73C188.485 129.855 187.606 127.714 186.31 124.66C185.013 121.606 179.607 119.491 179.607 119.491C179.607 119.491 169.833 113.822 167.064 111.975C166.812 111.823 166.577 111.645 166.362 111.445C165.879 110.811 163.777 110.799 163.777 110.799C163.557 109.412 163.346 107.818 163.277 106.375C163.277 106.22 163.277 106.065 163.256 105.91C166.344 104.084 168.671 101.205 169.808 97.8027C169.859 97.639 169.902 97.4667 169.95 97.3031C170.135 97.2421 170.305 97.1432 170.45 97.0126C170.594 96.8821 170.71 96.7228 170.79 96.5449C171.039 95.9893 171.044 95.3388 171.354 94.8219C171.716 94.2103 172.405 93.8829 172.948 93.422C174.318 92.2589 174.671 90.299 174.606 88.5157C174.563 87.0727 174.33 85.6167 174.421 84.1823L174.447 83.8205C174.473 83.6051 174.503 83.3897 174.542 83.183C174.753 82.1147 175.213 81.1067 175.472 80.0471C175.73 78.9874 175.756 77.7942 175.153 76.881C174.27 75.5414 172.431 75.2743 170.815 75.1365C168.985 74.9814 167.348 75.1839 166.176 73.6633C165.628 72.8686 165.011 72.1234 164.333 71.4363C164.091 71.2123 161.748 69.7822 161.748 69.6874C159.461 68.6282 156.869 68.4294 154.447 69.1275C153.232 69.4807 152.086 70.0579 150.854 70.3465C148.197 70.9754 145.138 70.2948 142.881 71.8154C141.623 72.6769 140.87 74.0467 140.163 75.382C139.589 76.4819 139.006 77.5803 138.414 78.6773C137.462 80.4821 136.493 82.3171 136.092 84.3158C136.008 84.7508 135.956 85.1913 135.937 85.6339V85.6555C135.937 85.8149 135.937 85.9742 135.937 86.1336V86.3361C135.937 86.4868 135.937 86.6333 135.963 86.7668C135.989 86.9004 135.985 86.9434 135.998 87.0339C136.011 87.1243 136.032 87.3268 136.058 87.4646C136.084 87.6025 136.136 87.8437 136.187 88.0332C136.209 88.1151 136.239 88.1926 136.265 88.2702C136.308 88.4166 136.36 88.5588 136.416 88.7009C136.446 88.7741 136.476 88.8517 136.51 88.9249C136.575 89.0757 136.652 89.2221 136.73 89.3557C136.764 89.416 136.79 89.472 136.825 89.528C136.945 89.7283 137.077 89.921 137.221 90.1052C138.143 91.2553 139.5 91.9876 140.503 93.0644C140.503 93.1075 140.503 93.1506 140.503 93.1894C140.503 93.31 140.503 93.4263 140.503 93.5469C140.557 95.9486 141.196 98.3009 142.365 100.399C143.535 102.497 145.2 104.278 147.215 105.586C147.215 105.75 147.236 105.918 147.245 106.082C147.329 107.36 147.313 108.644 147.197 109.92C147.022 109.713 146.802 109.549 146.555 109.438C146.307 109.328 146.038 109.275 145.767 109.282C145.582 109.273 145.397 109.289 145.216 109.33L145.177 109.3V109.338C144.229 109.571 143.062 110.557 141.946 113.362C141.946 113.362 138.552 117.187 135.968 117.027C133.383 116.868 126.84 121.007 126.84 121.007C126.84 121.007 120.456 125.151 119.086 129.373C118.321 131.766 117.403 134.109 116.338 136.385L108.447 152.646L106.991 165.547C106.991 165.547 107.796 171.285 107.637 172.159C107.477 173.034 110.949 180.921 110.949 180.921C110.949 180.921 122.42 201.076 127.107 202.11L127.443 201.873C127.643 201.978 127.856 202.057 128.076 202.11L129.041 201.429C129.099 202.188 129.074 202.95 128.968 203.704C128.322 205.694 129.209 218.681 130.338 221.227C131.466 223.772 131.066 257.151 131.066 257.151L130.906 260.098C130.906 260.098 130.906 260.193 130.945 260.356L130.906 261.054L131.022 261.114C131.143 262.049 131.104 262.997 130.906 263.919C130.501 265.211 130.338 268.864 130.338 268.864C130.338 268.864 127.111 289.488 128.64 293.632C130.17 297.776 131.47 302.316 131.47 302.316C131.47 302.316 133.086 307.485 131.548 308.368C130.01 309.251 125.638 310.733 126.538 312.887C127.357 314.877 130.462 320.209 130.923 320.989L130.885 321.398L130.251 328.26C130.354 329.166 130.6 330.05 130.979 330.879C131.673 332.374 133.021 333.925 135.584 333.757C136.015 333.727 136.515 333.675 136.997 333.61C141.688 332.981 147.464 330.888 147.464 330.888C147.164 330.697 146.89 330.47 146.646 330.212C146.415 329.988 146.233 329.72 146.109 329.424C145.985 329.128 145.923 328.81 145.927 328.489C145.995 327.239 143.656 321.286 143.075 319.822C142.985 319.611 142.937 319.49 142.937 319.49C142.937 319.49 148.27 313.916 147.382 308.975C147.382 308.975 141.481 305.529 143.424 303.638C145.367 301.747 148.838 296.316 148.838 296.316C148.838 296.316 148.998 276.006 148.838 272.973C148.672 270.868 148.772 268.751 149.136 266.671C149.2 266.357 149.278 266.051 149.36 265.749C152.046 266.15 154.759 266.356 157.475 266.365C158.466 266.365 159.474 266.365 160.49 266.305C160.49 266.592 160.503 266.902 160.529 267.235C160.753 272.267 161.171 281.088 161.511 284.366C161.994 289.066 164.66 301.73 164.66 301.73C164.66 301.73 159.573 304.995 165.547 313.042C165.547 313.042 165.547 315.958 165.151 316.38C164.728 317.76 164.387 319.164 164.13 320.584C163.88 322.1 163.777 323.634 164.182 324.431C165.151 326.335 170.966 326.18 170.966 326.18L171.108 326.154C172.206 326.04 173.316 326.146 174.372 326.465C175.429 326.783 176.412 327.309 177.264 328.01C179.474 329.785 187.86 329.005 192.401 328.441C194.18 328.217 195.368 328.01 195.368 328.01C195.426 327.809 195.447 327.599 195.429 327.39C195.381 326.274 194.507 323.828 188.58 321.644C188.58 321.644 183.006 317.896 183.083 314.631H182.967H182.321C182.79 314.605 183.092 314.631 183.092 314.631C183.092 314.631 180.908 306.662 181.8 306.016C182.691 305.37 180.021 296.54 180.021 296.54C180.021 296.54 178.492 281.722 178.41 280.683C178.413 279.793 178.548 278.907 178.81 278.056L178.41 269.932C178.41 269.932 178.332 267.231 178.41 266.352C178.397 265.59 178.335 264.828 178.224 264.074C178.186 263.772 178.147 263.458 178.104 263.148C180.193 262.618 181.55 262.127 181.55 262.127L181.309 233.848C183.083 230.402 183.411 222.842 183.402 217.479C183.402 214.033 183.247 211.483 183.247 211.483L185.672 207.524C185.672 207.524 186.232 202.786 185.345 201.748C184.953 201.278 185.129 200.792 185.452 200.391C185.62 200.258 185.797 200.137 185.982 200.029C185.982 200.029 185.956 199.99 185.926 199.934C186.096 199.793 186.276 199.665 186.465 199.551C186.465 199.551 185.603 198.216 186.374 197.651C187.098 198.142 187.744 198.513 188.235 198.814C188.201 199.129 188.166 199.31 188.166 199.31L188.373 198.879C188.847 199.146 189.135 199.31 189.135 199.31C189.135 199.31 192.935 191.741 192.853 190.626C192.771 189.51 195.437 184.811 195.437 184.811C195.437 184.811 195.76 182.342 197.216 181.309C198.672 180.275 198.345 172.784 198.345 172.784C198.345 172.784 198.75 168.881 199.719 167.288C200.688 165.694 198.836 163.544 198.836 163.544ZM126.142 160.223L126.215 162.028C125.785 161.335 125.474 160.835 125.474 160.835L126.142 160.223Z" fill="url(#paint0_linear_391_6988)"/>
<path d="M189.342 196.04L188.412 200.003C188.412 200.003 180.96 196.2 179.616 191.367C178.272 186.534 181.864 184.699 181.864 184.699L188.808 187.641L189.342 196.04Z" fill="white"/>
<path opacity="0.1" d="M189.342 196.04L188.412 200.003C188.412 200.003 180.96 196.2 179.616 191.367C178.272 186.534 181.864 184.699 181.864 184.699L188.808 187.641L189.342 196.04Z" fill="black"/>
<path d="M147.52 330.914C147.52 330.914 140.628 333.446 135.89 333.765C133.374 333.933 132.052 332.391 131.371 330.905C131 330.079 130.76 329.199 130.661 328.299L131.277 321.471L131.604 317.836L141.671 315.221L143.096 319.58L143.23 319.912C143.803 321.368 146.099 327.291 146.03 328.527C146.027 328.844 146.088 329.158 146.21 329.45C146.331 329.742 146.51 330.007 146.736 330.229C146.968 330.489 147.231 330.72 147.52 330.914Z" fill="white"/>
<path d="M194.597 327.442C194.614 327.649 194.594 327.858 194.537 328.058C194.537 328.058 179.797 330.517 176.781 328.058C175.931 327.339 174.94 326.806 173.872 326.493C172.804 326.18 171.682 326.094 170.578 326.24C170.578 326.24 164.875 326.395 163.923 324.517C163.527 323.729 163.63 322.2 163.876 320.692C164.126 319.279 164.46 317.883 164.875 316.509L165.104 316.328L166.46 315.239L182.347 314.769H182.467C182.39 318.017 187.86 321.743 187.86 321.743C193.671 323.897 194.528 326.33 194.597 327.442Z" fill="white"/>
<path opacity="0.1" d="M194.597 327.442C194.612 327.649 194.59 327.858 194.533 328.058C194.533 328.058 179.796 330.517 176.781 328.058C175.932 327.34 174.941 326.807 173.874 326.494C172.807 326.181 171.685 326.095 170.583 326.24C170.583 326.24 164.875 326.395 163.927 324.517C163.531 323.724 163.63 322.2 163.876 320.692C166.073 320.912 169.54 321.459 170.901 322.764C172.96 324.75 176.45 326.731 178.59 326.886C180.266 326.994 190.29 327.313 194.597 327.442Z" fill="black"/>
<path opacity="0.1" d="M147.52 330.913C147.52 330.913 140.628 333.446 135.89 333.765C133.374 333.933 132.052 332.391 131.376 330.9C133.129 331.491 135.563 332.111 136.842 331.542C138.358 330.87 143.734 330.435 146.749 330.25C146.979 330.501 147.238 330.724 147.52 330.913Z" fill="black"/>
<path d="M157.746 126.801C152.06 124.591 144.746 117.29 146.573 113.878C146.978 113.017 147.219 112.088 147.283 111.139C147.401 109.85 147.418 108.553 147.335 107.262C147.207 105.146 146.952 103.041 146.573 100.956C146.573 100.956 164.324 101.356 163.29 103.971C162.989 104.738 162.941 106.069 163.023 107.559C163.105 109.049 163.32 110.734 163.544 112.159C163.854 114.115 164.165 115.606 164.165 115.606C164.165 115.606 163.079 117.126 162.442 117.208C161.804 117.29 165.905 129.95 157.746 126.801Z" fill="#CF6F80"/>
<path opacity="0.1" d="M143.217 319.912L143.084 320.059C137.777 313.64 131.358 321.639 131.358 321.639L131.264 321.471L131.591 317.836L141.658 315.221L143.084 319.58L143.217 319.912Z" fill="black"/>
<path opacity="0.1" d="M182.472 315.221C182.472 315.221 178.595 315.139 176.527 316.966C174.46 318.792 164.466 317.362 164.897 316.966C165.024 316.769 165.101 316.544 165.121 316.311L166.478 315.221L182.364 314.751C182.424 315.04 182.472 315.221 182.472 315.221Z" fill="black"/>
<path d="M149.82 264.819C149.532 265.533 149.312 266.273 149.166 267.029C148.806 269.099 148.707 271.206 148.868 273.3C149.028 276.316 148.868 296.522 148.868 296.522C148.868 296.522 145.461 301.911 143.562 303.811C141.662 305.71 147.438 309.122 147.438 309.122C148.3 314.033 143.079 319.581 143.079 319.581C137.772 313.162 131.354 321.166 131.354 321.166C131.354 321.166 127.865 315.135 126.995 312.981C126.125 310.828 130.402 309.337 131.905 308.463C133.409 307.588 131.832 302.432 131.832 302.432C131.832 302.432 130.561 297.914 129.054 293.791C127.546 289.669 130.717 269.148 130.717 269.148C130.717 269.148 130.88 265.504 131.272 264.233C131.47 263.316 131.509 262.372 131.388 261.442C131.363 261.127 131.332 260.865 131.311 260.688C131.289 260.511 131.272 260.43 131.272 260.43L131.332 260.326L133.486 256.312C133.486 256.312 150.854 262.29 149.82 264.819Z" fill="#6C63FF"/>
<path d="M182.472 314.747C182.472 314.747 178.595 314.665 176.527 316.47C174.46 318.275 164.466 316.867 164.897 316.47C165.328 316.074 165.293 313.14 165.293 313.14C159.431 305.137 164.432 301.889 164.432 301.889C164.432 301.889 161.813 289.29 161.339 284.616C161.007 281.351 160.598 272.576 160.378 267.567C160.284 265.413 160.228 263.931 160.228 263.931L165.018 262.966L165.634 262.841L177.186 260.524C177.186 260.524 177.505 262.678 177.72 264.439C177.828 265.192 177.888 265.95 177.901 266.71C177.824 267.571 177.901 270.268 177.901 270.268L178.293 278.353C178.037 279.201 177.905 280.082 177.901 280.968C177.979 281.997 179.482 296.737 179.482 296.737C179.482 296.737 182.097 305.533 181.205 306.167C180.314 306.8 182.472 314.747 182.472 314.747Z" fill="#6C63FF"/>
<path opacity="0.1" d="M163.29 103.971C162.989 104.738 162.941 106.069 163.023 107.559C160.645 108.991 157.912 109.723 155.137 109.671C152.362 109.619 149.658 108.786 147.335 107.266C147.207 105.149 146.952 103.042 146.573 100.956C146.573 100.956 164.324 101.348 163.29 103.971Z" fill="black"/>
<path d="M170.152 94.4509C170.155 96.0031 169.911 97.5459 169.428 99.0212C168.349 102.327 166.136 105.144 163.181 106.976C160.225 108.807 156.717 109.535 153.277 109.031C149.836 108.526 146.685 106.821 144.38 104.218C142.075 101.615 140.764 98.2802 140.68 94.8041C140.68 94.6835 140.68 94.5715 140.68 94.4509C140.646 92.4942 141.003 90.5505 141.729 88.733C142.454 86.9156 143.535 85.2609 144.906 83.8653C146.278 82.4698 147.914 81.3614 149.719 80.6048C151.524 79.8482 153.461 79.4585 155.418 79.4585C157.375 79.4585 159.312 79.8482 161.117 80.6048C162.922 81.3614 164.558 82.4698 165.93 83.8653C167.302 85.2609 168.382 86.9156 169.108 88.733C169.833 90.5505 170.19 92.4942 170.156 94.4509H170.152Z" fill="#CF6F80"/>
<path opacity="0.1" d="M157.746 126.8C152.06 124.591 144.746 117.289 146.573 113.878C146.978 113.017 147.219 112.088 147.283 111.138L155.067 117.535L159.883 121.485L163.544 112.163C163.854 114.119 164.165 115.609 164.165 115.609C164.165 115.609 163.079 117.13 162.442 117.212C161.804 117.294 165.905 129.949 157.746 126.8Z" fill="black"/>
<path d="M177.876 155.071L171.375 264.267L162.898 264.823L140.947 201.506L144.548 126.335L145.306 110.454L155.067 118.47L159.887 122.42L163.656 112.827L170.665 118.935L177.876 155.071Z" fill="#6C63FF"/>
<path opacity="0.1" d="M149.821 264.819C149.532 265.532 149.313 266.272 149.166 267.028C142.997 266.076 137.007 264.204 131.393 261.476L131.277 261.416L131.315 260.722L131.337 260.36L133.491 256.346C133.491 256.346 150.854 262.29 149.821 264.819Z" fill="black"/>
<path opacity="0.1" d="M165.117 267.046C163.54 267.314 161.949 267.495 160.352 267.588C160.258 265.434 160.202 263.953 160.202 263.953L164.992 262.988L165.117 267.046Z" fill="black"/>
<path opacity="0.1" d="M177.695 264.461C174.632 265.258 169.902 266.154 165.668 265.594L165.608 262.863L177.16 260.545C177.16 260.545 177.479 262.678 177.695 264.461Z" fill="black"/>
<path opacity="0.1" d="M165.59 266.094C147.929 269.109 131.755 260.464 131.755 260.464L131.91 257.535C131.91 257.535 132.31 224.328 131.199 221.782C130.088 219.237 129.222 206.327 129.851 204.345C130.48 202.364 127.555 172.651 127.555 172.651L127.081 160.589L109.739 153.564L117.492 137.402C118.54 135.136 119.44 132.805 120.189 130.424C121.537 126.228 127.796 122.106 127.796 122.106C127.796 122.106 134.214 117.988 136.751 118.143C139.288 118.298 142.614 114.499 142.614 114.499C145.069 108.24 147.292 111.074 147.292 111.074C147.292 111.372 147.292 111.074 147.171 112C146.31 118.871 161.102 140.581 161.313 140.964L162.721 175.278L164.147 218.702L165.59 266.094Z" fill="black"/>
<path d="M165.117 266.094C147.456 269.109 131.277 260.464 131.277 260.464L131.436 257.535C131.436 257.535 131.837 224.328 130.721 221.782C129.605 219.236 128.744 206.327 129.377 204.345C130.01 202.364 127.081 172.65 127.081 172.65L126.603 160.589L109.252 153.538L117.006 137.376C118.051 135.109 118.951 132.778 119.702 130.398C121.046 126.202 127.309 122.08 127.309 122.08C127.309 122.08 133.728 117.962 136.26 118.117C138.793 118.272 142.123 114.473 142.123 114.473C144.583 108.214 147.292 111.048 147.292 111.048C147.292 111.346 147.034 111.479 147.171 111.975C149.067 118.638 160.628 140.555 160.839 140.938L162.265 175.252L163.691 218.676L165.117 266.094Z" fill="white"/>
<path opacity="0.1" d="M160.356 141.916C158.457 141.123 148.394 129.635 148.394 129.635V127.02C148.028 126.159 145.853 126.684 144.087 127.287L144.845 111.405L145.707 112.12C147.593 118.78 160.137 141.532 160.356 141.916Z" fill="black"/>
<path d="M160.835 140.964C158.931 140.171 148.869 128.683 148.869 128.683V126.068C148.502 125.207 146.327 125.732 144.561 126.336L145.323 110.454L146.185 111.169C148.076 117.828 160.624 140.585 160.835 140.964Z" fill="white"/>
<path opacity="0.1" d="M131.755 198.259C131.992 198.259 144.035 196.993 144.035 196.993C144.035 196.993 151.328 211.332 150.85 214.822C150.372 218.311 149.506 221.399 146.573 220.852C143.639 220.305 130.785 221.283 130.785 221.283L131.755 198.259Z" fill="black"/>
<path d="M131.276 197.306C131.513 197.306 143.557 196.04 143.557 196.04C143.557 196.04 150.845 210.384 150.372 213.869C149.898 217.354 149.023 220.447 146.094 219.899C143.165 219.352 130.307 220.33 130.307 220.33L131.276 197.306Z" fill="white"/>
<path d="M140.352 190.574C140.352 190.574 151.405 196.514 151.642 198.327C151.879 200.141 146.017 197.535 144.75 197.22C143.917 197.019 143.068 196.887 142.213 196.824L133.766 197.052L140.352 190.574Z" fill="#CF6F80"/>
<path opacity="0.1" d="M157.272 142.657C157.915 142.657 158.435 142.136 158.435 141.494C158.435 140.852 157.915 140.331 157.272 140.331C156.63 140.331 156.109 140.852 156.109 141.494C156.109 142.136 156.63 142.657 157.272 142.657Z" fill="black"/>
<path d="M157.272 142.183C157.915 142.183 158.435 141.662 158.435 141.02C158.435 140.378 157.915 139.857 157.272 139.857C156.63 139.857 156.109 140.378 156.109 141.02C156.109 141.662 156.63 142.183 157.272 142.183Z" fill="#3F3D56"/>
<path opacity="0.1" d="M159.413 193.003C160.056 193.003 160.576 192.483 160.576 191.84C160.576 191.198 160.056 190.677 159.413 190.677C158.771 190.677 158.25 191.198 158.25 191.84C158.25 192.483 158.771 193.003 159.413 193.003Z" fill="black"/>
<path d="M159.413 192.525C160.056 192.525 160.576 192.004 160.576 191.362C160.576 190.719 160.056 190.199 159.413 190.199C158.771 190.199 158.25 190.719 158.25 191.362C158.25 192.004 158.771 192.525 159.413 192.525Z" fill="#3F3D56"/>
<path opacity="0.1" d="M158.431 167.83C159.073 167.83 159.594 167.31 159.594 166.667C159.594 166.025 159.073 165.504 158.431 165.504C157.789 165.504 157.268 166.025 157.268 166.667C157.268 167.31 157.789 167.83 158.431 167.83Z" fill="black"/>
<path d="M158.431 167.356C159.073 167.356 159.594 166.836 159.594 166.193C159.594 165.551 159.073 165.03 158.431 165.03C157.789 165.03 157.268 165.551 157.268 166.193C157.268 166.836 157.789 167.356 158.431 167.356Z" fill="#3F3D56"/>
<path d="M185.241 196.583C185.241 196.583 186.034 197.772 185.241 198.327C184.449 198.883 185.319 200.227 185.319 200.227C185.319 200.227 183.342 201.386 184.212 202.428C185.082 203.471 184.531 208.179 184.531 208.179L182.153 212.116C182.153 212.116 182.295 214.653 182.304 218.082C182.304 223.432 181.989 230.953 180.249 234.382L180.49 262.514C180.49 262.514 172.164 265.555 165.194 264.629L164.16 219.486C164.16 219.486 165.668 193.886 166.224 188.976C166.549 186.426 166.681 183.856 166.62 181.287C166.62 181.287 166.383 173.602 165.586 170.036C165.586 170.036 164.725 154.584 164.638 150.307C164.6 148.261 164.707 142.291 164.828 136.613C164.962 130.406 165.112 124.552 165.112 124.552L163.54 112.112C163.54 112.112 165.112 111.953 165.586 112.586C165.798 112.784 166.029 112.962 166.275 113.116C168.989 114.951 178.578 120.594 178.578 120.594C178.578 120.594 183.885 122.704 185.155 125.728C186.426 128.752 187.309 130.897 187.925 131.759C188.541 132.62 188.877 136.669 188.877 136.669C188.877 136.669 190.703 144.121 192.129 145.384C193.555 146.646 194.597 154.675 194.597 154.675L181.998 164.582C181.998 164.582 180.891 181.063 180.654 181.7C180.417 182.338 185.241 196.583 185.241 196.583Z" fill="white"/>
<path d="M185.72 196.583C185.72 196.583 186.508 197.772 185.72 198.327C184.931 198.883 185.793 200.227 185.793 200.227C185.793 200.227 183.829 201.399 184.69 202.441C185.552 203.484 185.009 208.192 185.009 208.192L182.631 212.129C182.631 212.129 182.773 214.666 182.786 218.095C182.786 223.445 182.472 230.966 180.732 234.394L180.968 262.527C180.968 262.527 172.629 265.568 165.668 264.642L164.639 219.499C164.639 219.499 166.146 193.899 166.702 188.989C167.027 186.439 167.158 183.869 167.094 181.3C167.094 181.3 166.857 173.615 166.064 170.048C166.064 170.048 165.203 154.597 165.112 150.32C165.074 148.274 165.186 142.304 165.302 136.626C165.435 130.419 165.586 124.565 165.586 124.565L163.51 111.957C163.51 111.957 165.586 111.957 166.064 112.599C166.275 112.799 166.506 112.977 166.754 113.129C169.467 114.964 179.06 120.607 179.06 120.607C179.06 120.607 184.363 122.717 185.634 125.741C186.904 128.765 187.787 130.91 188.408 131.772C189.028 132.633 189.355 136.682 189.355 136.682C189.355 136.682 191.182 144.134 192.607 145.396C194.033 146.659 195.063 154.671 195.063 154.671L182.463 164.578C182.463 164.578 181.356 181.059 181.115 181.696C180.874 182.334 185.72 196.583 185.72 196.583Z" fill="white"/>
<path opacity="0.1" d="M170.63 128.222L171.767 131.539L165.78 137.57C165.913 131.367 166.064 125.509 166.064 125.509L163.988 112.9C163.988 112.9 166.064 112.9 166.542 113.542C166.752 113.742 166.983 113.919 167.231 114.068L172.323 128.756L170.63 128.222Z" fill="black"/>
<path d="M170.152 127.271L171.294 130.587L165.306 136.618C165.44 130.411 165.591 124.557 165.591 124.557L163.51 111.949C163.51 111.949 165.591 111.949 166.064 112.591C166.276 112.79 166.507 112.967 166.754 113.12L171.849 127.805L170.152 127.271Z" fill="white"/>
<path opacity="0.1" d="M170.152 94.4509C170.155 96.0031 169.911 97.5459 169.428 99.0212C169.347 99.0339 169.264 99.0301 169.184 99.0101C169.104 98.9901 169.029 98.9543 168.963 98.9048C168.851 95.0281 166.943 91.3882 164.595 88.2911C163.936 87.356 163.137 86.5278 162.226 85.8358C161.305 85.1441 160.16 84.82 159.013 84.9269C157.721 85.1035 156.579 85.9822 155.274 86.0942C153.551 86.2364 152.009 85.0432 150.299 84.9829C149.603 84.9895 148.918 85.1443 148.287 85.437C147.656 85.7296 147.095 86.1534 146.642 86.6801C145.743 87.7429 145.076 88.9809 144.682 90.3156C144.004 92.3395 143.635 94.4537 143.587 96.5874C143.566 97.7935 143.45 99.3054 142.33 99.7448C142.414 98.8578 142.313 97.9629 142.034 97.1169C141.754 96.2709 141.302 95.4921 140.706 94.8299L140.68 94.8041C140.68 94.6835 140.68 94.5715 140.68 94.4509C140.646 92.4942 141.003 90.5505 141.729 88.733C142.454 86.9156 143.535 85.2609 144.906 83.8653C146.278 82.4698 147.914 81.3614 149.719 80.6048C151.524 79.8482 153.461 79.4585 155.418 79.4585C157.375 79.4585 159.312 79.8482 161.117 80.6048C162.922 81.3614 164.558 82.4698 165.93 83.8653C167.302 85.2609 168.382 86.9156 169.108 88.733C169.833 90.5505 170.19 92.4942 170.156 94.4509H170.152Z" fill="black"/>
<path d="M161.52 71.0483C159.281 69.9954 156.735 69.7962 154.36 70.4883C153.167 70.8415 152.043 71.4144 150.833 71.703C148.248 72.3276 145.233 71.6513 143.014 73.1633C141.782 74.0248 141.042 75.386 140.352 76.7084L138.629 79.9907C137.69 81.787 136.743 83.6134 136.351 85.5905C135.959 87.5677 136.196 89.7818 137.449 91.3712C138.362 92.53 139.711 93.2579 140.701 94.3477C141.295 95.0106 141.745 95.789 142.024 96.634C142.302 97.479 142.404 98.3724 142.321 99.2583C143.445 98.8276 143.553 97.3113 143.579 96.1052C143.627 93.9716 143.996 91.8573 144.673 89.8334C145.066 88.4984 145.734 87.2601 146.633 86.1979C147.087 85.6717 147.648 85.2482 148.279 84.9555C148.909 84.6629 149.595 84.5079 150.29 84.5007C152.013 84.561 153.559 85.7499 155.265 85.6078C156.557 85.5001 157.703 84.617 159.004 84.4447C160.151 84.3362 161.297 84.6604 162.217 85.3536C163.128 86.0446 163.926 86.8729 164.582 87.8089C166.934 90.906 168.842 94.5373 168.954 98.4227C169.441 98.7802 170.143 98.315 170.385 97.7636C170.626 97.2123 170.634 96.5661 170.94 96.0406C171.293 95.4332 171.97 95.1102 172.5 94.6536C173.843 93.4949 174.179 91.5435 174.128 89.7731C174.076 88.0027 173.731 86.2065 174.067 84.4663C174.27 83.398 174.727 82.3986 174.976 81.3433C175.226 80.2879 175.256 79.1034 174.666 78.1945C173.805 76.8591 171.991 76.5964 170.41 76.4715C168.614 76.3164 167.007 76.5145 165.862 75.0026C165.324 74.2136 164.718 73.4728 164.052 72.7885C163.824 72.5645 161.52 71.1431 161.52 71.0483Z" fill="#512E4E"/>
<path opacity="0.1" d="M114.701 161.886L110.2 153.564L108.774 166.405C108.774 166.405 109.567 172.108 109.407 172.982C109.248 173.857 112.655 181.696 112.655 181.696C112.655 181.696 123.911 201.744 128.507 202.778L144.035 191.681L139.917 186.452C139.917 186.452 138.492 185.896 138.134 186.452C138.134 186.452 130.488 173.297 129.696 172.345C128.903 171.393 129.058 169.493 129.058 169.493C129.058 169.493 127.869 168.227 128.266 167.038C128.662 165.849 125.97 161.727 125.97 161.727L128.425 159.431L114.701 161.886Z" fill="black"/>
<path d="M110.437 152.616L109.248 153.563L107.822 166.404C107.822 166.404 108.615 172.107 108.455 172.982C108.296 173.856 111.708 181.696 111.708 181.696C111.708 181.696 122.959 201.743 127.555 202.777L143.088 191.681L138.966 186.451C138.966 186.451 137.54 185.896 137.182 186.451C137.182 186.451 129.537 173.296 128.744 172.344C127.951 171.392 128.111 169.493 128.111 169.493C128.111 169.493 126.922 168.226 127.318 167.037C127.714 165.848 125.018 161.726 125.018 161.726L127.473 159.43L110.437 152.616Z" fill="white"/>
<path opacity="0.1" d="M184.212 202.919C185.073 203.966 184.531 208.666 184.531 208.666L182.153 212.603C182.153 212.603 182.295 215.144 182.304 218.569L178.306 219.818C177.945 219.931 177.562 219.955 177.189 219.89C176.816 219.825 176.464 219.671 176.163 219.442C175.862 219.213 175.619 218.916 175.456 218.574C175.293 218.233 175.215 217.857 175.226 217.479L175.915 195.248L185.241 198.814C184.449 199.366 185.319 200.718 185.319 200.718C185.319 200.718 183.342 201.873 184.212 202.919Z" fill="black"/>
<path d="M184.69 202.441C185.551 203.488 185.009 208.192 185.009 208.192L182.631 212.129C182.631 212.129 182.773 214.666 182.786 218.095L178.715 219.366C178.362 219.476 177.987 219.499 177.622 219.435C177.257 219.371 176.913 219.22 176.618 218.996C176.323 218.772 176.085 218.481 175.926 218.146C175.766 217.812 175.689 217.444 175.7 217.074L176.394 194.774L185.724 198.341C184.927 198.892 185.797 200.24 185.797 200.24C185.797 200.24 183.828 201.399 184.69 202.441Z" fill="white"/>
<path d="M187.779 191.845C187.779 191.845 187.145 195.89 185.56 196.127C183.975 196.364 183.264 202.67 181.683 202.446C180.102 202.222 181.149 196.583 181.205 195.489C181.261 194.395 179.482 189.864 180.813 188.834C182.144 187.805 186.357 188.834 186.357 188.834L187.779 191.845Z" fill="#CF6F80"/>
<path opacity="0.1" d="M191.151 160.697L194.141 154.667C194.141 154.667 195.33 159.263 195.33 161.718C195.33 164.173 196.992 164.414 196.992 164.414C196.992 164.414 198.815 166.568 197.854 168.136C196.893 169.704 196.506 173.607 196.506 173.607C196.506 173.607 196.82 181.054 195.394 182.084C193.969 183.113 193.671 185.573 193.671 185.573C193.671 185.573 191.052 190.247 191.134 191.358C191.216 192.469 187.49 199.995 187.49 199.995C187.49 199.995 189.312 190.643 178.694 186.603C178.694 186.603 178.612 183.428 179.405 182.558C180.197 181.688 181.434 181.291 180.658 176.893C179.883 172.495 180.434 167.24 180.434 166.185C180.434 165.13 182.812 158.548 182.812 158.548L191.151 160.697Z" fill="black"/>
<path d="M192.443 153.805L195.054 154.666C195.054 154.666 196.247 159.262 196.247 161.718C196.247 164.173 197.91 164.414 197.91 164.414C197.91 164.414 199.732 166.568 198.771 168.136C197.811 169.704 197.427 173.606 197.427 173.606C197.427 173.606 197.742 181.054 196.316 182.084C194.89 183.113 194.571 185.573 194.571 185.573C194.571 185.573 191.957 190.246 192.039 191.358C192.12 192.469 188.39 199.994 188.39 199.994C188.39 199.994 190.217 190.643 179.594 186.602C179.594 186.602 179.517 183.428 180.309 182.557C181.102 181.687 182.338 181.291 181.563 176.893C180.787 172.495 181.339 167.24 181.339 166.185C181.339 165.129 183.716 158.547 183.716 158.547L192.443 153.805Z" fill="white"/>
<path opacity="0.1" d="M134.787 310.112C134.787 310.112 138.948 307.497 141.679 309.397C144.41 311.297 134.787 310.112 134.787 310.112Z" fill="black"/>
<path opacity="0.1" d="M167.12 302.027C167.12 302.027 170.803 301.553 173.895 304.883C176.988 308.213 167.12 302.027 167.12 302.027Z" fill="black"/>
<g opacity="0.1">
<path d="M172.508 93.7104C171.978 94.167 171.298 94.4944 170.944 95.1017C170.643 95.6229 170.634 96.2648 170.393 96.8247C170.152 97.3847 169.45 97.8413 168.963 97.4881C168.851 93.6113 166.938 89.9714 164.591 86.87C163.935 85.934 163.137 85.1057 162.226 84.4147C161.304 83.7216 160.157 83.3975 159.008 83.5058C157.716 83.6825 156.579 84.5612 155.274 84.6689C153.551 84.8153 152.004 83.6221 150.294 83.5618C149.599 83.5688 148.914 83.7241 148.284 84.0176C147.654 84.311 147.094 84.7358 146.641 85.2633C145.742 86.3239 145.075 87.5608 144.681 88.8946C144.005 90.9185 143.636 93.0327 143.587 95.1663C143.561 96.3681 143.449 97.8672 142.338 98.3151C142.364 98.6334 142.364 98.9532 142.338 99.2714C143.458 98.8407 143.57 97.3244 143.596 96.1183C143.644 93.9847 144.013 91.8704 144.69 89.8465C145.083 88.5115 145.751 87.2732 146.65 86.211C147.103 85.6849 147.664 85.2614 148.293 84.9687C148.923 84.6761 149.608 84.521 150.303 84.5138C152.026 84.5741 153.577 85.763 155.282 85.6208C156.575 85.5131 157.72 84.6301 159.017 84.4578C160.165 84.3494 161.313 84.6736 162.235 85.3667C163.145 86.0577 163.943 86.886 164.599 87.822C166.947 90.9191 168.86 94.5504 168.972 98.4358C169.458 98.7933 170.161 98.3281 170.402 97.7767C170.643 97.2253 170.652 96.5792 170.953 96.0537C171.306 95.4463 171.987 95.1233 172.517 94.6667C173.861 93.5079 174.197 91.5566 174.145 89.7862C174.145 89.7302 174.145 89.6742 174.145 89.6225C174.063 91.156 173.654 92.7197 172.508 93.7104Z" fill="black"/>
<path d="M140.71 93.4044C139.719 92.3146 138.367 91.5866 137.458 90.4322C136.692 89.4102 136.255 88.18 136.204 86.9043C136.069 88.4985 136.514 90.088 137.458 91.3798C138.367 92.5385 139.719 93.2665 140.71 94.3563C141.661 95.4223 142.232 96.7736 142.334 98.1987C142.4 97.3314 142.29 96.4597 142.011 95.6359C141.732 94.812 141.289 94.0531 140.71 93.4044Z" fill="black"/>
<path d="M174.985 80.4003C174.731 81.4556 174.279 82.4593 174.072 83.5232C173.949 84.2342 173.905 84.9563 173.938 85.677C173.953 85.2665 173.997 84.8576 174.072 84.4536C174.279 83.3854 174.731 82.386 174.985 81.3307C175.133 80.7486 175.181 80.1456 175.127 79.5474C175.1 79.8347 175.053 80.1198 174.985 80.4003Z" fill="black"/>
</g>
<path opacity="0.1" d="M57.174 327.627C80.3549 327.627 99.1467 324.609 99.1467 320.886C99.1467 317.163 80.3549 314.145 57.174 314.145C33.9932 314.145 15.2014 317.163 15.2014 320.886C15.2014 324.609 33.9932 327.627 57.174 327.627Z" fill="#6C63FF"/>
<path d="M58.5265 191.746H55.8257V252.556H58.5265V191.746Z" fill="#535461"/>
<path d="M75.498 252.37L75.33 255.109L75.0888 258.986L74.9897 260.597L74.7528 264.474L74.6494 266.085L74.4082 269.962L71.6859 313.929C71.5675 315.82 70.7328 317.596 69.3516 318.894C67.9704 320.192 66.1464 320.915 64.251 320.916H50.0965C48.2015 320.915 46.3781 320.192 44.9976 318.894C43.6171 317.596 42.7833 315.82 42.666 313.929L39.9565 269.932L39.7153 266.055L39.6163 264.444L39.375 260.567L39.276 258.956L39.0347 255.079L38.8624 252.34C38.8325 251.812 38.9106 251.285 39.092 250.789C39.2734 250.293 39.5542 249.839 39.9172 249.455C40.2802 249.072 40.7178 248.766 41.2031 248.558C41.6883 248.349 42.2111 248.242 42.7392 248.243H71.6902C72.2163 248.248 72.7359 248.36 73.217 248.573C73.698 248.786 74.1303 249.096 74.4871 249.482C74.8439 249.869 75.1177 250.325 75.2916 250.821C75.4655 251.318 75.5357 251.845 75.498 252.37Z" fill="#3F3D56"/>
<path d="M75.3301 255.109L75.0889 258.973H39.2588L39.0176 255.109H75.3301Z" fill="#9D9CB5"/>
<path d="M74.9898 260.584L74.7529 264.452H39.5991L39.3579 260.584H74.9898Z" fill="#9D9CB5"/>
<path d="M74.6496 266.068L74.4127 269.932H39.9395L39.6982 266.068H74.6496Z" fill="#9D9CB5"/>
<path d="M34.8954 214.537C50.6222 225.917 57.1869 243.716 57.1869 243.716C57.1869 243.716 38.2337 243.066 22.5026 231.685C6.77149 220.305 0.219727 202.51 0.219727 202.51C0.219727 202.51 19.1643 203.156 34.8954 214.537Z" fill="#6C63FF"/>
<path d="M0.206787 202.51C0.206787 202.51 19.8836 213.43 26.1942 222.471C32.5047 231.513 57.1869 243.716 57.1869 243.716" stroke="#535461" stroke-width="0.861507" stroke-miterlimit="10"/>
<path d="M45.0482 191.612C53.6073 197.802 57.1869 207.489 57.1869 207.489C57.1869 207.489 46.8703 207.136 38.3069 200.946C29.7436 194.756 26.1726 185.064 26.1726 185.064C26.1726 185.064 36.4849 185.418 45.0482 191.612Z" fill="#6C63FF"/>
<path d="M26.1726 185.064C26.1726 185.064 36.8811 191.009 40.3143 195.928C43.7474 200.847 57.1869 207.489 57.1869 207.489" stroke="#535461" stroke-width="0.861507" stroke-miterlimit="10"/>
<path d="M69.6141 206.999C59.78 217.806 57.6995 231.931 57.6995 231.931C57.6995 231.931 71.5654 228.528 81.3909 217.716C91.2164 206.904 93.3056 192.784 93.3056 192.784C93.3056 192.784 79.4482 196.191 69.6141 206.999Z" fill="#6C63FF"/>
<path d="M93.3142 192.788C93.3142 192.788 80.5036 203.867 77.2471 211.5C73.9906 219.133 57.6995 231.931 57.6995 231.931" stroke="#535461" stroke-width="0.861507" stroke-miterlimit="10"/>
<path d="M430.611 203.195C430.611 203.195 423.499 167.813 426.222 163.411C426.222 163.411 426.321 159.318 426.157 154.102C426.157 153.904 426.157 153.706 426.157 153.503C426.636 153.823 427.136 154.11 427.652 154.365C430.16 155.653 433.04 156.025 435.793 155.416L433.639 153.017C433.122 152.444 432.584 151.823 432.472 151.065C432.36 150.307 432.67 149.631 432.937 148.955C434.983 143.785 435.091 137.285 431.15 133.34C427.82 130.023 427.01 125.741 423.396 122.713C420.756 120.495 419.304 117.242 417.934 114.098C416.775 111.44 415.608 108.761 414.945 105.944C414.428 103.743 414.221 101.464 413.51 99.3145C412.8 97.165 411.469 95.0759 409.388 94.1153C408.647 93.775 407.824 93.5811 407.148 93.1289C406.261 92.5301 405.727 91.5566 405.085 90.7037C401.824 86.3962 390.904 88.9333 385.735 90.6822C384.33 91.1226 383.029 91.8436 381.91 92.8015L381.958 92.724C381.996 92.6593 382.044 92.5947 382.087 92.5301C381.521 92.9876 381.032 93.533 380.639 94.1454C379.886 95.3386 379.571 96.73 378.942 98.0222C378.184 99.5514 373.967 103.82 375.781 105.539C375.908 105.654 376.053 105.747 376.211 105.815C376.892 106.098 377.642 106.173 378.365 106.03L378.288 106.215C377.668 107.732 377.351 109.354 377.353 110.992C377.353 118.069 383.19 123.807 390.396 123.807C391.751 123.808 393.098 123.601 394.389 123.191C394.419 123.355 394.445 123.519 394.475 123.682C394.475 123.747 394.497 123.811 394.505 123.876L394.277 124.195C394.266 124.175 394.253 124.156 394.238 124.139L387.476 133.59C386.442 134.318 380.489 138.625 380.153 141.856C379.8 145.392 379.446 149.532 379.446 149.532L379.399 150.419C379.103 150.666 378.758 150.846 378.386 150.946C378.014 151.047 377.625 151.065 377.245 151.001C375.134 150.656 375.134 158.754 375.134 158.754C375.134 158.754 373.73 160.046 372.765 158.926C371.8 157.807 369.25 161.601 369.25 161.601L353.269 162.291L352.903 162.312L352.042 159.646C351.949 159.365 351.749 159.131 351.485 158.997C351.222 158.862 350.915 158.837 350.633 158.926C350.566 158.948 350.502 158.976 350.439 159.008L350.379 159.043L350.267 159.12L350.211 159.172C350.18 159.2 350.151 159.23 350.125 159.262L350.073 159.323L350.047 159.349C349.948 159.486 349.882 159.645 349.855 159.813C349.828 159.98 349.841 160.152 349.892 160.313L350.633 162.601C347.549 163.221 344.396 164.97 346.967 169.786L333.933 167.378L338.15 170.919L359.92 175.411C359.632 175.928 359.821 176.678 360.721 177.733C364.598 182.286 371.663 183.523 374.506 183.841C375.256 185.521 376.194 187.11 377.301 188.58L377.056 193.115C377.056 193.115 369.858 227.688 368.54 229.441C369.205 228.687 369.814 227.885 370.362 227.042C368.273 234.145 365.352 243.867 364.585 245.323C363.353 247.649 362.212 257.061 363.616 257.664C364.047 257.849 365.279 257.759 367.036 257.625V258.405L366.959 287.95C366.959 287.95 367.312 306.072 366.343 307.799C365.374 309.527 365.115 313.149 365.115 313.149C365.115 313.149 361.238 320.295 358.167 323.169C358.146 323.191 358.123 323.211 358.098 323.229L358.003 322.557C358.003 322.557 354.312 327.218 346.145 326.955C346.145 326.955 341.23 330.151 348.518 330.323C355.807 330.496 365.115 330.065 365.115 330.065C365.115 330.065 371.615 320.158 377.06 321.45V328.958H378.727V321.329C379.5 320.82 380.162 320.16 380.672 319.387C381.182 318.615 381.53 317.747 381.695 316.836C381.838 315.898 381.733 314.938 381.392 314.052C381.05 313.166 380.484 312.384 379.748 311.784C379.417 311.485 379.152 311.121 378.969 310.715C378.786 310.308 378.689 309.869 378.684 309.423L378.624 309.475C378.624 309.324 378.585 309.169 378.568 309.01C378.089 305.133 377.491 297.134 379.606 291.215C382.505 283.1 383.383 271.797 381.273 265.068C380.592 262.918 380.032 260.73 379.597 258.517C379.545 258.237 379.498 257.97 379.455 257.72C380.898 257.915 382.326 258.203 383.732 258.581C388.621 259.93 399.317 260.179 408.449 260.106C408.47 260.356 408.496 260.619 408.526 260.882C408.689 262.708 409.03 264.514 409.543 266.275C410.689 269.721 411.214 284.913 411.214 284.913C411.214 284.913 412.692 297.405 411.886 302.488C411.456 305.314 411.025 308.152 410.779 311.004V311.06C410.779 311.06 408.358 317.952 406.588 321.695C406.545 321.79 406.498 321.885 406.455 321.975C405.983 322.018 405.518 322.121 405.072 322.281C405.072 322.281 402.698 327.019 400.334 327.803C397.969 328.587 398.753 331.168 404.107 330.22C409.461 329.272 417.546 328.497 417.546 328.497L417.895 323.664L419.541 321.605L419.11 326.425L420.863 326.08L420.631 320.218L423.323 316.849C423.323 316.849 426.575 313.955 421.742 308.26V308.385C421.69 308.303 421.643 308.217 421.587 308.135V308.109C420.786 306.869 420.148 304.556 421.316 300.451C423.426 293.033 424.654 286.3 424.654 286.3C424.654 286.3 429.366 268.265 423.702 259.731H423.952C423.371 258.531 422.961 257.255 422.733 255.941C422.704 255.786 422.678 255.626 422.655 255.463C426.846 255.221 430.96 254.463 434.316 252.826C434.303 252.809 432.283 210.01 430.611 203.195ZM377.4 173.344V173.43L376.539 173.473L377.4 173.344ZM374.445 173.753C374.304 173.784 374.171 173.848 374.058 173.938C373.687 174.462 373.455 175.071 373.381 175.709L372.037 175.407C372.037 175.407 371.094 175.205 369.737 174.976L369.095 174.33C370.861 174.184 372.696 173.968 374.445 173.753Z" fill="url(#paint1_linear_391_6988)"/>
<path d="M418.912 320.278L418.4 326.382L420.118 326.038L419.86 319.417L418.912 320.278Z" fill="#1D2366"/>
<path d="M379.701 291.297C377.629 297.199 378.214 305.163 378.68 309.031C378.852 310.461 379.011 311.332 379.011 311.332C379.011 311.332 375.914 318.387 375.656 318.654C375.397 318.921 366.541 324.327 366.541 324.327L360.351 327.941C360.351 327.941 354.071 325.189 357.082 324.241C357.697 323.994 358.251 323.617 358.706 323.134C361.721 320.27 365.507 313.149 365.507 313.149C365.507 313.149 365.766 309.535 366.713 307.817C367.661 306.098 367.316 288.036 367.316 288.036L367.39 258.594V254.756L379.171 254.843C379.245 256.145 379.415 257.441 379.679 258.719C380.102 260.925 380.65 263.106 381.32 265.25C383.396 271.965 382.535 283.212 379.701 291.297Z" fill="#FFB0B1"/>
<path opacity="0.1" d="M379.011 311.331C379.011 311.331 375.914 318.387 375.656 318.654C375.397 318.921 366.541 324.327 366.541 324.327L360.351 327.941C360.351 327.941 354.071 325.188 357.082 324.241C357.697 323.994 358.251 323.616 358.706 323.134L358.973 325.016L361.036 324.93L378.697 309.04C378.852 310.461 379.011 311.331 379.011 311.331Z" fill="black"/>
<path d="M378.796 309.44L361.036 325.439L358.973 325.525L358.542 322.51C358.542 322.51 354.932 327.153 346.912 326.895C346.912 326.895 342.096 330.078 349.233 330.25C356.371 330.422 365.486 329.992 365.486 329.992C365.486 329.992 371.852 320.084 377.181 321.377V328.859H378.818V321.308C379.579 320.795 380.228 320.134 380.727 319.365C381.226 318.595 381.564 317.732 381.721 316.828C381.863 315.897 381.762 314.945 381.43 314.064C381.097 313.182 380.543 312.402 379.821 311.797C379.499 311.494 379.242 311.13 379.065 310.724C378.889 310.319 378.797 309.882 378.796 309.44Z" fill="#1D2366"/>
<path d="M420.549 300.498C419.403 304.59 420.028 306.894 420.812 308.131V308.156C421.817 309.683 422.517 311.39 422.871 313.183L422.94 313.571L414.859 325.352L410.474 327.075C410.474 327.075 403.422 324.667 404.71 323.978C405.033 323.81 405.537 322.914 406.115 321.678C407.838 317.952 410.215 311.077 410.215 311.077V311.021C410.465 308.182 410.862 305.352 411.301 302.535C412.089 297.465 410.642 285.021 410.642 285.021C410.642 285.021 410.125 269.888 409.005 266.447C408.499 264.697 408.163 262.902 408.001 261.088C407.769 258.934 407.717 257.16 407.717 257.16C407.717 257.16 412.361 250.698 420.872 257.676C421.553 258.233 422.152 258.883 422.651 259.606C428.531 267.971 423.797 286.399 423.797 286.399C423.797 286.399 422.612 293.102 420.549 300.498Z" fill="#FFB0B1"/>
<path opacity="0.1" d="M422.953 313.571L414.872 325.352L410.487 327.075C410.487 327.075 403.435 324.667 404.723 323.978C405.046 323.81 405.55 322.914 406.127 321.678C409.112 321.652 410.659 324.495 410.659 324.495L414.441 323.892C414.441 323.892 419.429 314.088 420.549 313.489C421.669 312.891 420.721 309.014 420.721 309.014V308.027C420.751 308.062 420.777 308.101 420.812 308.135V308.161C421.817 309.687 422.517 311.395 422.871 313.188L422.953 313.571Z" fill="black"/>
<path d="M410.918 324.749C410.918 324.749 408.764 320.795 404.637 322.255C404.637 322.255 402.315 326.993 399.994 327.76C397.672 328.527 398.447 331.111 403.694 330.168C408.94 329.224 416.849 328.445 416.849 328.445L417.194 323.625L422.526 316.832C422.526 316.832 425.705 313.95 420.976 308.277V309.263C420.976 309.263 421.923 313.14 420.803 313.739C419.683 314.338 414.713 324.146 414.713 324.146L410.918 324.749Z" fill="#1D2366"/>
<path opacity="0.1" d="M379.184 254.833C379.258 256.136 379.428 257.432 379.692 258.71C374.842 257.999 370.34 258.352 367.39 258.585V254.747L379.184 254.833Z" fill="black"/>
<path opacity="0.1" d="M423.129 260.679C423.129 260.679 416.237 261.015 408.018 261.084C407.786 258.93 407.734 257.156 407.734 257.156C407.734 257.156 412.378 250.694 420.889 257.673C421.57 258.229 422.169 258.879 422.668 259.602C422.802 259.97 422.956 260.329 423.129 260.679Z" fill="black"/>
<path d="M423.129 259.904C423.129 259.904 392.942 261.364 383.741 258.784C374.54 256.204 365.421 258.439 364.047 257.84C362.673 257.242 363.789 247.864 364.995 245.542C366.201 243.221 372.817 219.74 372.817 219.74L379.184 186.546L385.891 184.698L386.364 184.565L398.051 181.343L406.614 178.978C406.614 178.978 423.642 245.456 422.182 250.358C421.651 252.235 421.566 254.21 421.932 256.126C422.155 257.434 422.558 258.706 423.129 259.904Z" fill="#1D2366"/>
<path d="M356.991 163.845C356.991 163.845 350.961 170.307 355.527 173.908C360.093 177.509 363.095 174.252 363.095 174.252L356.991 163.845Z" fill="#C7DAF5"/>
<path opacity="0.1" d="M356.991 163.845C356.991 163.845 350.961 170.307 355.527 173.908C360.093 177.509 363.095 174.252 363.095 174.252L356.991 163.845Z" fill="black"/>
<path d="M405.714 121.365C405.714 121.365 405.007 122.036 403.943 123.027C402.427 124.444 400.183 126.516 398.193 128.252C395.436 130.652 393.162 132.413 393.976 130.91C394.79 129.407 394.635 126.788 394.23 124.337C394.2 124.173 394.174 124.009 394.144 123.85C393.808 122.05 393.364 120.272 392.813 118.526C392.813 118.526 397.267 112.771 399.731 110.501C400.648 109.639 401.29 109.286 401.329 109.885C401.372 110.69 401.975 112.469 402.724 114.356C402.746 114.416 402.767 114.472 402.793 114.533C403.293 115.825 403.857 117.152 404.353 118.298C405.111 120.055 405.714 121.365 405.714 121.365Z" fill="#FFB0B1"/>
<path opacity="0.1" d="M402.793 114.533C402.375 116.784 401.359 118.881 399.853 120.606C398.346 122.331 396.404 123.619 394.23 124.337C393.887 122.37 393.414 120.429 392.813 118.526C392.813 118.526 401.2 107.692 401.329 109.885C401.359 110.716 402.014 112.56 402.793 114.533Z" fill="black"/>
<path opacity="0.1" d="M393.395 127.231L394.48 125.702C394.48 125.702 395.199 130.087 397.844 128.153C400.489 126.219 400.618 142.708 400.618 142.708L397.78 185.15L377.267 183.923L377.849 163.415L380.17 153.077L385.912 138.048L389.328 133.081L393.395 127.231Z" fill="black"/>
<path d="M400.618 142.972L398.034 181.347L397.762 185.414L386.326 184.729L385.895 184.703L377.28 184.186L377.861 163.674L380.183 153.335L385.925 138.306L389.341 133.34L393.407 127.469L394.493 125.944C394.493 125.944 395.212 130.329 397.857 128.395L397.913 128.356C400.497 126.719 400.618 142.972 400.618 142.972Z" fill="#1D2366"/>
<path d="M380.472 149.743C380.472 149.743 379.442 151.896 377.375 151.548C375.307 151.199 375.312 159.301 375.312 159.301C375.312 159.301 373.937 160.593 372.99 159.473C372.042 158.353 369.544 162.14 369.544 162.14L353.89 162.829C353.89 162.829 360.855 166.012 359.49 175.644C359.49 175.644 383.138 174.179 383.914 171.944C384.689 169.708 380.472 149.743 380.472 149.743Z" fill="white"/>
<path opacity="0.03" d="M380.472 149.743C380.472 149.743 379.442 151.896 377.375 151.548C375.307 151.199 375.312 159.301 375.312 159.301C375.312 159.301 373.937 160.593 372.99 159.473C372.042 158.353 369.544 162.14 369.544 162.14L353.89 162.829C353.89 162.829 360.855 166.012 359.49 175.644C359.49 175.644 383.138 174.179 383.914 171.944C384.689 169.708 380.472 149.743 380.472 149.743Z" fill="black"/>
<path d="M334.98 167.89L339.107 171.414L373.076 178.551L368.863 174.252L334.98 167.89Z" fill="white"/>
<path d="M393.459 128.589C392.895 129.45 391.28 133.861 389.931 137.712C388.807 140.921 387.868 143.742 387.868 143.742C387.868 143.742 385.675 158.018 384.555 160.598C383.436 163.178 384.043 173.241 384.043 173.241L379.869 198.091C379.869 198.091 377.978 210.906 375.057 218.56C372.176 226.094 368.967 229.626 368.867 229.738C370.16 227.989 377.203 193.555 377.203 193.555L379.529 150.126C379.529 150.126 379.869 146 380.213 142.472C380.558 138.944 387.536 134.128 387.536 134.128L394.265 124.561C394.941 125.466 394.489 127.042 393.459 128.589Z" fill="white"/>
<path d="M375.915 184.401C375.915 184.401 366.007 183.97 361.209 178.207C356.41 172.444 372.301 175.907 372.301 175.907L376.431 176.854L375.915 184.401Z" fill="#FFB0B1"/>
<path opacity="0.1" d="M422.182 250.363C421.651 252.24 421.566 254.215 421.932 256.13C411.124 256.897 399.563 253.977 399.563 253.977C397.409 255.958 391.736 258.879 391.736 258.879L388.643 220.542C386.666 215.373 385.891 188.291 385.891 188.291C385.891 188.291 386.067 186.874 386.321 184.75C386.321 184.699 386.321 184.643 386.343 184.591C387.114 178.659 388.643 167.524 389.393 166.021C390.426 163.953 386.214 158.453 386.214 158.453L388.131 142.106L388.363 140.133C392.404 138.328 395.501 132.564 395.501 132.564L397.878 128.399C400.463 126.741 400.597 142.993 400.597 142.993L398.012 181.369L406.575 179.004C406.575 179.004 423.642 245.461 422.182 250.363Z" fill="black"/>
<path d="M433.274 253.011C421.493 258.861 400.08 253.442 400.08 253.442C397.926 255.424 392.253 258.344 392.253 258.344L389.156 220.007C387.183 214.838 386.408 187.757 386.408 187.757C386.408 187.757 388.897 167.55 389.931 165.487C390.233 164.883 390.086 163.988 389.729 163.023C387.971 158.43 387.325 153.487 387.842 148.597L388.669 141.571L388.897 139.603C392.942 137.793 396.039 132.03 396.039 132.03L398.193 128.257L402.156 121.304L404.034 118.013L404.353 118.302L406.787 120.507C406.787 120.507 407.82 121.369 409.371 122.661C412.744 125.504 418.572 130.509 421.579 133.572C424.224 136.269 425.059 146.757 425.3 154.653C425.46 159.852 425.365 163.927 425.365 163.927C422.699 168.317 429.673 203.557 429.673 203.557C431.297 210.367 433.274 253.011 433.274 253.011Z" fill="white"/>
<path opacity="0.03" d="M410.659 131.944C410.659 131.944 402.574 147.335 403.513 153.184C404.452 159.034 407.123 165.655 405.835 167.201C405.392 167.787 404.82 168.263 404.163 168.591C403.506 168.919 402.782 169.09 402.048 169.092C400.756 169.178 397.31 171.586 397.31 171.845C397.31 172.103 394.127 172.103 391.279 173.309C388.432 174.515 384.228 175.2 384.228 175.2C384.228 175.2 376.044 174.942 375.281 175.717C374.519 176.493 373.735 181.132 375.367 184.832C377 188.532 378.813 191.293 380.183 191.797C381.553 192.301 390.246 189.389 397.297 188.7C404.348 188.011 412.003 182.424 412.003 182.424C412.003 182.424 420.433 179.409 421.91 174.339C423.388 169.269 420.105 141.403 420.105 141.403C420.105 141.403 417.624 128.416 410.659 131.944Z" fill="black"/>
<path opacity="0.03" d="M409.625 130.651C409.625 130.651 401.54 146.046 402.488 151.892C403.435 157.737 406.097 164.362 404.805 165.913C404.364 166.499 403.793 166.975 403.137 167.304C402.48 167.632 401.757 167.803 401.023 167.804C399.731 167.89 396.285 170.298 396.285 170.556C396.285 170.815 393.102 170.815 390.254 172.017C387.407 173.218 383.203 173.908 383.203 173.908C383.203 173.908 375.019 173.649 374.26 174.424C373.502 175.2 372.71 179.843 374.347 183.539C375.983 187.235 377.793 190.001 379.162 190.505C380.532 191.008 389.225 188.097 396.276 187.412C403.328 186.727 410.982 181.131 410.982 181.131C410.982 181.131 419.408 178.116 420.868 173.05C422.328 167.985 419.063 140.111 419.063 140.111C419.063 140.111 416.591 127.128 409.625 130.651Z" fill="black"/>
<path d="M410.405 131.168C410.405 131.168 402.32 146.564 403.267 152.409C404.215 158.254 406.877 164.879 405.589 166.426C405.148 167.014 404.576 167.491 403.919 167.82C403.262 168.149 402.538 168.32 401.803 168.321C400.51 168.407 397.064 170.815 397.064 171.069C397.064 171.323 393.885 171.328 391.034 172.534C388.182 173.74 383.982 174.425 383.982 174.425C383.982 174.425 375.798 174.166 375.036 174.942C374.273 175.717 373.489 180.361 375.122 184.056C376.754 187.752 378.568 190.518 379.938 191.022C381.307 191.526 390 188.614 397.051 187.925C404.103 187.235 411.757 181.648 411.757 181.648C411.757 181.648 420.187 178.633 421.665 173.563C423.142 168.493 419.881 140.628 419.881 140.628C419.881 140.628 417.366 127.662 410.405 131.168Z" fill="white"/>
<path opacity="0.1" d="M410.228 172.461C410.228 172.461 403.767 171.169 406.015 173.323C408.264 175.476 408.251 177.363 411.003 177.277C413.756 177.191 410.228 172.461 410.228 172.461Z" fill="black"/>
<path opacity="0.1" d="M421.148 218.802C421.148 218.802 418.227 220.779 423.814 225.336C429.401 229.894 421.148 218.802 421.148 218.802Z" fill="black"/>
<path opacity="0.1" d="M415.574 235.054C415.574 235.312 414.54 244.53 418.408 246.835C422.276 249.139 415.574 235.054 415.574 235.054Z" fill="black"/>
<path d="M354.157 162.807C351.038 162.915 344.301 163.867 347.795 170.384C350.883 176.152 356.074 172.297 358.994 169.372C358.282 166.645 356.55 164.295 354.157 162.807Z" fill="#FFB0B1"/>
<path d="M359.033 169.321L359.162 169.187L359.033 169.321Z" fill="#FFB0B1"/>
<path opacity="0.1" d="M409.371 122.924C406.063 125.185 403.289 127.093 402.746 127.49C401.264 128.588 398.438 135.036 396.616 138.327C395.165 140.976 390.448 141.657 388.669 141.825L388.897 139.856C392.942 138.047 396.039 132.284 396.039 132.284L404.034 118.267L406.786 120.77C406.786 120.77 407.82 121.631 409.371 122.924Z" fill="black"/>
<path d="M409.371 122.665C406.063 124.927 403.289 126.835 402.746 127.236C401.264 128.33 398.438 134.778 396.616 138.069C395.165 140.718 390.448 141.399 388.669 141.567L388.897 139.598C392.942 137.789 396.039 132.026 396.039 132.026L404.034 118.009L406.786 120.503C406.786 120.503 407.82 121.356 409.371 122.665Z" fill="#DCE7FF"/>
<path d="M403.004 111.69C403.006 114.276 402.222 116.801 400.756 118.931C399.024 121.449 396.447 123.263 393.493 124.044C390.538 124.825 387.401 124.521 384.651 123.187C381.902 121.853 379.721 119.577 378.506 116.773C377.29 113.969 377.121 110.822 378.027 107.903C378.933 104.985 380.856 102.487 383.446 100.865C386.036 99.2426 389.122 98.6023 392.143 99.0604C395.165 99.5185 397.922 101.045 399.915 103.362C401.908 105.679 403.004 108.634 403.004 111.69Z" fill="#FFB0B1"/>
<path opacity="0.1" d="M425.3 154.658C423.551 153.582 422.126 152.051 421.178 150.23C420.459 148.808 419.981 147.167 418.753 146.159C417.646 145.254 416.168 145.035 414.79 144.63C410.258 143.29 406.459 139.155 406.317 134.434C406.248 132.211 406.942 129.993 406.627 127.792C406.448 126.546 405.953 125.367 405.189 124.367C404.809 123.889 404.393 123.441 403.944 123.027C403.341 122.459 402.707 121.907 402.156 121.304C401.809 120.931 401.505 120.519 401.251 120.077C401.047 119.715 400.881 119.332 400.756 118.935C399.895 116.299 400.679 113.172 399.731 110.505L399.679 110.359C399.322 109.411 398.594 108.464 397.581 108.39C396.569 108.317 395.703 109.157 394.738 109.532C392.718 110.316 390.539 108.981 388.854 107.619C387.17 106.258 385.27 104.703 383.13 105.005C381.712 105.207 380.592 106.172 379.287 106.672C378.993 106.786 378.689 106.874 378.378 106.934C379.483 104.18 381.512 101.896 384.118 100.475C386.723 99.0541 389.743 98.5849 392.656 99.1481C395.57 99.7113 398.197 101.272 400.086 103.561C401.974 105.851 403.006 108.726 403.005 111.694C403.006 112.591 402.912 113.484 402.725 114.361C402.746 114.421 402.768 114.477 402.794 114.537C403.293 115.83 403.857 117.156 404.353 118.302L406.787 120.508C406.787 120.508 407.82 121.369 409.371 122.661C412.744 125.504 418.572 130.51 421.579 133.572C424.223 136.277 425.051 146.762 425.3 154.658Z" fill="black"/>
<path d="M379.136 98.802C379.752 97.5485 380.058 96.1443 380.795 94.9554C381.876 93.2324 383.763 92.1297 385.701 91.462C390.762 89.7174 401.458 87.1846 404.654 91.462C405.283 92.3235 405.804 93.2798 406.674 93.8742C407.338 94.3265 408.139 94.5203 408.867 94.8606C410.904 95.8169 412.205 97.9018 412.899 100.03C413.592 102.158 413.799 104.441 414.307 106.633C414.958 109.446 416.099 112.112 417.237 114.761C418.576 117.889 419.998 121.132 422.582 123.342C426.11 126.357 426.89 130.626 430.163 133.934C434.04 137.863 433.915 144.346 431.917 149.493C431.654 150.169 431.357 150.876 431.46 151.595C431.563 152.315 432.098 152.969 432.602 153.542L434.721 155.933C429.707 157.143 424.034 154.524 421.699 149.928C420.98 148.507 420.502 146.87 419.27 145.858C418.167 144.953 416.685 144.738 415.311 144.333C410.78 142.989 406.98 138.849 406.838 134.128C406.769 131.91 407.463 129.691 407.148 127.495C406.973 126.24 406.476 125.053 405.705 124.049C404.521 122.502 402.733 121.464 401.768 119.741C400.136 116.859 401.376 113.116 400.2 110.023C399.838 109.076 399.115 108.128 398.102 108.055C397.09 107.981 396.224 108.821 395.255 109.196C393.239 109.98 391.06 108.649 389.375 107.284C387.691 105.918 385.792 104.367 383.646 104.673C382.229 104.871 381.114 105.836 379.808 106.34C378.843 106.711 376.888 107.042 376.044 106.228C374.26 104.587 378.391 100.336 379.136 98.802Z" fill="#591D4B"/>
<path opacity="0.1" d="M422.897 148.507C422.173 147.085 421.699 145.448 420.467 144.44C419.365 143.536 417.883 143.316 416.504 142.911C411.977 141.572 408.178 137.432 408.031 132.711C407.962 130.493 408.656 128.27 408.346 126.073C408.165 124.827 407.669 123.648 406.903 122.649C405.714 121.102 403.926 120.064 402.966 118.341C401.333 115.464 402.574 111.72 401.394 108.623C401.036 107.68 400.308 106.732 399.3 106.655C398.292 106.577 397.418 107.426 396.453 107.8C394.437 108.584 392.253 107.249 390.573 105.888C388.893 104.527 386.985 102.972 384.844 103.273C383.427 103.476 382.307 104.441 381.006 104.94C380.041 105.311 378.081 105.647 377.237 104.833C375.462 103.11 379.593 98.8666 380.334 97.3417C380.95 96.0839 381.256 94.684 381.997 93.4951C382.035 93.4305 382.079 93.3659 382.122 93.3013C381.567 93.7604 381.089 94.3041 380.704 94.9123C379.968 96.1012 379.662 97.4968 379.046 98.7589C378.301 100.284 374.17 104.54 375.949 106.25C376.81 107.068 378.749 106.732 379.714 106.362C381.006 105.858 382.134 104.893 383.552 104.695C385.705 104.389 387.601 105.944 389.281 107.305C390.961 108.666 393.157 110.002 395.165 109.218C396.13 108.843 396.974 107.999 398.008 108.076C399.042 108.154 399.731 109.097 400.106 110.045C401.282 113.137 400.041 116.881 401.673 119.762C402.638 121.455 404.426 122.515 405.611 124.07C406.381 125.075 406.879 126.262 407.054 127.516C407.368 129.713 406.675 131.931 406.743 134.15C406.886 138.888 410.685 143.01 415.216 144.354C416.582 144.759 418.072 144.974 419.175 145.879C420.411 146.891 420.898 148.528 421.604 149.95C423.939 154.546 429.612 157.165 434.626 155.954L433.627 154.826C429.28 154.89 424.882 152.418 422.897 148.507Z" fill="black"/>
<path opacity="0.1" d="M393.2 128.847C392.636 129.709 391.021 134.119 389.673 137.97C388.41 137.479 387.265 134.348 387.265 134.348L393.993 124.776C394.682 125.724 394.23 127.296 393.2 128.847Z" fill="black"/>
<path d="M393.459 128.589C392.895 129.45 391.279 133.861 389.931 137.712C388.669 137.225 387.523 134.09 387.523 134.09L394.252 124.522C394.941 125.466 394.488 127.042 393.459 128.589Z" fill="#DCE7FF"/>
<path d="M354.338 172.594L350.608 160.83C350.563 160.693 350.547 160.547 350.559 160.403C350.571 160.259 350.611 160.119 350.678 159.99C350.744 159.862 350.836 159.748 350.946 159.655C351.057 159.562 351.185 159.491 351.323 159.448C351.6 159.361 351.901 159.387 352.159 159.521C352.417 159.655 352.612 159.886 352.701 160.163L356.431 171.914L356.061 174.373L354.338 172.594Z" fill="#BE8B87"/>
<path opacity="0.1" d="M350.961 159.797C351.239 159.709 351.541 159.735 351.8 159.869C352.059 160.003 352.255 160.234 352.344 160.512L356.074 172.263L355.794 174.106L356.065 174.391L356.436 171.931L352.684 160.18C352.595 159.903 352.4 159.673 352.142 159.539C351.884 159.405 351.583 159.378 351.306 159.465C351.072 159.541 350.87 159.693 350.733 159.896C350.806 159.857 350.882 159.823 350.961 159.797Z" fill="white"/>
<path d="M354.338 172.594L356.431 171.931L356.126 173.947L356.061 174.39L355.449 173.753L354.338 172.594Z" fill="#EFC8C4"/>
<path d="M355.449 173.753C355.486 173.707 355.531 173.669 355.583 173.641C355.613 173.622 355.648 173.612 355.684 173.612C355.72 173.612 355.755 173.622 355.785 173.641C355.815 173.677 355.839 173.716 355.858 173.757C355.887 173.805 355.926 173.845 355.972 173.876C356.018 173.907 356.071 173.926 356.126 173.934L356.061 174.365L355.449 173.753Z" fill="#727A9C"/>
<path d="M350.586 165.008C350.586 165.008 358.068 164.965 356.307 168.149C354.545 171.332 351.792 171.715 351.792 171.715L350.586 165.008Z" fill="#FFB0B1"/>
<path d="M304.052 22.1494H303.729C290.875 22.1494 279.507 28.951 272.968 38.9876C266.43 28.951 255.062 22.1494 242.208 22.1494H241.885C232.239 22.2413 223.019 26.1365 216.228 32.9884C209.437 39.8402 205.625 49.0952 205.62 58.7419C205.62 70.7212 210.867 87.7187 221.097 101.705C240.589 128.356 272.968 151.673 272.968 151.673C272.968 151.673 305.348 128.36 324.835 101.705C335.07 87.7187 340.312 70.7212 340.312 58.7419C340.307 49.0959 336.496 39.8416 329.706 32.9899C322.916 26.1381 313.697 22.2425 304.052 22.1494ZM299.43 103.756C297.966 103.75 296.538 103.302 295.333 102.47C294.129 101.638 293.204 100.462 292.68 99.0949H284.995C284.489 99.0918 283.997 98.9307 283.587 98.6341C283.176 98.3376 282.869 97.9204 282.708 97.4408L280.347 90.3291L272.878 116.428C272.733 116.931 272.428 117.373 272.01 117.687C271.592 118.002 271.084 118.172 270.561 118.173H270.41C269.864 118.147 269.344 117.934 268.936 117.57C268.528 117.206 268.258 116.714 268.17 116.174L260.472 69.8769L254.847 97.2728C254.718 97.7933 254.418 98.2555 253.996 98.5858C253.573 98.916 253.052 99.0953 252.516 99.0949H241.691C241.367 99.1087 241.043 99.0566 240.739 98.9419C240.435 98.8272 240.158 98.6522 239.923 98.4274C239.689 98.2027 239.502 97.9328 239.375 97.6341C239.247 97.3354 239.182 97.014 239.182 96.6892C239.182 96.3644 239.247 96.043 239.375 95.7442C239.502 95.4455 239.689 95.1756 239.923 94.9509C240.158 94.7261 240.435 94.5511 240.739 94.4364C241.043 94.3217 241.367 94.2697 241.691 94.2834H250.621L258.59 57.4497C258.721 56.9051 259.037 56.4229 259.484 56.0854C259.931 55.748 260.481 55.5763 261.041 55.5997C261.6 55.6231 262.134 55.8401 262.551 56.2137C262.969 56.5873 263.243 57.0942 263.328 57.6478L271.189 104.876L277.883 81.5245C278.023 81.0327 278.317 80.5992 278.723 80.2886C279.129 79.9781 279.625 79.8072 280.136 79.8015H280.184C280.69 79.8016 281.183 79.9616 281.593 80.2587C282.003 80.5557 282.309 80.9746 282.467 81.4556L286.735 94.2963H292.585C293.001 93.0328 293.758 91.9087 294.772 91.0481C295.787 90.1876 297.019 89.6241 298.334 89.4197C299.648 89.2154 300.993 89.3782 302.221 89.8902C303.449 90.4022 304.511 91.2435 305.291 92.3211C306.071 93.3988 306.538 94.671 306.64 95.9973C306.743 97.3236 306.477 98.6524 305.872 99.8371C305.267 101.022 304.346 102.016 303.212 102.711C302.077 103.405 300.773 103.773 299.443 103.773L299.43 103.756Z" fill="#0000FF" fill-opacity="0.9"/>
</g>
<defs>
<linearGradient id="paint0_linear_391_6988" x1="153.491" y1="333.778" x2="153.491" y2="68.7182" gradientUnits="userSpaceOnUse">
<stop stop-color="#808080" stop-opacity="0.25"/>
<stop offset="0.54" stop-color="#808080" stop-opacity="0.12"/>
<stop offset="1" stop-color="#808080" stop-opacity="0.1"/>
</linearGradient>
<linearGradient id="paint1_linear_391_6988" x1="384.848" y1="330.427" x2="384.848" y2="88.3432" gradientUnits="userSpaceOnUse">
<stop stop-color="#808080" stop-opacity="0.25"/>
<stop offset="0.54" stop-color="#808080" stop-opacity="0.12"/>
<stop offset="1" stop-color="#808080" stop-opacity="0.1"/>
</linearGradient>
<clipPath id="clip0_391_6988">
<rect width="476" height="337.168" fill="white"/>
</clipPath>
</defs>
</svg>
