<svg width="68" height="61" viewBox="0 0 68 61" fill="none" xmlns="http://www.w3.org/2000/svg">
<path d="M0 6C0 4.4087 0.632141 2.88258 1.75736 1.75736C2.88258 0.63214 4.4087 0 6 0H58C59.5913 0 61.1174 0.63214 62.2426 1.75736C63.3679 2.88258 64 4.4087 64 6V19.624C62.7393 19.0793 61.3722 18.825 60 18.88V6C60 5.46957 59.7893 4.96086 59.4142 4.58579C59.0391 4.21071 58.5304 4 58 4H6C5.46957 4 4.96086 4.21071 4.58579 4.58579C4.21071 4.96086 4 5.46957 4 6V42C4 42.5304 4.21071 43.0391 4.58579 43.4142C4.96086 43.7893 5.46957 44 6 44H16V38C16 36.4087 16.6321 34.8826 17.7574 33.7574C18.8826 32.6321 20.4087 32 22 32H42C43.5913 32 45.1174 32.6321 46.2426 33.7574C47.3679 34.8826 48 36.4087 48 38V42.296C46.356 42.348 45.048 42.856 44 43.564V38C44 37.4696 43.7893 36.9609 43.4142 36.5858C43.0391 36.2107 42.5304 36 42 36H22C21.4696 36 20.9609 36.2107 20.5858 36.5858C20.2107 36.9609 20 37.4696 20 38V44H43.412C42.152 45.024 41.312 46.304 40.692 47.24C40.5282 47.4979 40.3575 47.7513 40.18 48H6C4.4087 48 2.88258 47.3679 1.75736 46.2426C0.632141 45.1174 0 43.5913 0 42V6ZM32 28C34.6522 28 37.1957 26.9464 39.0711 25.0711C40.9464 23.1957 42 20.6522 42 18C42 15.3478 40.9464 12.8043 39.0711 10.9289C37.1957 9.05357 34.6522 8 32 8C29.3478 8 26.8043 9.05357 24.9289 10.9289C23.0536 12.8043 22 15.3478 22 18C22 20.6522 23.0536 23.1957 24.9289 25.0711C26.8043 26.9464 29.3478 28 32 28ZM32 24C30.4087 24 28.8826 23.3679 27.7574 22.2426C26.6321 21.1174 26 19.5913 26 18C26 16.4087 26.6321 14.8826 27.7574 13.7574C28.8826 12.6321 30.4087 12 32 12C33.5913 12 35.1174 12.6321 36.2426 13.7574C37.3679 14.8826 38 16.4087 38 18C38 19.5913 37.3679 21.1174 36.2426 22.2426C35.1174 23.3679 33.5913 24 32 24ZM55.34 29.06L56.936 25.296C57.684 23.528 59.476 22.568 61.236 22.936L61.612 23.032L63.612 23.672C65.596 24.308 67.112 26.004 67.604 28.136C68.768 33.204 67.372 39.376 63.408 46.648C59.452 53.912 55.12 58.276 50.404 59.748C48.572 60.32 46.604 59.908 45.124 58.664L44.736 58.304L43.216 56.78C42.5774 56.1226 42.1649 55.2788 42.0383 54.3711C41.9117 53.4634 42.0777 52.539 42.512 51.732L42.736 51.364L45.024 48.004C45.44 47.3697 46.0367 46.8748 46.7369 46.5831C47.4371 46.2915 48.2087 46.2165 48.952 46.368L49.352 46.476L53.58 47.888C55.264 46.608 56.672 45.008 57.796 43.068C58.76 41.408 59.396 39.728 59.688 38.024L59.808 37.168L56.292 33.828C55.7245 33.275 55.3211 32.5758 55.1262 31.8077C54.9314 31.0396 54.9528 30.2327 55.188 29.476L55.336 29.06H55.34Z" fill="#0000FF"/>
</svg>
