<svg width="45" height="46" viewBox="0 0 45 46" fill="none" xmlns="http://www.w3.org/2000/svg">
<path fill-rule="evenodd" clip-rule="evenodd" d="M15 5.4375H27.1875L35.625 13.875V35.4375C35.625 35.9348 35.4275 36.4117 35.0758 36.7633C34.7242 37.115 34.2473 37.3125 33.75 37.3125H15C14.5027 37.3125 14.0258 37.115 13.6742 36.7633C13.3225 36.4117 13.125 35.9348 13.125 35.4375V7.3125C13.125 6.81522 13.3225 6.33831 13.6742 5.98667C14.0258 5.63504 14.5027 5.4375 15 5.4375ZM32.8125 13.875L27.1875 8.25V12.9375C27.1875 13.1861 27.2863 13.4246 27.4621 13.6004C27.6379 13.7762 27.8764 13.875 28.125 13.875H32.8125ZM30.6628 20.7122C30.8386 20.888 30.9373 21.1264 30.9373 21.375C30.9373 21.6236 30.8386 21.862 30.6628 22.0378L22.5 30.2006L18.0872 25.7878C17.9164 25.611 17.8219 25.3742 17.8241 25.1284C17.8262 24.8826 17.9248 24.6474 18.0986 24.4736C18.2724 24.2998 18.5076 24.2012 18.7534 24.1991C18.9992 24.1969 19.236 24.2914 19.4128 24.4622L22.5 27.5494L29.3372 20.7122C29.513 20.5364 29.7514 20.4377 30 20.4377C30.2486 20.4377 30.487 20.5364 30.6628 20.7122Z" fill="#0000FF"/>
<path d="M11.25 11.0625H9.375V36.375C9.375 37.6182 9.86886 38.8105 10.7479 39.6896C11.627 40.5686 12.8193 41.0625 14.0625 41.0625H31.875V39.1875H14.0625C13.3166 39.1875 12.6012 38.8912 12.0738 38.3637C11.5463 37.8363 11.25 37.1209 11.25 36.375V11.0625Z" fill="#0000FF"/>
</svg>
