<svg width="44" height="44" viewBox="0 0 44 44" fill="none" xmlns="http://www.w3.org/2000/svg">
<g clip-path="url(#clip0_88_922)">
<path d="M30.933 15.2417C30.7421 14.7473 30.4497 14.2983 30.0748 13.9238C29.6998 13.5492 29.2505 13.2573 28.7559 13.0669C28.0748 12.8147 27.3555 12.6813 26.6292 12.6728C25.4215 12.6178 25.0595 12.604 22.0001 12.604C18.9407 12.604 18.5786 12.6178 17.3709 12.6728C16.6439 12.6811 15.9238 12.8144 15.242 13.0669C14.7475 13.2578 14.2986 13.5502 13.924 13.9251C13.5494 14.3001 13.2575 14.7494 13.0672 15.244C12.8149 15.9251 12.6816 16.6444 12.673 17.3707C12.618 18.5784 12.6042 18.9405 12.6042 21.9998C12.6042 25.0592 12.618 25.4213 12.673 26.629C12.6813 27.356 12.8147 28.0762 13.0672 28.758C13.2581 29.2524 13.5504 29.7014 13.9254 30.0759C14.3003 30.4505 14.7496 30.7424 15.2442 30.9328C15.9253 31.185 16.6447 31.3183 17.3709 31.3269C18.5786 31.3819 18.9407 31.3957 22.0001 31.3957C25.0595 31.3957 25.4215 31.3819 26.6292 31.3269C27.3563 31.3186 28.0764 31.1853 28.7582 30.9328C29.2526 30.7418 29.7016 30.4495 30.0762 30.0745C30.4507 29.6996 30.7426 29.2503 30.933 28.7557C31.1852 28.0746 31.3186 27.3552 31.3272 26.629C31.3822 25.4213 31.3959 25.0592 31.3959 21.9998C31.3959 18.9405 31.3822 18.5784 31.3272 17.3707C31.3188 16.6437 31.1855 15.9235 30.933 15.2417ZM22.0001 27.8848C20.8361 27.8848 19.6983 27.5397 18.7305 26.893C17.7628 26.2464 17.0085 25.3273 16.563 24.2519C16.1176 23.1766 16.0011 21.9933 16.2282 20.8517C16.4552 19.7102 17.0157 18.6615 17.8388 17.8385C18.6618 17.0155 19.7104 16.455 20.852 16.2279C21.9936 16.0008 23.1768 16.1174 24.2522 16.5628C25.3275 17.0082 26.2466 17.7625 26.8933 18.7303C27.5399 19.6981 27.8851 20.8359 27.8851 21.9998C27.8851 23.5606 27.2651 25.0575 26.1614 26.1612C25.0578 27.2648 23.5609 27.8848 22.0001 27.8848ZM28.1165 17.2584C27.8446 17.2584 27.5787 17.1777 27.3526 17.0266C27.1265 16.8756 26.9503 16.6608 26.8462 16.4096C26.7421 16.1583 26.7149 15.8819 26.768 15.6151C26.821 15.3484 26.952 15.1034 27.1443 14.9111C27.3366 14.7188 27.5816 14.5879 27.8483 14.5348C28.115 14.4817 28.3915 14.509 28.6427 14.613C28.894 14.7171 29.1087 14.8934 29.2598 15.1195C29.4109 15.3456 29.4915 15.6114 29.4915 15.8834C29.4915 16.2481 29.3467 16.5978 29.0888 16.8557C28.8309 17.1135 28.4812 17.2584 28.1165 17.2584Z" fill="#1A1AFF"/>
<path d="M21.9999 25.8201C24.1097 25.8201 25.8201 24.1097 25.8201 21.9999C25.8201 19.8901 24.1097 18.1797 21.9999 18.1797C19.8901 18.1797 18.1797 19.8901 18.1797 21.9999C18.1797 24.1097 19.8901 25.8201 21.9999 25.8201Z" fill="#1A1AFF"/>
<path d="M22 0C17.6488 0 13.3953 1.29028 9.77746 3.70767C6.15958 6.12506 3.33979 9.56099 1.67466 13.581C0.00953221 17.6009 -0.426141 22.0244 0.422734 26.292C1.27161 30.5596 3.3669 34.4796 6.44366 37.5563C9.52042 40.6331 13.4404 42.7284 17.708 43.5773C21.9756 44.4261 26.3991 43.9905 30.419 42.3253C34.439 40.6602 37.875 37.8404 40.2923 34.2225C42.7097 30.6047 44 26.3512 44 22C44 19.1109 43.431 16.2501 42.3254 13.581C41.2198 10.9118 39.5992 8.48654 37.5564 6.44365C35.5135 4.40076 33.0882 2.78025 30.419 1.67465C27.7499 0.569047 24.8891 0 22 0ZM33.3896 26.7254C33.3699 27.6755 33.1894 28.6154 32.8556 29.5052C32.5613 30.2662 32.1113 30.9574 31.5343 31.5343C30.9574 32.1113 30.2662 32.5613 29.5052 32.8556C28.6154 33.1894 27.6755 33.3699 26.7254 33.3896C25.5017 33.4446 25.1121 33.4583 22 33.4583C18.8879 33.4583 18.4983 33.4446 17.2746 33.3896C16.3245 33.3699 15.3846 33.1894 14.4948 32.8556C13.7338 32.5613 13.0427 32.1113 12.4657 31.5343C11.8887 30.9574 11.4387 30.2662 11.1444 29.5052C10.8106 28.6154 10.6301 27.6755 10.6104 26.7254C10.5554 25.5017 10.5417 25.1121 10.5417 22C10.5417 18.8879 10.5554 18.4983 10.6104 17.2746C10.6301 16.3245 10.8106 15.3846 11.1444 14.4948C11.4387 13.7338 11.8887 13.0426 12.4657 12.4657C13.0427 11.8887 13.7338 11.4387 14.4948 11.1444C15.3846 10.8106 16.3245 10.6301 17.2746 10.6104C18.4983 10.5554 18.8879 10.5417 22 10.5417C25.1121 10.5417 25.5017 10.5554 26.7254 10.6104C27.6755 10.6301 28.6154 10.8106 29.5052 11.1444C30.2662 11.4387 30.9574 11.8887 31.5343 12.4657C32.1113 13.0426 32.5613 13.7338 32.8556 14.4948C33.1894 15.3846 33.3699 16.3245 33.3896 17.2746C33.4446 18.4983 33.4583 18.8879 33.4583 22C33.4583 25.1121 33.4446 25.5017 33.3896 26.7254Z" fill="#1A1AFF"/>
</g>
<defs>
<clipPath id="clip0_88_922">
<rect width="44" height="44" fill="white"/>
</clipPath>
</defs>
</svg>
