<svg width="35" height="35" viewBox="0 0 45 45" fill="none" xmlns="http://www.w3.org/2000/svg">
<path d="M37.5 38.4375H7.5C5.4375 38.4375 3.75 36.75 3.75 34.6875V15.0938C3.75 13.875 4.3125 12.75 5.34375 12L22.5 0L39.6562 12C40.6875 12.6562 41.25 13.875 41.25 15.0938V34.6875C41.25 36.75 39.5625 38.4375 37.5 38.4375Z" fill="#78909C"/>
<path d="M11.25 10.3125H33.75V30.9375H11.25V10.3125Z" fill="white"/>
<path d="M37.5 38.4375H7.5C5.4375 38.4375 3.75 36.75 3.75 34.6875V15.9375L22.5 28.125L41.25 15.9375V34.6875C41.25 36.75 39.5625 38.4375 37.5 38.4375Z" fill="#98E0FA"/>
<path d="M20.625 13.125H24.375V24.375H20.625V13.125Z" fill="#0000FF" fill-opacity="0.7"/>
<path d="M16.875 16.875H28.125V20.625H16.875V16.875Z" fill="#0000FF" fill-opacity="0.7"/>
</svg>
