<svg width="20" height="20" viewBox="0 0 25 25" fill="none" xmlns="http://www.w3.org/2000/svg">
<path d="M12.5 21.25L12.1 20.8C11.85 20.55 6 13.65 6 9.5C6 5.9 8.9 3 12.5 3C16.1 3 19 5.9 19 9.5C19 13.65 13.15 20.55 12.9 20.85L12.5 21.25ZM12.5 4C9.45 4 7 6.45 7 9.5C7 12.7 11.2 18.1 12.5 19.7C13.8 18.1 18 12.7 18 9.5C18 6.45 15.55 4 12.5 4Z" fill="#555555" fill-opacity="0.8"/>
<path d="M12.5 12C11.1 12 10 10.9 10 9.5C10 8.1 11.1 7 12.5 7C13.9 7 15 8.1 15 9.5C15 10.9 13.9 12 12.5 12ZM12.5 8C11.65 8 11 8.65 11 9.5C11 10.35 11.65 11 12.5 11C13.35 11 14 10.35 14 9.5C14 8.65 13.35 8 12.5 8Z" fill="#555555" fill-opacity="0.8"/>
</svg>
