<svg width="40" height="41" viewBox="0 0 50 51" fill="none" xmlns="http://www.w3.org/2000/svg">
<mask id="path-1-inside-1_121_1344" fill="white">
<path fill-rule="evenodd" clip-rule="evenodd" d="M50 25.6343C50 34.9906 44.8602 43.1465 37.25 47.4324V44.6625V25.6339H50C50 25.634 50 25.6342 50 25.6343ZM49.7468 22.0625C48.6261 14.2287 43.8738 7.56652 37.25 3.83612V22.0625H49.7468ZM33.625 22.0625V2.16196C30.9365 1.17376 28.0313 0.634277 25 0.634277C12.4056 0.634277 1.98636 9.94732 0.253229 22.0625H33.625ZM0 25.6339C0 25.634 0 25.6342 0 25.6343C0 39.4414 11.1929 50.6343 25 50.6343C28.0313 50.6343 30.9365 50.0948 33.625 49.1066V25.6339H0Z"/>
</mask>
<path fill-rule="evenodd" clip-rule="evenodd" d="M50 25.6343C50 34.9906 44.8602 43.1465 37.25 47.4324V44.6625V25.6339H50C50 25.634 50 25.6342 50 25.6343ZM49.7468 22.0625C48.6261 14.2287 43.8738 7.56652 37.25 3.83612V22.0625H49.7468ZM33.625 22.0625V2.16196C30.9365 1.17376 28.0313 0.634277 25 0.634277C12.4056 0.634277 1.98636 9.94732 0.253229 22.0625H33.625ZM0 25.6339C0 25.634 0 25.6342 0 25.6343C0 39.4414 11.1929 50.6343 25 50.6343C28.0313 50.6343 30.9365 50.0948 33.625 49.1066V25.6339H0Z" fill="#0000FF" fill-opacity="0.9"/>
<path d="M37.25 47.4324H36.25V49.1433L37.7407 48.3038L37.25 47.4324ZM37.25 25.6339V24.6339H36.25V25.6339H37.25ZM50 25.6339H51V24.6339H50V25.6339ZM49.7468 22.0625V23.0625H50.9L50.7367 21.9209L49.7468 22.0625ZM37.25 3.83612L37.7407 2.9648L36.25 2.12526V3.83612H37.25ZM37.25 22.0625H36.25V23.0625H37.25V22.0625ZM33.625 2.16196H34.625V1.46412L33.97 1.22336L33.625 2.16196ZM33.625 22.0625V23.0625H34.625V22.0625H33.625ZM0.253229 22.0625L-0.736693 21.9209L-0.900006 23.0625H0.253229V22.0625ZM0 25.6339V24.6339H-1V25.6339H0ZM33.625 49.1066L33.97 50.0452L34.625 49.8044V49.1066H33.625ZM33.625 25.6339H34.625V24.6339H33.625V25.6339ZM37.7407 48.3038C45.6527 43.8479 51 35.3662 51 25.6343H49C49 34.6151 44.0676 42.4452 36.7593 46.5611L37.7407 48.3038ZM36.25 44.6625V47.4324H38.25V44.6625H36.25ZM36.25 25.6339V44.6625H38.25V25.6339H36.25ZM50 24.6339H37.25V26.6339H50V24.6339ZM51 25.6343C51 25.6392 51 25.6431 50.9999 25.6455C50.9999 25.6476 50.9999 25.6495 50.9999 25.6491C50.9999 25.6491 50.9999 25.6491 50.9999 25.6491C50.9999 25.6491 50.9999 25.6491 50.9999 25.6491C50.9999 25.649 50.9999 25.6489 50.9999 25.6489C50.9999 25.6487 50.9999 25.6485 50.9999 25.6481C50.9999 25.6475 50.9999 25.6465 50.9999 25.6453C51 25.6429 51 25.6389 51 25.6339H49C49 25.629 49 25.625 49.0001 25.6227C49.0001 25.6205 49.0001 25.6187 49.0001 25.6191C49.0001 25.6191 49.0001 25.6191 49.0001 25.6191C49.0001 25.6191 49.0001 25.6191 49.0001 25.6191C49.0001 25.6192 49.0001 25.6192 49.0001 25.6193C49.0001 25.6195 49.0001 25.6197 49.0001 25.62C49.0001 25.6206 49.0001 25.6216 49.0001 25.6229C49 25.6253 49 25.6293 49 25.6343H51ZM50.7367 21.9209C49.5708 13.7707 44.6273 6.84322 37.7407 2.9648L36.7593 4.70744C43.1202 8.28982 47.6815 14.6868 48.7569 22.2041L50.7367 21.9209ZM36.25 3.83612V22.0625H38.25V3.83612H36.25ZM37.25 23.0625H49.7468V21.0625H37.25V23.0625ZM32.625 2.16196V22.0625H34.625V2.16196H32.625ZM25 1.63428C27.9118 1.63428 30.7004 2.15238 33.28 3.10056L33.97 1.22336C31.1726 0.195149 28.1507 -0.365723 25 -0.365723V1.63428ZM1.24315 22.2041C2.90682 10.5745 12.9102 1.63428 25 1.63428V-0.365723C11.901 -0.365723 1.06589 9.32016 -0.736693 21.9209L1.24315 22.2041ZM0.253229 23.0625H33.625V21.0625H0.253229V23.0625ZM1 25.6343C1 25.6343 1 25.6343 1 25.6343C1 25.6343 1 25.6343 1 25.6343V25.6343C1 25.6343 1 25.6343 1 25.6343V25.6343C1 25.6343 1 25.6343 1 25.6343C1 25.6343 1 25.6343 1 25.6343V25.6343C1 25.6343 1 25.6343 1 25.6343V25.6343C1 25.6343 1 25.6343 1 25.6343C1 25.6343 1 25.6343 1 25.6343C1 25.6343 1 25.6343 1 25.6343C1 25.6343 1 25.6343 1 25.6343V25.6342C1 25.6342 1 25.6342 1 25.6342V25.6342C1 25.6342 1 25.6342 1 25.6342C1 25.6342 1 25.6342 1 25.6342V25.6342C1 25.6342 1 25.6342 1 25.6342V25.6342C1 25.6342 1 25.6342 1 25.6342C1 25.6342 1 25.6342 1 25.6342C1 25.6342 1 25.6342 1 25.6342C1 25.6342 1 25.6342 1 25.6342V25.6342C1 25.6342 1 25.6342 1 25.6342V25.6342C1 25.6342 1 25.6342 1 25.6342C1 25.6342 1 25.6342 1 25.6342C1 25.6342 1 25.6342 1 25.6342C1 25.6342 1 25.6342 1 25.6342V25.6342C1 25.6342 1 25.6342 1 25.6342V25.6342C1 25.6342 1 25.6342 1 25.6342C1 25.6342 1 25.6342 1 25.6342C1 25.6342 1 25.6342 1 25.6342C1 25.6342 1 25.6342 1 25.6342V25.6342C1 25.6342 1 25.6342 1 25.6342V25.6342C1 25.6342 1 25.6342 1 25.6342C1 25.6342 1 25.6342 1 25.6342C1 25.6342 1 25.6342 1 25.6342C1 25.6342 1 25.6342 1 25.6342V25.6342C1 25.6342 1 25.6342 1 25.6342V25.6342C1 25.6342 1 25.6342 1 25.6342C1 25.6342 1 25.6342 1 25.6342C1 25.6342 1 25.6342 1 25.6342C1 25.6342 1 25.6342 1 25.6342V25.6342C1 25.6342 1 25.6342 1 25.6342V25.6342C1 25.6342 1 25.6342 1 25.6342C1 25.6342 1 25.6342 1 25.6342C1 25.6342 1 25.6342 1 25.6342C1 25.6342 1 25.6342 1 25.6342V25.6342C1 25.6342 1 25.6342 1 25.6342V25.6342C1 25.6342 1 25.6342 1 25.6342C1 25.6342 1 25.6342 1 25.6342C1 25.6341 1 25.6341 1 25.6341C1 25.6341 1 25.6341 1 25.6341V25.6341C1 25.6341 1 25.6341 1 25.6341V25.6341C1 25.6341 1 25.6341 1 25.6341C1 25.6341 1 25.6341 1 25.6341C1 25.6341 1 25.6341 1 25.6341C1 25.6341 1 25.6341 1 25.6341V25.6341C1 25.6341 1 25.6341 1 25.6341V25.6341C1 25.6341 1 25.6341 1 25.6341V25.6341C1 25.6341 1 25.6341 1 25.6341C1 25.6341 1 25.6341 1 25.6341V25.6341C1 25.6341 1 25.6341 1 25.6341V25.6341C1 25.6341 1 25.6341 1 25.6341V25.6341C1 25.6341 1 25.6341 1 25.6341C1 25.6341 1 25.6341 1 25.6341V25.6341C1 25.6341 1 25.6341 1 25.6341V25.6341C1 25.6341 1 25.6341 1 25.6341V25.6341C1 25.6341 1 25.6341 1 25.6341C1 25.6341 1 25.6341 1 25.6341C1 25.6341 1 25.6341 1 25.6341C1 25.6341 1 25.6341 1 25.6341V25.6341C1 25.6341 1 25.6341 1 25.6341V25.6341C1 25.6341 1 25.6341 1 25.6341C1 25.6341 1 25.6341 1 25.6341C1 25.6341 1 25.6341 1 25.6341C1 25.6341 1 25.6341 1 25.6341V25.6341C1 25.6341 1 25.6341 1 25.6341V25.6341C1 25.6341 1 25.6341 1 25.6341V25.6341C1 25.6341 1 25.6341 1 25.6341C1 25.6341 1 25.6341 1 25.6341V25.6341C1 25.6341 1 25.6341 1 25.6341V25.6341C1 25.6341 1 25.6341 1 25.6341V25.6341C1 25.6341 1 25.6341 1 25.6341C1 25.6341 1 25.6341 1 25.6341V25.634C1 25.634 1 25.634 1 25.634V25.634C1 25.634 1 25.634 1 25.634V25.634C1 25.634 1 25.634 1 25.634C1 25.634 1 25.634 1 25.634C1 25.634 1 25.634 1 25.634C1 25.634 1 25.634 1 25.634V25.634C1 25.634 1 25.634 1 25.634V25.634C1 25.634 1 25.634 1 25.634C1 25.634 1 25.634 1 25.634C1 25.634 1 25.634 1 25.634C1 25.634 1 25.634 1 25.634V25.634C1 25.634 1 25.634 1 25.634V25.634C1 25.634 1 25.634 1 25.634C1 25.634 1 25.634 1 25.634C1 25.634 1 25.634 1 25.634C1 25.634 1 25.634 1 25.634V25.634C1 25.634 1 25.634 1 25.634V25.634C1 25.634 1 25.634 1 25.634C1 25.634 1 25.634 1 25.634C1 25.634 1 25.634 1 25.634C1 25.634 1 25.634 1 25.634V25.634C1 25.634 1 25.634 1 25.634V25.634C1 25.634 1 25.634 1 25.634C1 25.634 1 25.634 1 25.634C1 25.634 1 25.634 1 25.634C1 25.634 1 25.634 1 25.634V25.634C1 25.634 1 25.634 1 25.634V25.634C1 25.634 1 25.634 1 25.634C1 25.634 1 25.634 1 25.634C1 25.634 1 25.634 1 25.634C1 25.634 1 25.634 1 25.634V25.634C1 25.634 1 25.634 1 25.634V25.634C1 25.634 1 25.634 1 25.634C1 25.634 1 25.634 1 25.634C1 25.634 1 25.634 1 25.634C1 25.634 1 25.634 1 25.634V25.634C1 25.6339 1 25.6339 1 25.6339V25.6339C1 25.6339 1 25.6339 1 25.6339C1 25.6339 1 25.6339 1 25.6339C1 25.6339 1 25.6339 1 25.6339C1 25.6339 1 25.6339 1 25.6339V25.6339C1 25.6339 1 25.6339 1 25.6339V25.6339C1 25.6339 1 25.6339 1 25.6339C1 25.6339 1 25.6339 1 25.6339V25.6339C1 25.6339 1 25.6339 1 25.6339V25.6339C1 25.6339 1 25.6339 1 25.6339C1 25.6339 1 25.6339 1 25.6339C1 25.6339 1 25.6339 1 25.6339C1 25.6339 1 25.6339 1 25.6339V25.6339C1 25.6339 1 25.6339 1 25.6339V25.6339C1 25.6339 1 25.6339 1 25.6339C1 25.6339 1 25.6339 1 25.6339V25.6339C1 25.6339 1 25.6339 1 25.6339V25.6339C1 25.6339 1 25.6339 1 25.6339C1 25.6339 1 25.6339 1 25.6339H-1C-1 25.6339 -1 25.6339 -1 25.6339C-1 25.6339 -1 25.6339 -1 25.6339V25.6339C-1 25.6339 -1 25.6339 -1 25.6339V25.6339C-1 25.6339 -1 25.6339 -1 25.6339C-1 25.6339 -1 25.6339 -1 25.6339V25.6339C-1 25.6339 -1 25.6339 -1 25.6339V25.6339C-1 25.6339 -1 25.6339 -1 25.6339C-1 25.6339 -1 25.6339 -1 25.6339C-1 25.6339 -1 25.6339 -1 25.6339C-1 25.6339 -1 25.6339 -1 25.6339V25.6339C-1 25.6339 -1 25.6339 -1 25.6339V25.6339C-1 25.6339 -1 25.6339 -1 25.6339C-1 25.6339 -1 25.6339 -1 25.6339V25.6339C-1 25.6339 -1 25.6339 -1 25.6339V25.6339C-1 25.6339 -1 25.6339 -1 25.6339C-1 25.6339 -1 25.6339 -1 25.6339C-1 25.6339 -1 25.6339 -1 25.6339C-1 25.6339 -1 25.6339 -1 25.6339V25.6339C-1 25.6339 -1 25.6339 -1 25.634V25.634C-1 25.634 -1 25.634 -1 25.634C-1 25.634 -1 25.634 -1 25.634C-1 25.634 -1 25.634 -1 25.634C-1 25.634 -1 25.634 -1 25.634V25.634C-1 25.634 -1 25.634 -1 25.634V25.634C-1 25.634 -1 25.634 -1 25.634C-1 25.634 -1 25.634 -1 25.634C-1 25.634 -1 25.634 -1 25.634C-1 25.634 -1 25.634 -1 25.634V25.634C-1 25.634 -1 25.634 -1 25.634V25.634C-1 25.634 -1 25.634 -1 25.634C-1 25.634 -1 25.634 -1 25.634C-1 25.634 -1 25.634 -1 25.634C-1 25.634 -1 25.634 -1 25.634V25.634C-1 25.634 -1 25.634 -1 25.634V25.634C-1 25.634 -1 25.634 -1 25.634C-1 25.634 -1 25.634 -1 25.634C-1 25.634 -1 25.634 -1 25.634C-1 25.634 -1 25.634 -1 25.634V25.634C-1 25.634 -1 25.634 -1 25.634V25.634C-1 25.634 -1 25.634 -1 25.634C-1 25.634 -1 25.634 -1 25.634C-1 25.634 -1 25.634 -1 25.634C-1 25.634 -1 25.634 -1 25.634V25.634C-1 25.634 -1 25.634 -1 25.634V25.634C-1 25.634 -1 25.634 -1 25.634C-1 25.634 -1 25.634 -1 25.634C-1 25.634 -1 25.634 -1 25.634C-1 25.634 -1 25.634 -1 25.634V25.634C-1 25.634 -1 25.634 -1 25.634V25.634C-1 25.634 -1 25.634 -1 25.634C-1 25.634 -1 25.634 -1 25.634C-1 25.634 -1 25.634 -1 25.634C-1 25.634 -1 25.634 -1 25.634V25.634C-1 25.634 -1 25.634 -1 25.634V25.634C-1 25.634 -1 25.634 -1 25.634V25.6341C-1 25.6341 -1 25.6341 -1 25.6341C-1 25.6341 -1 25.6341 -1 25.6341V25.6341C-1 25.6341 -1 25.6341 -1 25.6341V25.6341C-1 25.6341 -1 25.6341 -1 25.6341V25.6341C-1 25.6341 -1 25.6341 -1 25.6341C-1 25.6341 -1 25.6341 -1 25.6341V25.6341C-1 25.6341 -1 25.6341 -1 25.6341V25.6341C-1 25.6341 -1 25.6341 -1 25.6341V25.6341C-1 25.6341 -1 25.6341 -1 25.6341C-1 25.6341 -1 25.6341 -1 25.6341C-1 25.6341 -1 25.6341 -1 25.6341C-1 25.6341 -1 25.6341 -1 25.6341V25.6341C-1 25.6341 -1 25.6341 -1 25.6341V25.6341C-1 25.6341 -1 25.6341 -1 25.6341C-1 25.6341 -1 25.6341 -1 25.6341C-1 25.6341 -1 25.6341 -1 25.6341C-1 25.6341 -1 25.6341 -1 25.6341V25.6341C-1 25.6341 -1 25.6341 -1 25.6341V25.6341C-1 25.6341 -1 25.6341 -1 25.6341V25.6341C-1 25.6341 -1 25.6341 -1 25.6341C-1 25.6341 -1 25.6341 -1 25.6341V25.6341C-1 25.6341 -1 25.6341 -1 25.6341V25.6341C-1 25.6341 -1 25.6341 -1 25.6341V25.6341C-1 25.6341 -1 25.6341 -1 25.6341C-1 25.6341 -1 25.6341 -1 25.6341V25.6341C-1 25.6341 -1 25.6341 -1 25.6341V25.6341C-1 25.6341 -1 25.6341 -1 25.6341V25.6341C-1 25.6341 -1 25.6341 -1 25.6341C-1 25.6341 -1 25.6341 -1 25.6341C-1 25.6341 -1 25.6341 -1 25.6341C-1 25.6341 -1 25.6341 -1 25.6341V25.6341C-1 25.6341 -1 25.6341 -1 25.6341V25.6341C-1 25.6341 -1 25.6341 -1 25.6341C-1 25.6341 -1 25.6341 -1 25.6342C-1 25.6342 -1 25.6342 -1 25.6342C-1 25.6342 -1 25.6342 -1 25.6342V25.6342C-1 25.6342 -1 25.6342 -1 25.6342V25.6342C-1 25.6342 -1 25.6342 -1 25.6342C-1 25.6342 -1 25.6342 -1 25.6342C-1 25.6342 -1 25.6342 -1 25.6342C-1 25.6342 -1 25.6342 -1 25.6342V25.6342C-1 25.6342 -1 25.6342 -1 25.6342V25.6342C-1 25.6342 -1 25.6342 -1 25.6342C-1 25.6342 -1 25.6342 -1 25.6342C-1 25.6342 -1 25.6342 -1 25.6342C-1 25.6342 -1 25.6342 -1 25.6342V25.6342C-1 25.6342 -1 25.6342 -1 25.6342V25.6342C-1 25.6342 -1 25.6342 -1 25.6342C-1 25.6342 -1 25.6342 -1 25.6342C-1 25.6342 -1 25.6342 -1 25.6342C-1 25.6342 -1 25.6342 -1 25.6342V25.6342C-1 25.6342 -1 25.6342 -1 25.6342V25.6342C-1 25.6342 -1 25.6342 -1 25.6342C-1 25.6342 -1 25.6342 -1 25.6342C-1 25.6342 -1 25.6342 -1 25.6342C-1 25.6342 -1 25.6342 -1 25.6342V25.6342C-1 25.6342 -1 25.6342 -1 25.6342V25.6342C-1 25.6342 -1 25.6342 -1 25.6342C-1 25.6342 -1 25.6342 -1 25.6342C-1 25.6342 -1 25.6342 -1 25.6342C-1 25.6342 -1 25.6342 -1 25.6342V25.6342C-1 25.6342 -1 25.6342 -1 25.6342V25.6342C-1 25.6342 -1 25.6342 -1 25.6342C-1 25.6342 -1 25.6342 -1 25.6342C-1 25.6342 -1 25.6342 -1 25.6342C-1 25.6342 -1 25.6342 -1 25.6342V25.6342C-1 25.6342 -1 25.6342 -1 25.6342V25.6342C-1 25.6342 -1 25.6342 -1 25.6342C-1 25.6342 -1 25.6342 -1 25.6342V25.6342C-1 25.6342 -1 25.6342 -1 25.6342V25.6343C-1 25.6343 -1 25.6343 -1 25.6343C-1 25.6343 -1 25.6343 -1 25.6343C-1 25.6343 -1 25.6343 -1 25.6343C-1 25.6343 -1 25.6343 -1 25.6343V25.6343C-1 25.6343 -1 25.6343 -1 25.6343V25.6343C-1 25.6343 -1 25.6343 -1 25.6343C-1 25.6343 -1 25.6343 -1 25.6343V25.6343C-1 25.6343 -1 25.6343 -1 25.6343V25.6343C-1 25.6343 -1 25.6343 -1 25.6343C-1 25.6343 -1 25.6343 -1 25.6343H1ZM25 49.6343C11.7452 49.6343 1 38.8891 1 25.6343H-1C-1 39.9937 10.6406 51.6343 25 51.6343V49.6343ZM33.28 48.168C30.7004 49.1162 27.9118 49.6343 25 49.6343V51.6343C28.1507 51.6343 31.1726 51.0734 33.97 50.0452L33.28 48.168ZM32.625 25.6339V49.1066H34.625V25.6339H32.625ZM33.625 24.6339H0V26.6339H33.625V24.6339Z" fill="white" mask="url(#path-1-inside-1_121_1344)"/>
</svg>
