<svg width="54" height="53" viewBox="0 0 54 53" fill="none" xmlns="http://www.w3.org/2000/svg">
<rect width="54" height="53" rx="10" fill="#1BBF00" fill-opacity="0.08"/>
<path fill-rule="evenodd" clip-rule="evenodd" d="M22.625 27C25.0419 27 27 25.0419 27 22.625C27 20.2081 25.0419 18.25 22.625 18.25C20.2081 18.25 18.25 20.2081 18.25 22.625C18.25 25.0419 20.2081 27 22.625 27ZM25.75 22.625C25.75 24.3519 24.3519 25.75 22.625 25.75C20.8981 25.75 19.5 24.3519 19.5 22.625C19.5 20.8981 20.8981 19.5 22.625 19.5C24.3519 19.5 25.75 20.8981 25.75 22.625ZM14.5 35.75V32.25C14.5 29.59 19.9131 28.25 22.625 28.25C24.4288 28.25 27.4281 28.8431 29.2344 30.0231C30.5219 29.675 31.9338 29.5 32.9375 29.5C34.0987 29.5 35.6569 29.7338 36.9438 30.2063C37.585 30.4425 38.1994 30.7525 38.6637 31.1538C39.1319 31.5581 39.5 32.105 39.5 32.7913V35.75H14.5ZM15.75 32.25C15.75 32.0519 15.8412 31.7806 16.2287 31.4281C16.6244 31.0681 17.2331 30.7194 18.0037 30.4156C19.5481 29.8063 21.4231 29.5 22.625 29.5C23.8269 29.5 25.7025 29.8063 27.2456 30.4156C28.0169 30.7194 28.6256 31.0681 29.0206 31.4281C29.4087 31.7806 29.5 32.0519 29.5 32.25V34.5H15.75V32.25ZM30.3456 31.0438C31.2913 30.8481 32.2394 30.75 32.9375 30.75C33.9669 30.75 35.3769 30.9625 36.5125 31.38C37.0806 31.5888 37.54 31.835 37.8469 32.1C38.15 32.3619 38.25 32.5919 38.25 32.7919V34.5H30.75V32.25C30.75 31.8125 30.6031 31.4094 30.3456 31.0438ZM36.375 24.8125C36.375 26.7119 34.8369 28.25 32.9375 28.25C32.4861 28.2501 32.039 28.1612 31.6219 27.9885C31.2048 27.8158 30.8259 27.5626 30.5066 27.2434C30.1874 26.9241 29.9342 26.5452 29.7615 26.1281C29.5888 25.711 29.4999 25.2639 29.5 24.8125C29.5 22.9131 31.0381 21.375 32.9375 21.375C34.8369 21.375 36.375 22.9131 36.375 24.8125ZM32.9375 27C34.1462 27 35.125 26.0213 35.125 24.8125C35.125 23.6038 34.1462 22.625 32.9375 22.625C32.6502 22.6248 32.3657 22.6813 32.1002 22.7912C31.8347 22.9011 31.5935 23.0622 31.3903 23.2653C31.1872 23.4685 31.0261 23.7097 30.9162 23.9752C30.8063 24.2407 30.7498 24.5252 30.75 24.8125C30.75 26.0213 31.7288 27 32.9375 27Z" fill="#1BBF00"/>
</svg>
