<svg width="90" height="90" viewBox="0 0 90 90" fill="none" xmlns="http://www.w3.org/2000/svg">
<path d="M64.4674 25.3447H60.2487C59.8805 25.3375 59.5298 25.1862 59.2719 24.9233C59.0141 24.6603 58.8696 24.3067 58.8696 23.9384C58.8696 23.5702 59.0141 23.2166 59.272 22.9536C59.5298 22.6907 59.8806 22.5394 60.2488 22.5322H64.4674C64.8357 22.5394 65.1864 22.6907 65.4442 22.9537C65.7021 23.2166 65.8465 23.5702 65.8465 23.9385C65.8465 24.3068 65.7021 24.6604 65.4442 24.9233C65.1864 25.1862 64.8357 25.3375 64.4674 25.3447Z" fill="#044388"/>
<path d="M60.2488 23.9384C60.2381 24.6772 59.937 25.3822 59.4107 25.9009C58.8844 26.4196 58.1752 26.7104 57.4362 26.7103C56.6973 26.7103 55.988 26.4195 55.4617 25.9008C54.9355 25.3821 54.6345 24.6771 54.6238 23.9382C54.6345 23.1994 54.9355 22.4944 55.4618 21.9757C55.9881 21.457 56.6974 21.1662 57.4363 21.1663C58.1753 21.1663 58.8845 21.4571 59.4108 21.9758C59.9371 22.4945 60.2381 23.1995 60.2488 23.9384Z" fill="#CCDDE7"/>
<path d="M64.4674 47.8447H60.2487C59.8805 47.8375 59.5298 47.6862 59.2719 47.4233C59.0141 47.1603 58.8696 46.8067 58.8696 46.4384C58.8696 46.0701 59.0141 45.7166 59.272 45.4536C59.5298 45.1907 59.8806 45.0394 60.2488 45.0322H64.4674C64.8357 45.0394 65.1864 45.1907 65.4442 45.4537C65.7021 45.7166 65.8465 46.0702 65.8465 46.4385C65.8465 46.8068 65.7021 47.1604 65.4442 47.4233C65.1864 47.6862 64.8357 47.8375 64.4674 47.8447Z" fill="#044388"/>
<path d="M60.2488 46.4384C60.2381 47.1772 59.937 47.8822 59.4107 48.4009C58.8844 48.9196 58.1752 49.2103 57.4362 49.2103C56.6973 49.2103 55.988 48.9195 55.4617 48.4008C54.9355 47.8821 54.6345 47.1771 54.6238 46.4382C54.6345 45.6994 54.9355 44.9944 55.4618 44.4757C55.9881 43.957 56.6974 43.6662 57.4363 43.6663C58.1753 43.6663 58.8845 43.9571 59.4108 44.4758C59.9371 44.9945 60.2381 45.6995 60.2488 46.4384Z" fill="#CCDDE7"/>
<path d="M75.5149 76.9599L39.2728 85.708C38.9924 85.7784 38.6971 85.7587 38.4285 85.6519C24.4788 80.5242 9.92008 66.6128 4.52814 50.9907C4.45927 50.8053 4.43042 50.6075 4.44349 50.4102C4.45657 50.2129 4.51126 50.0207 4.60399 49.846C4.69671 49.6714 4.82536 49.5184 4.98146 49.3971C5.13757 49.2757 5.3176 49.1888 5.5097 49.1421C18.0806 46.0003 30.6516 42.8585 43.2226 39.7168C43.5569 39.6314 43.911 39.6728 44.2166 39.8329C44.5223 39.993 44.7579 40.2605 44.8781 40.5839C47.3497 47.354 51.0192 53.6241 55.7112 59.0947C61.2591 65.5295 68.1032 70.7204 75.7957 74.3277C76.0576 74.4529 76.2742 74.6563 76.4157 74.9098C76.5572 75.1633 76.6167 75.4544 76.5859 75.743C76.5551 76.0317 76.4356 76.3037 76.2438 76.5216C76.052 76.7396 75.7973 76.8927 75.5149 76.9599Z" fill="#5E35B1"/>
<path d="M15.4506 54.2015C15.111 54.1951 14.7851 54.0663 14.533 53.8387C14.2808 53.6111 14.1193 53.3001 14.0782 52.9629C14.0371 52.6258 14.1192 52.2851 14.3093 52.0036C14.4994 51.7221 14.7847 51.5187 15.1129 51.4309L30.8315 47.5205C31.1904 47.4387 31.5671 47.501 31.8807 47.6939C32.1943 47.8868 32.4196 48.195 32.5085 48.5523C32.5973 48.9096 32.5424 49.2874 32.3557 49.6047C32.169 49.922 31.8652 50.1534 31.5098 50.2492L15.7912 54.1597C15.6798 54.1877 15.5654 54.2018 15.4506 54.2015ZM19.4126 58.3276C19.0728 58.3211 18.7469 58.192 18.4948 57.9643C18.2427 57.7365 18.0813 57.4254 18.0403 57.0881C17.9994 56.7508 18.0817 56.4101 18.272 56.1286C18.4623 55.8472 18.7479 55.6439 19.0762 55.5563L34.8085 51.6582C35.1683 51.5751 35.5463 51.6367 35.8609 51.8299C36.1756 52.0231 36.4016 52.3322 36.4903 52.6906C36.579 53.049 36.5232 53.428 36.335 53.7456C36.1467 54.0632 35.8411 54.294 35.4841 54.3883L19.7518 58.2864C19.6408 58.314 19.5269 58.3278 19.4126 58.3276ZM23.3759 62.455C23.036 62.4486 22.71 62.3195 22.4578 62.0917C22.2056 61.8638 22.0442 61.5525 22.0034 61.215C21.9626 60.8776 22.0452 60.5368 22.2358 60.2554C22.4264 59.974 22.7124 59.771 23.0409 59.6837L29.7768 58.0213C30.136 57.9401 30.5127 58.0031 30.826 58.1966C31.1393 58.3902 31.3641 58.6989 31.4522 59.0564C31.5403 59.414 31.4847 59.7918 31.2972 60.1088C31.1097 60.4257 30.8054 60.6565 30.4496 60.7515L23.7137 62.4138C23.6032 62.4413 23.4897 62.4551 23.3759 62.455Z" fill="white"/>
<path d="M84.1555 4.25098H65.8743C65.0976 4.25098 64.468 4.88058 64.468 5.65723V28.1572C64.468 28.9339 65.0976 29.5635 65.8743 29.5635H84.1555C84.9322 29.5635 85.5618 28.9339 85.5618 28.1572V5.65723C85.5618 4.88058 84.9322 4.25098 84.1555 4.25098Z" fill="#5E35B1"/>
<path d="M79.9362 12.6885H70.0924C69.7242 12.6813 69.3735 12.53 69.1157 12.267C68.8578 12.0041 68.7134 11.6505 68.7134 11.2822C68.7134 10.9139 68.8578 10.5603 69.1157 10.2974C69.3736 10.0344 69.7243 9.88314 70.0925 9.87598H79.9362C80.3044 9.88315 80.6551 10.0345 80.913 10.2974C81.1708 10.5604 81.3153 10.9139 81.3153 11.2822C81.3153 11.6505 81.1708 12.0041 80.913 12.267C80.6551 12.53 80.3044 12.6813 79.9362 12.6885ZM77.1237 18.3135H70.0924C69.7242 18.3063 69.3735 18.155 69.1157 17.892C68.8578 17.6291 68.7134 17.2755 68.7134 16.9072C68.7134 16.5389 68.8578 16.1853 69.1157 15.9224C69.3736 15.6594 69.7243 15.5081 70.0925 15.501H77.1237C77.4919 15.5082 77.8426 15.6595 78.1005 15.9224C78.3583 16.1854 78.5028 16.5389 78.5028 16.9072C78.5028 17.2755 78.3583 17.6291 78.1005 17.892C77.8426 18.155 77.4919 18.3063 77.1237 18.3135ZM77.1237 23.9385H70.0924C69.7242 23.9313 69.3735 23.78 69.1157 23.517C68.8578 23.2541 68.7134 22.9005 68.7134 22.5322C68.7134 22.1639 68.8578 21.8103 69.1157 21.5474C69.3736 21.2844 69.7243 21.1331 70.0925 21.126H77.1237C77.4919 21.1332 77.8426 21.2845 78.1005 21.5474C78.3583 21.8104 78.5028 22.1639 78.5028 22.5322C78.5028 22.9005 78.3583 23.2541 78.1005 23.517C77.8426 23.78 77.4919 23.9313 77.1237 23.9385Z" fill="white"/>
<path d="M84.1555 38.001H65.8743C65.0976 38.001 64.468 38.6306 64.468 39.4072V61.9072C64.468 62.6839 65.0976 63.3135 65.8743 63.3135H84.1555C84.9322 63.3135 85.5618 62.6839 85.5618 61.9072V39.4072C85.5618 38.6306 84.9322 38.001 84.1555 38.001Z" fill="#77A7FF"/>
<path d="M79.9362 46.4385H70.0924C69.7242 46.4313 69.3735 46.28 69.1157 46.017C68.8578 45.7541 68.7134 45.4005 68.7134 45.0322C68.7134 44.6639 68.8578 44.3103 69.1157 44.0474C69.3736 43.7844 69.7243 43.6331 70.0925 43.626H79.9362C80.3044 43.6332 80.6551 43.7845 80.913 44.0474C81.1708 44.3103 81.3153 44.6639 81.3153 45.0322C81.3153 45.4005 81.1708 45.7541 80.913 46.017C80.6551 46.28 80.3044 46.4313 79.9362 46.4385ZM77.1237 52.0635H70.0924C69.7242 52.0563 69.3735 51.905 69.1157 51.642C68.8578 51.3791 68.7134 51.0255 68.7134 50.6572C68.7134 50.2889 68.8578 49.9353 69.1157 49.6724C69.3736 49.4094 69.7243 49.2581 70.0925 49.251H77.1237C77.4919 49.2582 77.8426 49.4095 78.1005 49.6724C78.3583 49.9354 78.5028 50.2889 78.5028 50.6572C78.5028 51.0255 78.3583 51.3791 78.1005 51.642C77.8426 51.905 77.4919 52.0563 77.1237 52.0635ZM77.1237 57.6885H70.0924C69.7242 57.6813 69.3735 57.53 69.1157 57.267C68.8578 57.0041 68.7134 56.6505 68.7134 56.2822C68.7134 55.9139 68.8578 55.5603 69.1157 55.2974C69.3736 55.0344 69.7243 54.8831 70.0925 54.876H77.1237C77.4919 54.8832 77.8426 55.0345 78.1005 55.2974C78.3583 55.5604 78.5028 55.9139 78.5028 56.2822C78.5028 56.6505 78.3583 57.0041 78.1005 57.267C77.8426 57.53 77.4919 57.6813 77.1237 57.6885Z" fill="white"/>
<path opacity="0.1" d="M23.3613 60.456C23.3601 60.6732 23.4309 60.8846 23.5627 61.0573C23.6945 61.2299 23.8797 61.354 24.0895 61.4102C28.9458 62.7279 33.961 63.3676 38.9925 63.3109C44.0157 63.2579 49.0155 62.6194 53.8908 61.4083C54.1016 61.3531 54.2881 61.2293 54.4208 61.0564C54.5535 60.8835 54.6249 60.6714 54.6237 60.4534V57.5636C54.5756 54.1803 53.1859 50.9546 50.7601 48.5957C48.3342 46.2368 45.0709 44.9379 41.6876 44.9846H36.2975C32.9142 44.9379 29.6508 46.2368 27.225 48.5957C24.7991 50.9546 23.4094 54.1803 23.3614 57.5636L23.3613 60.456Z" fill="black"/>
<path d="M23.3613 59.0498C23.3601 59.2669 23.4309 59.4784 23.5627 59.651C23.6945 59.8237 23.8797 59.9478 24.0895 60.0039C28.9458 61.3217 33.961 61.9613 38.9925 61.9047C44.0157 61.8516 49.0155 61.2131 53.8908 60.002C54.1016 59.9469 54.2881 59.8231 54.4208 59.6502C54.5535 59.4773 54.6249 59.2651 54.6237 59.0472V56.1573C54.5756 52.774 53.1859 49.5483 50.7601 47.1894C48.3342 44.8306 45.0709 43.5317 41.6876 43.5784H36.2975C32.9142 43.5317 29.6508 44.8306 27.225 47.1894C24.7991 49.5483 23.4094 52.774 23.3614 56.1573L23.3613 59.0498Z" fill="#72A3FD"/>
<path opacity="0.1" d="M35.7241 45.5378C35.6315 47.3999 41.9989 47.7603 42.2609 45.5366V40.1838H35.7241V45.5378Z" fill="black"/>
<path d="M35.7241 44.5505C35.6315 46.4125 41.9988 46.773 42.2609 44.5493V40.1838H35.7241V44.5505Z" fill="#EB996E"/>
<path opacity="0.1" d="M42.2606 40.7715H35.7468V41.3818H42.2606V40.7715Z" fill="black"/>
<path d="M27.5532 29.2501C27.5553 29.6772 27.6415 30.0997 27.8069 30.4934C27.9723 30.8871 28.2136 31.2444 28.5172 31.5448C28.8207 31.8453 29.1804 32.083 29.5758 32.2443C29.9712 32.4057 30.3945 32.4876 30.8216 32.4853C29.5034 44.4922 48.4642 44.4841 47.1634 32.4853C47.9023 32.4853 48.6189 32.2324 49.194 31.7686C49.7692 31.3048 50.1683 30.6581 50.3249 29.936C50.4814 29.214 50.3861 28.4601 50.0548 27.7997C49.7234 27.1393 49.1759 26.6123 48.5035 26.3062C48.3645 27.1554 46.2646 21.1624 45.5292 21.1624H32.4558C31.7203 21.1624 29.6205 27.1554 29.4816 26.3062C28.9095 26.5573 28.4226 26.9692 28.0803 27.4919C27.738 28.0145 27.5548 28.6254 27.5532 29.2501Z" fill="#EB996E"/>
<path opacity="0.1" d="M38.9925 27.0451C34.907 27.0451 34.0899 24.381 33.2729 24.381C32.2836 24.381 31.8718 26.2588 31.0342 27.8846C30.9407 28.056 30.7898 28.189 30.6081 28.2603C30.4264 28.3316 30.2253 28.3368 30.0402 28.2748C29.8551 28.2128 29.6977 28.0876 29.5955 27.9212C29.4934 27.7548 29.4531 27.5578 29.4816 27.3647C29.1387 25.1158 29.0974 22.8312 29.359 20.5715C29.6088 19.388 30.2002 18.3038 31.06 17.4531C31.9198 16.6023 33.0101 16.0224 34.1962 15.7851C34.9949 15.703 36.9937 15.501 38.9925 15.501C40.9913 15.501 42.9901 15.703 43.7888 15.7851C44.9748 16.0224 46.0652 16.6023 46.925 17.4531C47.7848 18.3038 48.3762 19.388 48.626 20.5715C48.8875 22.8313 48.8463 25.1158 48.5034 27.3647C48.5203 28.2742 47.4102 28.7408 46.9507 27.8846C46.1132 26.2588 45.7014 24.381 44.7121 24.381C43.895 24.381 43.0779 27.0451 38.9925 27.0451Z" fill="black"/>
<path d="M38.9925 26.0151C34.907 26.0151 34.0899 23.5888 33.2728 23.5888C32.2835 23.5888 31.8718 25.299 31.0342 26.7798C30.9376 26.9389 30.7908 27.0613 30.6169 27.1277C30.443 27.194 30.2519 27.2006 30.0739 27.1463C29.8959 27.092 29.741 26.9799 29.6337 26.8278C29.5265 26.6757 29.4729 26.4922 29.4816 26.3062C29.1387 24.2609 29.0974 22.1763 29.359 20.119C29.6536 19.0005 30.2682 17.9923 31.1274 17.218C31.9867 16.4436 33.0532 15.9369 34.1962 15.7597C34.9949 15.6849 36.9937 15.501 38.9925 15.501C40.9913 15.501 42.9901 15.685 43.7888 15.7597C44.9318 15.9369 45.9983 16.4436 46.8575 17.218C47.7167 17.9923 48.3313 19.0005 48.626 20.119C48.8875 22.1764 48.8463 24.2609 48.5034 26.3063C48.5121 26.4922 48.4585 26.6757 48.3513 26.8278C48.244 26.98 48.0891 27.092 47.911 27.1463C47.733 27.2006 47.5419 27.1941 47.368 27.1277C47.1941 27.0613 47.0473 26.9389 46.9507 26.7797C46.1131 25.299 45.7014 23.5888 44.7121 23.5888C43.895 23.5888 43.0779 26.0151 38.9925 26.0151Z" fill="#555555"/>
<path d="M48.4958 53.4697C48.4887 53.8379 48.3373 54.1886 48.0744 54.4465C47.8114 54.7044 47.4578 54.8488 47.0896 54.8488C46.7213 54.8488 46.3677 54.7043 46.1048 54.4464C45.8418 54.1886 45.6905 53.8378 45.6833 53.4696C45.6905 53.1014 45.8419 52.7507 46.1048 52.4929C46.3678 52.235 46.7214 52.0906 47.0896 52.0906C47.4579 52.0906 47.8115 52.2351 48.0745 52.4929C48.3374 52.7508 48.4887 53.1015 48.4958 53.4697Z" fill="white"/>
</svg>
