<svg width="54" height="53" viewBox="0 0 54 53" fill="none" xmlns="http://www.w3.org/2000/svg">
<rect width="54" height="53" rx="10" fill="#E734D6" fill-opacity="0.08"/>
<path fill-rule="evenodd" clip-rule="evenodd" d="M22.625 26C25.0419 26 27 24.0419 27 21.625C27 19.2081 25.0419 17.25 22.625 17.25C20.2081 17.25 18.25 19.2081 18.25 21.625C18.25 24.0419 20.2081 26 22.625 26ZM25.75 21.625C25.75 23.3519 24.3519 24.75 22.625 24.75C20.8981 24.75 19.5 23.3519 19.5 21.625C19.5 19.8981 20.8981 18.5 22.625 18.5C24.3519 18.5 25.75 19.8981 25.75 21.625ZM14.5 34.75V31.25C14.5 28.59 19.9131 27.25 22.625 27.25C24.4288 27.25 27.4281 27.8431 29.2344 29.0231C30.5219 28.675 31.9338 28.5 32.9375 28.5C34.0987 28.5 35.6569 28.7338 36.9438 29.2063C37.585 29.4425 38.1994 29.7525 38.6637 30.1538C39.1319 30.5581 39.5 31.105 39.5 31.7913V34.75H14.5ZM15.75 31.25C15.75 31.0519 15.8412 30.7806 16.2287 30.4281C16.6244 30.0681 17.2331 29.7194 18.0037 29.4156C19.5481 28.8063 21.4231 28.5 22.625 28.5C23.8269 28.5 25.7025 28.8063 27.2456 29.4156C28.0169 29.7194 28.6256 30.0681 29.0206 30.4281C29.4087 30.7806 29.5 31.0519 29.5 31.25V33.5H15.75V31.25ZM30.3456 30.0438C31.2913 29.8481 32.2394 29.75 32.9375 29.75C33.9669 29.75 35.3769 29.9625 36.5125 30.38C37.0806 30.5888 37.54 30.835 37.8469 31.1C38.15 31.3619 38.25 31.5919 38.25 31.7919V33.5H30.75V31.25C30.75 30.8125 30.6031 30.4094 30.3456 30.0438ZM36.375 23.8125C36.375 25.7119 34.8369 27.25 32.9375 27.25C32.4861 27.2501 32.039 27.1612 31.6219 26.9885C31.2048 26.8158 30.8259 26.5626 30.5066 26.2434C30.1874 25.9241 29.9342 25.5452 29.7615 25.1281C29.5888 24.711 29.4999 24.2639 29.5 23.8125C29.5 21.9131 31.0381 20.375 32.9375 20.375C34.8369 20.375 36.375 21.9131 36.375 23.8125ZM32.9375 26C34.1462 26 35.125 25.0213 35.125 23.8125C35.125 22.6038 34.1462 21.625 32.9375 21.625C32.6502 21.6248 32.3657 21.6813 32.1002 21.7912C31.8347 21.9011 31.5935 22.0622 31.3903 22.2653C31.1872 22.4685 31.0261 22.7097 30.9162 22.9752C30.8063 23.2407 30.7498 23.5252 30.75 23.8125C30.75 25.0213 31.7288 26 32.9375 26Z" fill="#EA1AD5"/>
</svg>
