<svg width="45" height="46" viewBox="0 0 45 46" fill="none" xmlns="http://www.w3.org/2000/svg">
<path d="M30 21.375C33.1125 21.375 35.6063 18.8625 35.6063 15.75C35.6063 12.6375 33.1125 10.125 30 10.125C26.8875 10.125 24.375 12.6375 24.375 15.75C24.375 18.8625 26.8875 21.375 30 21.375ZM15 21.375C18.1125 21.375 20.6063 18.8625 20.6063 15.75C20.6063 12.6375 18.1125 10.125 15 10.125C11.8875 10.125 9.375 12.6375 9.375 15.75C9.375 18.8625 11.8875 21.375 15 21.375ZM15 25.125C10.6313 25.125 1.875 27.3188 1.875 31.6875V36.375H28.125V31.6875C28.125 27.3188 19.3688 25.125 15 25.125ZM30 25.125C29.4563 25.125 28.8375 25.1625 28.1813 25.2188C30.3563 26.7938 31.875 28.9125 31.875 31.6875V36.375H43.125V31.6875C43.125 27.3188 34.3688 25.125 30 25.125Z" fill="#0000FF"/>
</svg>
