<svg width="45" height="46" viewBox="0 0 45 46" fill="none" xmlns="http://www.w3.org/2000/svg">
<path fill-rule="evenodd" clip-rule="evenodd" d="M15.9375 23.25C19.5628 23.25 22.5 20.3128 22.5 16.6875C22.5 13.0622 19.5628 10.125 15.9375 10.125C12.3122 10.125 9.375 13.0622 9.375 16.6875C9.375 20.3128 12.3122 23.25 15.9375 23.25ZM20.625 16.6875C20.625 19.2778 18.5278 21.375 15.9375 21.375C13.3472 21.375 11.25 19.2778 11.25 16.6875C11.25 14.0972 13.3472 12 15.9375 12C18.5278 12 20.625 14.0972 20.625 16.6875ZM3.75 36.375V31.125C3.75 27.135 11.8697 25.125 15.9375 25.125C18.6431 25.125 23.1422 26.0147 25.8516 27.7847C27.7828 27.2625 29.9006 27 31.4062 27C33.1481 27 35.4853 27.3506 37.4156 28.0594C38.3775 28.4138 39.2991 28.8788 39.9956 29.4806C40.6978 30.0872 41.25 30.9075 41.25 31.9369V36.375H3.75ZM5.625 31.125C5.625 30.8278 5.76187 30.4209 6.34312 29.8922C6.93656 29.3522 7.84969 28.8291 9.00562 28.3734C11.3222 27.4594 14.1347 27 15.9375 27C17.7403 27 20.5537 27.4594 22.8684 28.3734C24.0253 28.8291 24.9384 29.3522 25.5309 29.8922C26.1131 30.4209 26.25 30.8278 26.25 31.125V34.5H5.625V31.125ZM27.5184 29.3156C28.9369 29.0222 30.3591 28.875 31.4062 28.875C32.9503 28.875 35.0653 29.1938 36.7688 29.82C37.6209 30.1331 38.31 30.5025 38.7703 30.9C39.225 31.2928 39.375 31.6378 39.375 31.9378V34.5H28.125V31.125C28.125 30.4688 27.9047 29.8641 27.5184 29.3156ZM36.5625 19.9688C36.5625 22.8178 34.2553 25.125 31.4062 25.125C30.7291 25.1251 30.0585 24.9918 29.4329 24.7328C28.8073 24.4737 28.2388 24.0939 27.76 23.615C27.2811 23.1362 26.9013 22.5677 26.6422 21.9421C26.3832 21.3165 26.2499 20.6459 26.25 19.9688C26.25 17.1197 28.5572 14.8125 31.4062 14.8125C34.2553 14.8125 36.5625 17.1197 36.5625 19.9688ZM31.4062 23.25C33.2194 23.25 34.6875 21.7819 34.6875 19.9688C34.6875 18.1556 33.2194 16.6875 31.4062 16.6875C30.9753 16.6873 30.5485 16.772 30.1503 16.9368C29.7521 17.1016 29.3902 17.3433 29.0855 17.648C28.7808 17.9527 28.5391 18.3146 28.3743 18.7128C28.2095 19.111 28.1248 19.5378 28.125 19.9688C28.125 21.7819 29.5931 23.25 31.4062 23.25Z" fill="#555555"/>
</svg>
