<svg width="45" height="46" viewBox="0 0 45 46" fill="none" xmlns="http://www.w3.org/2000/svg">
<path d="M37.5 15.9312H7.5C5.9467 15.9312 4.6875 17.1904 4.6875 18.7437V37.4937C4.6875 39.047 5.9467 40.3062 7.5 40.3062H37.5C39.0533 40.3062 40.3125 39.047 40.3125 37.4937V18.7437C40.3125 17.1904 39.0533 15.9312 37.5 15.9312Z" stroke="#555555" stroke-width="3.75" stroke-linejoin="round"/>
<path d="M17.8125 8.43115H27.1875V4.68115H17.8125V8.43115ZM28.125 9.36865V15.9312H31.875V9.36865H28.125ZM16.875 15.9312V9.36865H13.125V15.9312H16.875ZM27.1875 8.43115C27.4361 8.43115 27.6746 8.52992 27.8504 8.70574C28.0262 8.88156 28.125 9.12001 28.125 9.36865H31.875C31.875 8.12545 31.3811 6.93317 30.5021 6.05409C29.623 5.17501 28.4307 4.68115 27.1875 4.68115V8.43115ZM17.8125 4.68115C16.5693 4.68115 15.377 5.17501 14.4979 6.05409C13.6189 6.93317 13.125 8.12545 13.125 9.36865H16.875C16.875 9.12001 16.9738 8.88156 17.1496 8.70574C17.3254 8.52992 17.5639 8.43115 17.8125 8.43115V4.68115Z" fill="#555555"/>
<path d="M16.875 28.1187H28.125M22.5 22.4937V33.7437" stroke="#555555" stroke-width="3.75" stroke-linecap="round" stroke-linejoin="round"/>
</svg>
