<svg width="45" height="45" viewBox="0 0 45 45" fill="none" xmlns="http://www.w3.org/2000/svg">
<path d="M37.5 11.25H31.875V7.5C31.875 6.50544 31.4799 5.55161 30.7766 4.84835C30.0734 4.14509 29.1196 3.75 28.125 3.75H16.875C15.8804 3.75 14.9266 4.14509 14.2233 4.84835C13.5201 5.55161 13.125 6.50544 13.125 7.5V11.25H7.5C6.50544 11.25 5.55161 11.6451 4.84835 12.3483C4.14509 13.0516 3.75 14.0054 3.75 15V33.75C3.75 34.7446 4.14509 35.6984 4.84835 36.4016C5.55161 37.1049 6.50544 37.5 7.5 37.5H37.5C38.4946 37.5 39.4484 37.1049 40.1516 36.4016C40.8549 35.6984 41.25 34.7446 41.25 33.75V15C41.25 14.0054 40.8549 13.0516 40.1516 12.3483C39.4484 11.6451 38.4946 11.25 37.5 11.25ZM16.875 7.5H28.125V11.25H16.875V7.5ZM30 26.25H24.375V31.875H20.625V26.25H15V22.5H20.625V16.875H24.375V22.5H30V26.25Z" fill="#0000FF" fill-opacity="0.9"/>
</svg>
