<svg width="45" height="45" viewBox="0 0 45 45" fill="none" xmlns="http://www.w3.org/2000/svg">
<path d="M2.8125 39.625C2.8125 39.625 0 39.625 0 36.8125C0 34 2.8125 25.5625 16.875 25.5625C30.9375 25.5625 33.75 34 33.75 36.8125C33.75 39.625 30.9375 39.625 30.9375 39.625H2.8125ZM16.875 22.75C19.1128 22.75 21.2589 21.8611 22.8412 20.2787C24.4236 18.6964 25.3125 16.5503 25.3125 14.3125C25.3125 12.0747 24.4236 9.92863 22.8412 8.34629C21.2589 6.76395 19.1128 5.875 16.875 5.875C14.6372 5.875 12.4911 6.76395 10.9088 8.34629C9.32645 9.92863 8.4375 12.0747 8.4375 14.3125C8.4375 16.5503 9.32645 18.6964 10.9088 20.2787C12.4911 21.8611 14.6372 22.75 16.875 22.75Z" fill="#0000FF"/>
<path fill-rule="evenodd" clip-rule="evenodd" d="M37.9688 14.3125C38.3417 14.3125 38.6994 14.4607 38.9631 14.7244C39.2268 14.9881 39.375 15.3458 39.375 15.7188V19.9375H43.5938C43.9667 19.9375 44.3244 20.0857 44.5881 20.3494C44.8518 20.6131 45 20.9708 45 21.3438C45 21.7167 44.8518 22.0744 44.5881 22.3381C44.3244 22.6018 43.9667 22.75 43.5938 22.75H39.375V26.9688C39.375 27.3417 39.2268 27.6994 38.9631 27.9631C38.6994 28.2268 38.3417 28.375 37.9688 28.375C37.5958 28.375 37.2381 28.2268 36.9744 27.9631C36.7107 27.6994 36.5625 27.3417 36.5625 26.9688V22.75H32.3438C31.9708 22.75 31.6131 22.6018 31.3494 22.3381C31.0857 22.0744 30.9375 21.7167 30.9375 21.3438C30.9375 20.9708 31.0857 20.6131 31.3494 20.3494C31.6131 20.0857 31.9708 19.9375 32.3438 19.9375H36.5625V15.7188C36.5625 15.3458 36.7107 14.9881 36.9744 14.7244C37.2381 14.4607 37.5958 14.3125 37.9688 14.3125Z" fill="#0000FF"/>
</svg>
