<svg width="45" height="45" viewBox="0 0 45 45" fill="none" xmlns="http://www.w3.org/2000/svg">
<path d="M25.9133 41.25H19.0883C18.6607 41.2501 18.2459 41.104 17.9127 40.8359C17.5795 40.5679 17.348 40.194 17.2564 39.7763L16.4933 36.2438C15.4753 35.7977 14.51 35.2399 13.6152 34.5806L10.1708 35.6775C9.76313 35.8075 9.32323 35.7942 8.92417 35.6396C8.52512 35.4851 8.19092 35.1988 7.97707 34.8281L4.55707 28.92C4.34547 28.549 4.26604 28.1172 4.33178 27.6952C4.39751 27.2731 4.60452 26.8859 4.91895 26.5969L7.59082 24.1594C7.46931 23.0552 7.46931 21.941 7.59082 20.8369L4.91895 18.405C4.60408 18.1158 4.39679 17.7283 4.33104 17.3058C4.26529 16.8834 4.34499 16.4512 4.55707 16.08L7.96957 10.1681C8.18342 9.79747 8.51762 9.51111 8.91667 9.3566C9.31573 9.2021 9.75563 9.18874 10.1633 9.31875L13.6077 10.4156C14.0652 10.0781 14.5414 9.76312 15.0327 9.47812C15.5071 9.21187 15.9946 8.97 16.4933 8.75438L17.2583 5.22562C17.3494 4.80787 17.5805 4.43379 17.9133 4.1654C18.2462 3.89702 18.6608 3.75045 19.0883 3.75H25.9133C26.3409 3.75045 26.7555 3.89702 27.0883 4.1654C27.4211 4.43379 27.6522 4.80787 27.7433 5.22562L28.5158 8.75625C29.5332 9.20231 30.4979 9.76011 31.3921 10.4194L34.8383 9.3225C35.2458 9.19297 35.6852 9.20657 36.0839 9.36105C36.4825 9.51553 36.8164 9.80162 37.0302 10.1719L40.4427 16.0837C40.8777 16.8469 40.7277 17.8125 40.0808 18.4069L37.4089 20.8444C37.5304 21.9485 37.5304 23.0627 37.4089 24.1669L40.0808 26.6044C40.7277 27.2006 40.8777 28.1644 40.4427 28.9275L37.0302 34.8394C36.8163 35.21 36.4821 35.4964 36.0831 35.6509C35.684 35.8054 35.2441 35.8188 34.8364 35.6888L31.3921 34.5919C30.4979 35.2507 29.5333 35.8078 28.5158 36.2531L27.7433 39.7763C27.6519 40.1937 27.4206 40.5673 27.0878 40.8353C26.755 41.1033 26.3406 41.2496 25.9133 41.25ZM14.2883 30.4294L15.8258 31.5544C16.1727 31.8094 16.5327 32.0438 16.9077 32.2575C17.2602 32.4619 17.6202 32.6456 17.9933 32.8125L19.7427 33.5794L20.5996 37.5H24.4058L25.2627 33.5775L27.0121 32.8106C27.7752 32.4731 28.5008 32.055 29.1739 31.5619L30.7114 30.4369L34.5402 31.6556L36.4433 28.3594L33.4752 25.6537L33.6852 23.7563C33.7789 22.9256 33.7789 22.0875 33.6852 21.2588L33.4752 19.3612L36.4452 16.65L34.5402 13.3519L30.7133 14.5706L29.1739 13.4456C28.5005 12.95 27.7757 12.5283 27.0121 12.1875L25.2627 11.4206L24.4058 7.5H20.5996L19.7371 11.4225L17.9933 12.1875C17.2287 12.5224 16.5036 12.9412 15.8314 13.4362L14.2921 14.5612L10.4671 13.3425L8.5602 16.65L11.5283 19.3519L11.3183 21.2512C11.2246 22.0819 11.2246 22.92 11.3183 23.7488L11.5283 25.6463L8.5602 28.3519L10.4633 31.6481L14.2883 30.4294ZM22.4933 30C20.5042 30 18.5965 29.2098 17.19 27.8033C15.7835 26.3968 14.9933 24.4891 14.9933 22.5C14.9933 20.5109 15.7835 18.6032 17.19 17.1967C18.5965 15.7902 20.5042 15 22.4933 15C24.4824 15 26.3901 15.7902 27.7966 17.1967C29.2031 18.6032 29.9933 20.5109 29.9933 22.5C29.9933 24.4891 29.2031 26.3968 27.7966 27.8033C26.3901 29.2098 24.4824 30 22.4933 30ZM22.4933 18.75C21.759 18.7507 21.041 18.9671 20.4285 19.3721C19.816 19.7772 19.3359 20.3532 19.0478 21.0287C18.7597 21.7041 18.6762 22.4493 18.8078 23.1717C18.9393 23.8942 19.2801 24.5621 19.7878 25.0927C20.2955 25.6232 20.9478 25.993 21.6637 26.1562C22.3797 26.3194 23.1278 26.2688 23.8153 26.0107C24.5028 25.7526 25.0993 25.2983 25.5309 24.7042C25.9626 24.1101 26.2103 23.4023 26.2433 22.6688V23.4187V22.5C26.2433 21.5054 25.8482 20.5516 25.145 19.8484C24.4417 19.1451 23.4879 18.75 22.4933 18.75Z" fill="#555555"/>
</svg>
