<svg width="427" height="132" viewBox="0 0 427 132" fill="none" xmlns="http://www.w3.org/2000/svg">
<g opacity="0.2">
<mask id="path-1-inside-1_614_89" fill="white">
<path fill-rule="evenodd" clip-rule="evenodd" d="M321 114.5C321 121.05 317.402 126.759 312.075 129.759V127.82V114.5H321ZM320.823 112C320.038 106.516 316.712 101.852 312.075 99.2412V112H320.823ZM309.537 112V98.0693C307.655 97.3776 305.622 97 303.5 97C294.684 97 287.39 103.519 286.177 112H309.537ZM286 114.5C286 124.165 293.835 132 303.5 132C305.622 132 307.655 131.622 309.537 130.931V114.5H286Z"/>
</mask>
<path fill-rule="evenodd" clip-rule="evenodd" d="M321 114.5C321 121.05 317.402 126.759 312.075 129.759V127.82V114.5H321ZM320.823 112C320.038 106.516 316.712 101.852 312.075 99.2412V112H320.823ZM309.537 112V98.0693C307.655 97.3776 305.622 97 303.5 97C294.684 97 287.39 103.519 286.177 112H309.537ZM286 114.5C286 124.165 293.835 132 303.5 132C305.622 132 307.655 131.622 309.537 130.931V114.5H286Z" fill="#0000FF" fill-opacity="0.9"/>
<path d="M312.075 129.759H311.075V131.47L312.565 130.63L312.075 129.759ZM321 114.5L322 114.5L322 113.5H321V114.5ZM312.075 114.5V113.5H311.075V114.5H312.075ZM320.823 112V113H321.976L321.813 111.858L320.823 112ZM312.075 99.2412L312.565 98.3698L311.075 97.5303V99.2412H312.075ZM312.075 112H311.075V113H312.075V112ZM309.537 98.0693H310.537V97.3714L309.882 97.1307L309.537 98.0693ZM309.537 112V113H310.537V112H309.537ZM286.177 112L285.187 111.858L285.024 113H286.177V112ZM286 114.5V113.5H285L285 114.5L286 114.5ZM309.537 130.931L309.882 131.869L310.537 131.629V130.931H309.537ZM309.537 114.5H310.537V113.5H309.537V114.5ZM312.565 130.63C318.195 127.46 322 121.425 322 114.5L320 114.5C320 120.674 316.609 126.057 311.584 128.888L312.565 130.63ZM311.075 127.82V129.759H313.075V127.82H311.075ZM311.075 114.5V127.82H313.075V114.5H311.075ZM321 113.5H312.075V115.5H321V113.5ZM321.813 111.858C320.983 106.058 317.465 101.129 312.565 98.3698L311.584 100.112C315.958 102.576 319.094 106.974 319.833 112.142L321.813 111.858ZM311.075 99.2412V112H313.075V99.2412H311.075ZM312.075 113H320.823V111H312.075V113ZM308.537 98.0693V112H310.537V98.0693H308.537ZM303.5 98C305.502 98 307.419 98.3562 309.192 99.0079L309.882 97.1307C307.892 96.399 305.741 96 303.5 96V98ZM287.167 112.142C288.311 104.146 295.188 98 303.5 98V96C294.179 96 286.47 102.892 285.187 111.858L287.167 112.142ZM286.177 113H309.537V111H286.177V113ZM303.5 131C294.387 131 287 123.613 287 114.5L285 114.5C285 124.717 293.283 133 303.5 133V131ZM309.192 129.992C307.419 130.644 305.502 131 303.5 131V133C305.741 133 307.892 132.601 309.882 131.869L309.192 129.992ZM308.537 114.5V130.931H310.537V114.5H308.537ZM309.537 113.5H286V115.5H309.537V113.5Z" fill="white" mask="url(#path-1-inside-1_614_89)"/>
</g>
<g opacity="0.2">
<mask id="path-3-inside-2_614_89" fill="white">
<path fill-rule="evenodd" clip-rule="evenodd" d="M427 17.5001C427 24.0496 423.402 29.7587 418.075 32.7588V30.8199V17.5001H427ZM426.823 15.0001C426.038 9.51621 422.712 4.85248 418.075 2.24117V15.0001H426.823ZM415.537 15.0001V1.0693C413.655 0.377612 411.622 0 409.5 0C400.684 0 393.39 6.51931 392.177 15.0001H415.537ZM392 17.5001C392 27.165 399.835 35 409.5 35C411.622 35 413.655 34.6224 415.537 33.9307V17.5001H392Z"/>
</mask>
<path fill-rule="evenodd" clip-rule="evenodd" d="M427 17.5001C427 24.0496 423.402 29.7587 418.075 32.7588V30.8199V17.5001H427ZM426.823 15.0001C426.038 9.51621 422.712 4.85248 418.075 2.24117V15.0001H426.823ZM415.537 15.0001V1.0693C413.655 0.377612 411.622 0 409.5 0C400.684 0 393.39 6.51931 392.177 15.0001H415.537ZM392 17.5001C392 27.165 399.835 35 409.5 35C411.622 35 413.655 34.6224 415.537 33.9307V17.5001H392Z" fill="#0000FF" fill-opacity="0.9"/>
<path d="M418.075 32.7588H417.075V34.4697L418.565 33.6302L418.075 32.7588ZM427 17.5001L428 17.5001L428 16.5001H427V17.5001ZM418.075 17.5001V16.5001H417.075V17.5001H418.075ZM426.823 15.0001V16.0001H427.976L427.813 14.8585L426.823 15.0001ZM418.075 2.24117L418.565 1.36984L417.075 0.530334V2.24117H418.075ZM418.075 15.0001H417.075V16.0001H418.075V15.0001ZM415.537 1.0693H416.537V0.371445L415.882 0.130693L415.537 1.0693ZM415.537 15.0001V16.0001H416.537V15.0001H415.537ZM392.177 15.0001L391.187 14.8585L391.024 16.0001H392.177V15.0001ZM392 17.5001V16.5001H391L391 17.5001L392 17.5001ZM415.537 33.9307L415.882 34.8693L416.537 34.6286V33.9307H415.537ZM415.537 17.5001H416.537V16.5001H415.537V17.5001ZM418.565 33.6302C424.195 30.4601 428 24.4252 428 17.5001L426 17.5001C426 23.674 422.609 29.0574 417.584 31.8875L418.565 33.6302ZM417.075 30.8199V32.7588H419.075V30.8199H417.075ZM417.075 17.5001V30.8199H419.075V17.5001H417.075ZM427 16.5001H418.075V18.5001H427V16.5001ZM427.813 14.8585C426.983 9.05816 423.465 4.12918 418.565 1.36984L417.584 3.1125C421.958 5.57578 425.094 9.97427 425.833 15.1417L427.813 14.8585ZM417.075 2.24117V15.0001H419.075V2.24117H417.075ZM418.075 16.0001H426.823V14.0001H418.075V16.0001ZM414.537 1.0693V15.0001H416.537V1.0693H414.537ZM409.5 1C411.502 1 413.419 1.35623 415.192 2.00791L415.882 0.130693C413.892 -0.601005 411.741 -1 409.5 -1V1ZM393.167 15.1417C394.311 7.14645 401.188 1 409.5 1V-1C400.179 -1 392.47 5.89216 391.187 14.8585L393.167 15.1417ZM392.177 16.0001H415.537V14.0001H392.177V16.0001ZM409.5 34C400.387 34 393 26.6127 393 17.5001L391 17.5001C391 27.7173 399.283 36 409.5 36V34ZM415.192 32.9921C413.419 33.6438 411.502 34 409.5 34V36C411.741 36 413.892 35.601 415.882 34.8693L415.192 32.9921ZM414.537 17.5001V33.9307H416.537V17.5001H414.537ZM415.537 16.5001H392V18.5001H415.537V16.5001Z" fill="white" mask="url(#path-3-inside-2_614_89)"/>
</g>
<g opacity="0.2">
<mask id="path-5-inside-3_614_89" fill="white">
<path fill-rule="evenodd" clip-rule="evenodd" d="M424 112.5C424 119.05 420.402 124.759 415.075 127.759V125.82V112.5H424ZM423.823 110C423.038 104.516 419.712 99.8525 415.075 97.2412V110H423.823ZM412.537 110V96.0693C410.655 95.3776 408.622 95 406.5 95C397.684 95 390.39 101.519 389.177 110H412.537ZM389 112.5C389 122.165 396.835 130 406.5 130C408.622 130 410.655 129.622 412.537 128.931V112.5H389Z"/>
</mask>
<path fill-rule="evenodd" clip-rule="evenodd" d="M424 112.5C424 119.05 420.402 124.759 415.075 127.759V125.82V112.5H424ZM423.823 110C423.038 104.516 419.712 99.8525 415.075 97.2412V110H423.823ZM412.537 110V96.0693C410.655 95.3776 408.622 95 406.5 95C397.684 95 390.39 101.519 389.177 110H412.537ZM389 112.5C389 122.165 396.835 130 406.5 130C408.622 130 410.655 129.622 412.537 128.931V112.5H389Z" fill="#0000FF" fill-opacity="0.9"/>
<path d="M415.075 127.759H414.075V129.47L415.565 128.63L415.075 127.759ZM424 112.5L425 112.5L425 111.5H424V112.5ZM415.075 112.5V111.5H414.075V112.5H415.075ZM423.823 110V111H424.976L424.813 109.858L423.823 110ZM415.075 97.2412L415.565 96.3698L414.075 95.5303V97.2412H415.075ZM415.075 110H414.075V111H415.075V110ZM412.537 96.0693H413.537V95.3714L412.882 95.1307L412.537 96.0693ZM412.537 110V111H413.537V110H412.537ZM389.177 110L388.187 109.858L388.024 111H389.177V110ZM389 112.5V111.5H388L388 112.5L389 112.5ZM412.537 128.931L412.882 129.869L413.537 129.629V128.931H412.537ZM412.537 112.5H413.537V111.5H412.537V112.5ZM415.565 128.63C421.195 125.46 425 119.425 425 112.5L423 112.5C423 118.674 419.609 124.057 414.584 126.888L415.565 128.63ZM414.075 125.82V127.759H416.075V125.82H414.075ZM414.075 112.5V125.82H416.075V112.5H414.075ZM424 111.5H415.075V113.5H424V111.5ZM424.813 109.858C423.983 104.058 420.465 99.1292 415.565 96.3698L414.584 98.1125C418.958 100.576 422.094 104.974 422.833 110.142L424.813 109.858ZM414.075 97.2412V110H416.075V97.2412H414.075ZM415.075 111H423.823V109H415.075V111ZM411.537 96.0693V110H413.537V96.0693H411.537ZM406.5 96C408.502 96 410.419 96.3562 412.192 97.0079L412.882 95.1307C410.892 94.399 408.741 94 406.5 94V96ZM390.167 110.142C391.311 102.146 398.188 96 406.5 96V94C397.179 94 389.47 100.892 388.187 109.858L390.167 110.142ZM389.177 111H412.537V109H389.177V111ZM406.5 129C397.387 129 390 121.613 390 112.5L388 112.5C388 122.717 396.283 131 406.5 131V129ZM412.192 127.992C410.419 128.644 408.502 129 406.5 129V131C408.741 131 410.892 130.601 412.882 129.869L412.192 127.992ZM411.537 112.5V128.931H413.537V112.5H411.537ZM412.537 111.5H389V113.5H412.537V111.5Z" fill="white" mask="url(#path-5-inside-3_614_89)"/>
</g>
<g opacity="0.2">
<mask id="path-7-inside-4_614_89" fill="white">
<path fill-rule="evenodd" clip-rule="evenodd" d="M303.5 0C305.622 0 307.655 0.377612 309.537 1.0693V8.70011H288.37C291.403 3.49687 297.043 0 303.5 0ZM287.168 11.2001C286.414 13.1549 286 15.2791 286 17.5C286 27.165 293.835 35 303.5 35C313.165 35 321 27.165 321 17.5C321 15.2791 320.586 13.1549 319.832 11.2001H312.075V24.5199V26.6L309.537 27.65V11.2001H287.168ZM312.075 8.70011H318.63C317.06 6.00744 314.793 3.77175 312.075 2.24117V8.70011Z"/>
</mask>
<path fill-rule="evenodd" clip-rule="evenodd" d="M303.5 0C305.622 0 307.655 0.377612 309.537 1.0693V8.70011H288.37C291.403 3.49687 297.043 0 303.5 0ZM287.168 11.2001C286.414 13.1549 286 15.2791 286 17.5C286 27.165 293.835 35 303.5 35C313.165 35 321 27.165 321 17.5C321 15.2791 320.586 13.1549 319.832 11.2001H312.075V24.5199V26.6L309.537 27.65V11.2001H287.168ZM312.075 8.70011H318.63C317.06 6.00744 314.793 3.77175 312.075 2.24117V8.70011Z" fill="#0000FF" fill-opacity="0.9"/>
<path d="M309.537 1.0693H310.537V0.371445L309.882 0.130693L309.537 1.0693ZM309.537 8.70011V9.70011H310.537V8.70011H309.537ZM288.37 8.70011L287.506 8.19653L286.63 9.70011H288.37V8.70011ZM287.168 11.2001V10.2001H286.482L286.235 10.84L287.168 11.2001ZM319.832 11.2001L320.765 10.84L320.518 10.2001H319.832V11.2001ZM312.075 11.2001V10.2001H311.075V11.2001H312.075ZM312.075 26.6L312.457 27.524L313.075 27.2684V26.6H312.075ZM309.537 27.65H308.537V29.146L309.92 28.574L309.537 27.65ZM309.537 11.2001H310.537V10.2001H309.537V11.2001ZM312.075 8.70011H311.075V9.70011H312.075V8.70011ZM318.63 8.70011V9.70011H320.37L319.494 8.19653L318.63 8.70011ZM312.075 2.24117L312.565 1.36984L311.075 0.530334V2.24117H312.075ZM309.882 0.130693C307.892 -0.601005 305.741 -1 303.5 -1V1C305.502 1 307.419 1.35623 309.192 2.00791L309.882 0.130693ZM310.537 8.70011V1.0693H308.537V8.70011H310.537ZM288.37 9.70011H309.537V7.70011H288.37V9.70011ZM303.5 -1C296.673 -1 290.711 2.69858 287.506 8.19653L289.234 9.20369C292.095 4.29517 297.413 1 303.5 1V-1ZM286.235 10.84C285.437 12.9078 285 15.154 285 17.5H287C287 15.4042 287.39 13.4019 288.101 11.5602L286.235 10.84ZM285 17.5C285 27.7173 293.283 36 303.5 36V34C294.387 34 287 26.6127 287 17.5H285ZM303.5 36C313.717 36 322 27.7173 322 17.5H320C320 26.6127 312.613 34 303.5 34V36ZM322 17.5C322 15.154 321.563 12.9078 320.765 10.84L318.899 11.5602C319.61 13.4019 320 15.4042 320 17.5H322ZM319.832 10.2001H312.075V12.2001H319.832V10.2001ZM311.075 11.2001V24.5199H313.075V11.2001H311.075ZM311.075 24.5199V26.6H313.075V24.5199H311.075ZM311.692 25.676L309.155 26.726L309.92 28.574L312.457 27.524L311.692 25.676ZM310.537 27.65V11.2001H308.537V27.65H310.537ZM309.537 10.2001H287.168V12.2001H309.537V10.2001ZM312.075 9.70011H318.63V7.70011H312.075V9.70011ZM319.494 8.19653C317.835 5.35041 315.438 2.98772 312.565 1.36984L311.584 3.1125C314.147 4.55578 316.286 6.66448 317.766 9.20369L319.494 8.19653ZM311.075 2.24117V8.70011H313.075V2.24117H311.075Z" fill="white" mask="url(#path-7-inside-4_614_89)"/>
</g>
<g opacity="0.2">
<mask id="path-9-inside-5_614_89" fill="white">
<path fill-rule="evenodd" clip-rule="evenodd" d="M35 114.5C35 121.05 31.402 126.759 26.0748 129.759V127.82V114.5H35ZM34.8228 112C34.0384 106.516 30.7116 101.852 26.0748 99.2412V112H34.8228ZM23.5373 112V98.0693C21.6554 97.3776 19.6218 97 17.5 97C8.68379 97 1.39025 103.519 0.177211 112H23.5373ZM0 114.5C4.43246e-05 124.165 7.83504 132 17.5 132C19.6218 132 21.6554 131.622 23.5373 130.931V114.5H0Z"/>
</mask>
<path fill-rule="evenodd" clip-rule="evenodd" d="M35 114.5C35 121.05 31.402 126.759 26.0748 129.759V127.82V114.5H35ZM34.8228 112C34.0384 106.516 30.7116 101.852 26.0748 99.2412V112H34.8228ZM23.5373 112V98.0693C21.6554 97.3776 19.6218 97 17.5 97C8.68379 97 1.39025 103.519 0.177211 112H23.5373ZM0 114.5C4.43246e-05 124.165 7.83504 132 17.5 132C19.6218 132 21.6554 131.622 23.5373 130.931V114.5H0Z" fill="#0000FF" fill-opacity="0.9"/>
<path d="M26.0748 129.759H25.0748V131.47L26.5655 130.63L26.0748 129.759ZM35 114.5L36 114.5L36 113.5H35V114.5ZM26.0748 114.5V113.5H25.0748V114.5H26.0748ZM34.8228 112V113H35.976L35.8127 111.858L34.8228 112ZM26.0748 99.2412L26.5655 98.3698L25.0748 97.5303V99.2412H26.0748ZM26.0748 112H25.0748V113H26.0748V112ZM23.5373 98.0693H24.5373V97.3714L23.8823 97.1307L23.5373 98.0693ZM23.5373 112V113H24.5373V112H23.5373ZM0.177211 112L-0.812714 111.858L-0.976001 113H0.177211V112ZM0 114.5V113.5H-1L-1 114.5L0 114.5ZM23.5373 130.931L23.8823 131.869L24.5373 131.629V130.931H23.5373ZM23.5373 114.5H24.5373V113.5H23.5373V114.5ZM26.5655 130.63C32.1945 127.46 36 121.425 36 114.5L34 114.5C34 120.674 30.6095 126.057 25.5841 128.888L26.5655 130.63ZM25.0748 127.82V129.759H27.0748V127.82H25.0748ZM25.0748 114.5V127.82H27.0748V114.5H25.0748ZM35 113.5H26.0748V115.5H35V113.5ZM35.8127 111.858C34.9831 106.058 31.4652 101.129 26.5655 98.3698L25.5841 100.112C29.9581 102.576 33.0938 106.974 33.8329 112.142L35.8127 111.858ZM25.0748 99.2412V112H27.0748V99.2412H25.0748ZM26.0748 113H34.8228V111H26.0748V113ZM22.5373 98.0693V112H24.5373V98.0693H22.5373ZM17.5 98C19.5024 98 21.4193 98.3562 23.1923 99.0079L23.8823 97.1307C21.8915 96.399 19.7412 96 17.5 96V98ZM1.16714 112.142C2.31072 104.146 9.18844 98 17.5 98V96C8.17915 96 0.469775 102.892 -0.812714 111.858L1.16714 112.142ZM0.177211 113H23.5373V111H0.177211V113ZM17.5 131C8.38733 131 1.00004 123.613 1 114.5L-1 114.5C-0.999953 124.717 7.28276 133 17.5 133V131ZM23.1923 129.992C21.4193 130.644 19.5024 131 17.5 131V133C19.7412 133 21.8915 132.601 23.8823 131.869L23.1923 129.992ZM22.5373 114.5V130.931H24.5373V114.5H22.5373ZM23.5373 113.5H0V115.5H23.5373V113.5Z" fill="white" mask="url(#path-9-inside-5_614_89)"/>
</g>
<g opacity="0.2">
<mask id="path-11-inside-6_614_89" fill="white">
<path fill-rule="evenodd" clip-rule="evenodd" d="M141 17.5001C141 24.0496 137.402 29.7587 132.075 32.7588V30.8199V17.5001H141ZM140.823 15.0001C140.038 9.51621 136.712 4.85248 132.075 2.24117V15.0001H140.823ZM129.537 15.0001V1.0693C127.655 0.377612 125.622 0 123.5 0C114.684 0 107.39 6.51931 106.177 15.0001H129.537ZM106 17.5001C106 27.165 113.835 35 123.5 35C125.622 35 127.655 34.6224 129.537 33.9307V17.5001H106Z"/>
</mask>
<path fill-rule="evenodd" clip-rule="evenodd" d="M141 17.5001C141 24.0496 137.402 29.7587 132.075 32.7588V30.8199V17.5001H141ZM140.823 15.0001C140.038 9.51621 136.712 4.85248 132.075 2.24117V15.0001H140.823ZM129.537 15.0001V1.0693C127.655 0.377612 125.622 0 123.5 0C114.684 0 107.39 6.51931 106.177 15.0001H129.537ZM106 17.5001C106 27.165 113.835 35 123.5 35C125.622 35 127.655 34.6224 129.537 33.9307V17.5001H106Z" fill="#0000FF" fill-opacity="0.9"/>
<path d="M132.075 32.7588H131.075V34.4697L132.565 33.6302L132.075 32.7588ZM141 17.5001L142 17.5001L142 16.5001H141V17.5001ZM132.075 17.5001V16.5001H131.075V17.5001H132.075ZM140.823 15.0001V16.0001H141.976L141.813 14.8585L140.823 15.0001ZM132.075 2.24117L132.565 1.36984L131.075 0.530334V2.24117H132.075ZM132.075 15.0001H131.075V16.0001H132.075V15.0001ZM129.537 1.0693H130.537V0.371445L129.882 0.130693L129.537 1.0693ZM129.537 15.0001V16.0001H130.537V15.0001H129.537ZM106.177 15.0001L105.187 14.8585L105.024 16.0001H106.177V15.0001ZM106 17.5001V16.5001H105L105 17.5001L106 17.5001ZM129.537 33.9307L129.882 34.8693L130.537 34.6286V33.9307H129.537ZM129.537 17.5001H130.537V16.5001H129.537V17.5001ZM132.565 33.6302C138.195 30.4601 142 24.4252 142 17.5001L140 17.5001C140 23.674 136.609 29.0574 131.584 31.8875L132.565 33.6302ZM131.075 30.8199V32.7588H133.075V30.8199H131.075ZM131.075 17.5001V30.8199H133.075V17.5001H131.075ZM141 16.5001H132.075V18.5001H141V16.5001ZM141.813 14.8585C140.983 9.05816 137.465 4.12918 132.565 1.36984L131.584 3.1125C135.958 5.57578 139.094 9.97427 139.833 15.1417L141.813 14.8585ZM131.075 2.24117V15.0001H133.075V2.24117H131.075ZM132.075 16.0001H140.823V14.0001H132.075V16.0001ZM128.537 1.0693V15.0001H130.537V1.0693H128.537ZM123.5 1C125.502 1 127.419 1.35623 129.192 2.00791L129.882 0.130693C127.892 -0.601005 125.741 -1 123.5 -1V1ZM107.167 15.1417C108.311 7.14645 115.188 1 123.5 1V-1C114.179 -1 106.47 5.89216 105.187 14.8585L107.167 15.1417ZM106.177 16.0001H129.537V14.0001H106.177V16.0001ZM123.5 34C114.387 34 107 26.6127 107 17.5001L105 17.5001C105 27.7173 113.283 36 123.5 36V34ZM129.192 32.9921C127.419 33.6438 125.502 34 123.5 34V36C125.741 36 127.892 35.601 129.882 34.8693L129.192 32.9921ZM128.537 17.5001V33.9307H130.537V17.5001H128.537ZM129.537 16.5001H106V18.5001H129.537V16.5001Z" fill="white" mask="url(#path-11-inside-6_614_89)"/>
</g>
<g opacity="0.2">
<mask id="path-13-inside-7_614_89" fill="white">
<path fill-rule="evenodd" clip-rule="evenodd" d="M138 112.5C138 119.05 134.402 124.759 129.075 127.759V125.82V112.5H138ZM137.823 110C137.038 104.516 133.712 99.8525 129.075 97.2412V110H137.823ZM126.537 110V96.0693C124.655 95.3776 122.622 95 120.5 95C111.684 95 104.39 101.519 103.177 110H126.537ZM103 112.5C103 122.165 110.835 130 120.5 130C122.622 130 124.655 129.622 126.537 128.931V112.5H103Z"/>
</mask>
<path fill-rule="evenodd" clip-rule="evenodd" d="M138 112.5C138 119.05 134.402 124.759 129.075 127.759V125.82V112.5H138ZM137.823 110C137.038 104.516 133.712 99.8525 129.075 97.2412V110H137.823ZM126.537 110V96.0693C124.655 95.3776 122.622 95 120.5 95C111.684 95 104.39 101.519 103.177 110H126.537ZM103 112.5C103 122.165 110.835 130 120.5 130C122.622 130 124.655 129.622 126.537 128.931V112.5H103Z" fill="#0000FF" fill-opacity="0.9"/>
<path d="M129.075 127.759H128.075V129.47L129.565 128.63L129.075 127.759ZM138 112.5L139 112.5L139 111.5H138V112.5ZM129.075 112.5V111.5H128.075V112.5H129.075ZM137.823 110V111H138.976L138.813 109.858L137.823 110ZM129.075 97.2412L129.565 96.3698L128.075 95.5303V97.2412H129.075ZM129.075 110H128.075V111H129.075V110ZM126.537 96.0693H127.537V95.3714L126.882 95.1307L126.537 96.0693ZM126.537 110V111H127.537V110H126.537ZM103.177 110L102.187 109.858L102.024 111H103.177V110ZM103 112.5V111.5H102L102 112.5L103 112.5ZM126.537 128.931L126.882 129.869L127.537 129.629V128.931H126.537ZM126.537 112.5H127.537V111.5H126.537V112.5ZM129.565 128.63C135.195 125.46 139 119.425 139 112.5L137 112.5C137 118.674 133.609 124.057 128.584 126.888L129.565 128.63ZM128.075 125.82V127.759H130.075V125.82H128.075ZM128.075 112.5V125.82H130.075V112.5H128.075ZM138 111.5H129.075V113.5H138V111.5ZM138.813 109.858C137.983 104.058 134.465 99.1292 129.565 96.3698L128.584 98.1125C132.958 100.576 136.094 104.974 136.833 110.142L138.813 109.858ZM128.075 97.2412V110H130.075V97.2412H128.075ZM129.075 111H137.823V109H129.075V111ZM125.537 96.0693V110H127.537V96.0693H125.537ZM120.5 96C122.502 96 124.419 96.3562 126.192 97.0079L126.882 95.1307C124.892 94.399 122.741 94 120.5 94V96ZM104.167 110.142C105.311 102.146 112.188 96 120.5 96V94C111.179 94 103.47 100.892 102.187 109.858L104.167 110.142ZM103.177 111H126.537V109H103.177V111ZM120.5 129C111.387 129 104 121.613 104 112.5L102 112.5C102 122.717 110.283 131 120.5 131V129ZM126.192 127.992C124.419 128.644 122.502 129 120.5 129V131C122.741 131 124.892 130.601 126.882 129.869L126.192 127.992ZM125.537 112.5V128.931H127.537V112.5H125.537ZM126.537 111.5H103V113.5H126.537V111.5Z" fill="white" mask="url(#path-13-inside-7_614_89)"/>
</g>
<g opacity="0.2">
<mask id="path-15-inside-8_614_89" fill="white">
<path fill-rule="evenodd" clip-rule="evenodd" d="M17.5 0C19.6218 0 21.6554 0.377612 23.5373 1.0693V8.70011H2.37016C5.40303 3.49687 11.0431 0 17.5 0ZM1.16824 11.2001C0.4137 13.1549 0 15.2791 0 17.5C0 27.165 7.83502 35 17.5 35C27.165 35 35 27.165 35 17.5C35 15.2791 34.5863 13.1549 33.8318 11.2001H26.0748V24.5199V26.6L23.5373 27.65V11.2001H1.16824ZM26.0748 8.70011H32.6298C31.0603 6.00744 28.7926 3.77175 26.0748 2.24117V8.70011Z"/>
</mask>
<path fill-rule="evenodd" clip-rule="evenodd" d="M17.5 0C19.6218 0 21.6554 0.377612 23.5373 1.0693V8.70011H2.37016C5.40303 3.49687 11.0431 0 17.5 0ZM1.16824 11.2001C0.4137 13.1549 0 15.2791 0 17.5C0 27.165 7.83502 35 17.5 35C27.165 35 35 27.165 35 17.5C35 15.2791 34.5863 13.1549 33.8318 11.2001H26.0748V24.5199V26.6L23.5373 27.65V11.2001H1.16824ZM26.0748 8.70011H32.6298C31.0603 6.00744 28.7926 3.77175 26.0748 2.24117V8.70011Z" fill="#0000FF" fill-opacity="0.9"/>
<path d="M23.5373 1.0693H24.5373V0.371445L23.8823 0.130693L23.5373 1.0693ZM23.5373 8.70011V9.70011H24.5373V8.70011H23.5373ZM2.37016 8.70011L1.50621 8.19653L0.629799 9.70011H2.37016V8.70011ZM1.16824 11.2001V10.2001H0.482328L0.235328 10.84L1.16824 11.2001ZM33.8318 11.2001L34.7647 10.84L34.5177 10.2001H33.8318V11.2001ZM26.0748 11.2001V10.2001H25.0748V11.2001H26.0748ZM26.0748 26.6L26.4571 27.524L27.0748 27.2684V26.6H26.0748ZM23.5373 27.65H22.5373V29.146L23.9196 28.574L23.5373 27.65ZM23.5373 11.2001H24.5373V10.2001H23.5373V11.2001ZM26.0748 8.70011H25.0748V9.70011H26.0748V8.70011ZM32.6298 8.70011V9.70011H34.3702L33.4938 8.19653L32.6298 8.70011ZM26.0748 2.24117L26.5655 1.36984L25.0748 0.530334V2.24117H26.0748ZM23.8823 0.130693C21.8915 -0.601005 19.7412 -1 17.5 -1V1C19.5024 1 21.4193 1.35623 23.1923 2.00791L23.8823 0.130693ZM24.5373 8.70011V1.0693H22.5373V8.70011H24.5373ZM2.37016 9.70011H23.5373V7.70011H2.37016V9.70011ZM17.5 -1C10.6729 -1 4.71086 2.69858 1.50621 8.19653L3.23411 9.20369C6.09519 4.29517 11.4134 1 17.5 1V-1ZM0.235328 10.84C-0.562853 12.9078 -1 15.154 -1 17.5H1C1 15.4042 1.39025 13.4019 2.10115 11.5602L0.235328 10.84ZM-1 17.5C-1 27.7173 7.28273 36 17.5 36V34C8.3873 34 1 26.6127 1 17.5H-1ZM17.5 36C27.7173 36 36 27.7173 36 17.5H34C34 26.6127 26.6127 34 17.5 34V36ZM36 17.5C36 15.154 35.5629 12.9078 34.7647 10.84L32.8988 11.5602C33.6097 13.4019 34 15.4042 34 17.5H36ZM33.8318 10.2001H26.0748V12.2001H33.8318V10.2001ZM25.0748 11.2001V24.5199H27.0748V11.2001H25.0748ZM25.0748 24.5199V26.6H27.0748V24.5199H25.0748ZM25.6924 25.676L23.1549 26.726L23.9196 28.574L26.4571 27.524L25.6924 25.676ZM24.5373 27.65V11.2001H22.5373V27.65H24.5373ZM23.5373 10.2001H1.16824V12.2001H23.5373V10.2001ZM26.0748 9.70011H32.6298V7.70011H26.0748V9.70011ZM33.4938 8.19653C31.8348 5.35041 29.4383 2.98772 26.5655 1.36984L25.5841 3.1125C28.1469 4.55578 30.2858 6.66448 31.7659 9.20369L33.4938 8.19653ZM25.0748 2.24117V8.70011H27.0748V2.24117H25.0748Z" fill="white" mask="url(#path-15-inside-8_614_89)"/>
</g>
</svg>
