<svg width="16" height="16" viewBox="0 0 17 18" fill="none" xmlns="http://www.w3.org/2000/svg">
<path d="M9.5 16.7625C9.5 17.2388 9.11289 17.6295 8.63892 17.5819C7.41826 17.4594 6.23427 17.0776 5.16775 16.458C3.8519 15.6937 2.7617 14.5948 2.00781 13.2729C1.25392 11.951 0.863191 10.4532 0.875272 8.93153C0.887353 7.40983 1.30182 5.91842 2.0766 4.60868C2.85138 3.29893 3.95889 2.21749 5.28671 1.47412C6.61453 0.730756 8.11539 0.351926 9.63694 0.376087C11.1585 0.400249 12.6466 0.826542 13.9501 1.61169C15.0067 2.24808 15.9115 3.10184 16.6067 4.11268C16.8766 4.50517 16.7207 5.03254 16.3032 5.26193C15.8857 5.49132 15.3655 5.33486 15.0858 4.94924C14.5439 4.202 13.8558 3.56862 13.0601 3.08936C12.0173 2.46123 10.8268 2.1202 9.60956 2.10087C8.39231 2.08154 7.19162 2.3846 6.12937 2.9793C5.06711 3.57399 4.1811 4.43915 3.56128 5.48694C2.94145 6.53473 2.60988 7.72786 2.60022 8.94522C2.59055 10.1626 2.90314 11.3608 3.50625 12.4183C4.10936 13.4758 4.98152 14.3549 6.0342 14.9664C6.8374 15.433 7.72388 15.7311 8.63973 15.8462C9.11236 15.9056 9.5 16.2862 9.5 16.7625Z" fill="white"/>
</svg>
