<svg width="54" height="53" viewBox="0 0 54 53" fill="none" xmlns="http://www.w3.org/2000/svg">
<rect width="54" height="53" rx="10" fill="#E6E6FF"/>
<path fill-rule="evenodd" clip-rule="evenodd" d="M33.25 22C33.25 25.4519 30.4519 28.25 27 28.25C23.5481 28.25 20.75 25.4519 20.75 22C20.75 18.5481 23.5481 15.75 27 15.75C30.4519 15.75 33.25 18.5481 33.25 22ZM32 22C32 23.3261 31.4732 24.5979 30.5355 25.5355C29.5979 26.4732 28.3261 27 27 27C25.6739 27 24.4021 26.4732 23.4645 25.5355C22.5268 24.5979 22 23.3261 22 22C22 20.6739 22.5268 19.4021 23.4645 18.4645C24.4021 17.5268 25.6739 17 27 17C28.3261 17 29.5979 17.5268 30.5355 18.4645C31.4732 19.4021 32 20.6739 32 22ZM23.1962 30.0344L23.2031 30.0481L23.25 30.14H30.5931C30.7362 29.8688 31.0606 29.4363 31.375 29.5081C32.0812 29.6688 32.7925 29.8925 33.4756 30.1681L33.4963 30.1581L33.5031 30.1719L33.5081 30.1812C36.08 31.2262 38.25 32.9975 38.25 34.8563V38.25H15.75V34.8563C15.75 32.4969 19.2475 30.2769 22.625 29.5081C22.9006 29.4456 23.0644 29.7706 23.1962 30.0344ZM32.44 31.1144C32.1719 31.0205 31.9007 30.9357 31.6269 30.86L31.3481 31.39H22.4956L22.2369 30.8981L22.0119 30.9656C22.0075 31.0069 22.0038 31.0531 22.0019 31.1056C21.9938 31.3212 22.01 31.5769 22.0456 31.8369C22.0822 32.108 22.1407 32.3758 22.2206 32.6375C22.6597 32.6895 23.0662 32.895 23.3684 33.2177C23.6707 33.5403 23.8492 33.9594 23.8724 34.4009C23.8957 34.8424 23.7622 35.2779 23.4955 35.6305C23.2288 35.9832 22.846 36.2302 22.4149 36.328C21.9837 36.4258 21.5319 36.3681 21.1391 36.1651C20.7464 35.9622 20.438 35.6269 20.2684 35.2186C20.0988 34.8103 20.079 34.3552 20.2124 33.9337C20.3458 33.5122 20.6239 33.1514 20.9975 32.915L20.9925 32.8975C20.9092 32.6053 20.8472 32.3074 20.8069 32.0062C20.7804 31.8138 20.7628 31.6203 20.7544 31.4263C19.9819 31.7563 19.2613 32.155 18.6575 32.595C17.4563 33.4725 17 34.2925 17 34.8563V37H37V34.8563C37 34.2919 36.5437 33.4719 35.3425 32.5956C34.8187 32.219 34.2609 31.8922 33.6763 31.6194C33.6508 31.9581 33.599 32.2943 33.5212 32.625H33.875C33.991 32.6251 34.1048 32.6574 34.2035 32.7185C34.3021 32.7795 34.3819 32.8668 34.4338 32.9706L35.0588 34.2206C35.1025 34.3075 35.125 34.4031 35.125 34.5V35.75C35.125 35.9158 35.0592 36.0747 34.9419 36.1919C34.8247 36.3092 34.6658 36.375 34.5 36.375H33.25V35.125H33.875V34.6475L33.4888 33.875H31.7612L31.375 34.6475V35.125H32V36.375H30.75C30.5842 36.375 30.4253 36.3092 30.3081 36.1919C30.1908 36.0747 30.125 35.9158 30.125 35.75V34.5C30.125 34.4031 30.1475 34.3075 30.1913 34.2206L30.8163 32.9706C30.8681 32.8668 30.9479 32.7795 31.0465 32.7185C31.1452 32.6574 31.259 32.6251 31.375 32.625H32.2262C32.2337 32.6 32.2419 32.575 32.2494 32.5475C32.3081 32.3469 32.3606 32.0975 32.3962 31.8375C32.4312 31.58 32.4475 31.3281 32.44 31.1144ZM22.625 34.5C22.625 34.8587 22.3362 35.1344 22 35.1344C21.6638 35.1344 21.375 34.8594 21.375 34.5C21.375 34.1413 21.6638 33.8656 22 33.8656C22.3362 33.8656 22.625 34.1406 22.625 34.5Z" fill="#0000FF"/>
</svg>
