<svg width="54" height="53" viewBox="0 0 54 53" fill="none" xmlns="http://www.w3.org/2000/svg">
<rect width="54" height="53" rx="10" fill="#EB996E" fill-opacity="0.1"/>
<path d="M17.625 16.6249C17.625 15.6303 18.0201 14.6765 18.7233 13.9732C19.4266 13.27 20.3804 12.8749 21.375 12.8749C22.3696 12.8749 23.3234 13.27 24.0267 13.9732C24.7299 14.6765 25.125 15.6303 25.125 16.6249C25.125 17.6195 24.7299 18.5733 24.0267 19.2765C23.3234 19.9798 22.3696 20.3749 21.375 20.3749C20.3804 20.3749 19.4266 19.9798 18.7233 19.2765C18.0201 18.5733 17.625 17.6195 17.625 16.6249ZM21.375 14.7499C20.8777 14.7499 20.4008 14.9474 20.0492 15.2991C19.6975 15.6507 19.5 16.1276 19.5 16.6249C19.5 17.1222 19.6975 17.5991 20.0492 17.9507C20.4008 18.3024 20.8777 18.4999 21.375 18.4999C21.8723 18.4999 22.3492 18.3024 22.7008 17.9507C23.0525 17.5991 23.25 17.1222 23.25 16.6249C23.25 16.1276 23.0525 15.6507 22.7008 15.2991C22.3492 14.9474 21.8723 14.7499 21.375 14.7499ZM30.3356 19.5949C29.9428 19.2953 29.6131 18.921 29.3653 18.4935C29.1176 18.066 28.9568 17.5938 28.8922 17.104C28.8275 16.6142 28.8603 16.1164 28.9886 15.6393C29.1169 15.1622 29.3383 14.7152 29.6399 14.3239C29.9415 13.9326 30.3175 13.6047 30.7462 13.3592C31.1749 13.1137 31.648 12.9552 32.1381 12.8931C32.6282 12.8309 33.1258 12.8662 33.6022 12.997C34.0787 13.1277 34.5246 13.3513 34.9144 13.6549C35.6818 14.2688 36.1776 15.1594 36.295 16.1351C36.4125 17.1108 36.1422 18.0936 35.5424 18.8721C34.9426 19.6505 34.0611 20.1624 33.0877 20.2976C32.1143 20.4328 31.1267 20.1805 30.3375 19.5949H30.3356ZM32.625 14.7499C32.1277 14.7499 31.6508 14.9474 31.2992 15.2991C30.9475 15.6507 30.75 16.1276 30.75 16.6249C30.75 17.1222 30.9475 17.5991 31.2992 17.9507C31.6508 18.3024 32.1277 18.4999 32.625 18.4999C33.1223 18.4999 33.5992 18.3024 33.9508 17.9507C34.3025 17.5991 34.5 17.1222 34.5 16.6249C34.5 16.1276 34.3025 15.6507 33.9508 15.2991C33.5992 14.9474 33.1223 14.7499 32.625 14.7499ZM16.6875 22.2499H21.6938C21.4875 22.8368 21.375 23.4686 21.375 24.1249H16.6875C16.4389 24.1249 16.2004 24.2237 16.0246 24.3995C15.8488 24.5753 15.75 24.8138 15.75 25.0624C15.75 26.5943 16.3594 27.7305 17.3213 28.503C17.7638 28.8593 18.2944 29.1461 18.8944 29.3561C18.4538 29.8245 18.1142 30.3785 17.8969 30.9836C17.2675 30.7308 16.6782 30.3879 16.1475 29.9655C14.7375 28.8311 13.875 27.1549 13.875 25.0624C13.875 24.3165 14.1713 23.6011 14.6988 23.0737C15.2262 22.5462 15.9416 22.2499 16.6875 22.2499ZM23.7525 22.2499C23.2552 23.1117 23.1206 24.1357 23.3784 25.0967C23.6361 26.0577 24.2651 26.877 25.1269 27.3743C25.9887 27.8716 27.0127 28.0061 27.9737 27.7484C28.9347 27.4906 29.754 26.8617 30.2513 25.9999C30.7485 25.1381 30.8831 24.1141 30.6254 23.1531C30.3676 22.1921 29.7387 21.3728 28.8769 20.8755C28.0151 20.3782 26.9911 20.2437 26.03 20.5014C25.069 20.7592 24.2498 21.3881 23.7525 22.2499ZM26.58 22.2968C26.8547 22.2347 27.1399 22.2352 27.4144 22.2981C27.6889 22.361 27.9458 22.4847 28.1661 22.6602C28.3864 22.8357 28.5645 23.0584 28.6872 23.3119C28.8099 23.5654 28.8741 23.8433 28.875 24.1249C28.8749 24.4777 28.7752 24.8233 28.5874 25.122C28.3997 25.4206 28.1315 25.6603 27.8137 25.8134C27.4958 25.9665 27.1412 26.0268 26.7906 25.9874C26.4401 25.948 26.1077 25.8105 25.8318 25.5907C25.5558 25.3709 25.3475 25.0777 25.2307 24.7448C25.1139 24.4119 25.0934 24.0528 25.1716 23.7088C25.2497 23.3648 25.4233 23.0498 25.6725 22.8C25.9216 22.5502 26.2362 22.3758 26.58 22.2968ZM36.6787 28.503C36.2362 28.8593 35.7056 29.1461 35.1056 29.3561C35.5456 29.8247 35.8845 30.3786 36.1012 30.9836C36.7388 30.723 37.3294 30.3836 37.8525 29.9655C39.2625 28.8311 40.125 27.1549 40.125 25.0624C40.125 24.3165 39.8287 23.6011 39.3012 23.0737C38.7738 22.5462 38.0584 22.2499 37.3125 22.2499H32.3062C32.5125 22.8368 32.625 23.4686 32.625 24.1249H37.3125C37.5611 24.1249 37.7996 24.2237 37.9754 24.3995C38.1512 24.5753 38.25 24.8138 38.25 25.0624C38.25 26.5943 37.6406 27.7305 36.6787 28.503ZM31.6875 29.7499C32.4334 29.7499 33.1488 30.0462 33.6762 30.5737C34.2037 31.1011 34.5 31.8165 34.5 32.5624C34.5 34.6549 33.6394 36.3311 32.2275 37.4655C30.8381 38.5811 28.9744 39.1249 27 39.1249C25.0256 39.1249 23.1619 38.5811 21.7725 37.4655C20.3625 36.3311 19.5 34.6549 19.5 32.5624C19.499 32.1928 19.5711 31.8266 19.7121 31.4849C19.8531 31.1433 20.0602 30.8328 20.3216 30.5715C20.5829 30.3101 20.8934 30.103 21.235 29.962C21.5767 29.821 21.9429 29.7489 22.3125 29.7499H31.6875ZM31.6875 31.6249H22.3125C22.0639 31.6249 21.8254 31.7237 21.6496 31.8995C21.4738 32.0753 21.375 32.3138 21.375 32.5624C21.375 34.0943 21.9844 35.2305 22.9462 36.003C23.9325 36.7943 25.35 37.2499 27 37.2499C28.65 37.2499 30.0675 36.7943 31.0537 36.003C32.0156 35.2305 32.625 34.0943 32.625 32.5624C32.625 32.3138 32.5262 32.0753 32.3504 31.8995C32.1746 31.7237 31.9361 31.6249 31.6875 31.6249Z" fill="#EB996E"/>
</svg>
