<svg width="56" height="64" viewBox="0 0 56 64" fill="none" xmlns="http://www.w3.org/2000/svg">
<path d="M28.008 2.56797C28.4796 1.89178 29.0856 1.32005 29.788 0.888437C30.4904 0.456827 31.2742 0.174605 32.0906 0.0593796C32.9069 -0.0558456 33.7382 -0.00160122 34.5327 0.218729C35.3271 0.439058 36.0676 0.820745 36.708 1.33997L49.788 11.96C50.9567 12.9084 51.7263 14.2614 51.9441 15.7506C52.162 17.2399 51.8121 18.7566 50.964 20H46.084L47.644 17.764C47.9344 17.3498 48.057 16.841 47.9873 16.34C47.9175 15.839 47.6605 15.3831 47.268 15.064L40.532 9.59997L33.348 20H28.48L37.416 7.07197L34.184 4.44797C33.9706 4.27483 33.7239 4.14751 33.4591 4.07397C33.1943 4.00042 32.9173 3.98222 32.6452 4.0205C32.3731 4.05878 32.1118 4.15273 31.8776 4.29647C31.6434 4.44022 31.4413 4.63068 31.284 4.85597L20.72 19.996H15.84L28.008 2.56797ZM42 44C41.4696 44 40.9609 44.2107 40.5858 44.5858C40.2107 44.9608 40 45.4695 40 46C40 46.5304 40.2107 47.0391 40.5858 47.4142C40.9609 47.7893 41.4696 48 42 48H46C46.5304 48 47.0391 47.7893 47.4142 47.4142C47.7893 47.0391 48 46.5304 48 46C48 45.4695 47.7893 44.9608 47.4142 44.5858C47.0391 44.2107 46.5304 44 46 44H42ZM6 16H14.676L11.876 20H6C5.46957 20 4.96086 20.2107 4.58579 20.5858C4.21071 20.9608 4 21.4695 4 22C4 22.5304 4.21071 23.0391 4.58579 23.4142C4.96086 23.7893 5.46957 24 6 24H48C50.1217 24 52.1566 24.8428 53.6569 26.3431C55.1571 27.8434 56 29.8782 56 32V56C56 58.1217 55.1571 60.1565 53.6569 61.6568C52.1566 63.1571 50.1217 64 48 64H10C7.34784 64 4.8043 62.9464 2.92893 61.071C1.05357 59.1957 0 56.6521 0 54V22C0 20.4087 0.632141 18.8825 1.75736 17.7573C2.88258 16.6321 4.4087 16 6 16ZM4 54C4 55.5913 4.63214 57.1174 5.75736 58.2426C6.88258 59.3678 8.4087 60 10 60H48C49.0609 60 50.0783 59.5785 50.8284 58.8284C51.5786 58.0783 52 57.0608 52 56V32C52 30.9391 51.5786 29.9217 50.8284 29.1715C50.0783 28.4214 49.0609 28 48 28H6C5.3 28 4.624 27.88 4 27.66V54Z" fill="#0000FF"/>
</svg>
