<svg width="61" height="57" viewBox="0 0 61 57" fill="none" xmlns="http://www.w3.org/2000/svg">
<rect x="0.988281" y="0.815186" width="59.4382" height="55.8491" rx="5.94382" fill="#8EDB87"/>
<path d="M25.3571 27.0641C25.3571 26.1754 25.7329 25.3231 26.4017 24.6947C27.0705 24.0662 27.9776 23.7132 28.9234 23.7132C29.8693 23.7132 30.7764 24.0662 31.4452 24.6947C32.114 25.3231 32.4897 26.1754 32.4897 27.0641C32.4897 27.9529 32.114 28.8052 31.4452 29.4336C30.7764 30.062 29.8693 30.4151 28.9234 30.4151C27.9776 30.4151 27.0705 30.062 26.4017 29.4336C25.7329 28.8052 25.3571 27.9529 25.3571 27.0641ZM28.9234 25.3887C28.4505 25.3887 27.997 25.5652 27.6626 25.8794C27.3281 26.1936 27.1403 26.6198 27.1403 27.0641C27.1403 27.5085 27.3281 27.9347 27.6626 28.2489C27.997 28.5631 28.4505 28.7396 28.9234 28.7396C29.3963 28.7396 29.8499 28.5631 30.1843 28.2489C30.5187 27.9347 30.7066 27.5085 30.7066 27.0641C30.7066 26.6198 30.5187 26.1936 30.1843 25.8794C29.8499 25.5652 29.3963 25.3887 28.9234 25.3887ZM19.1161 18.6868C18.4067 18.6868 17.7264 18.9516 17.2248 19.4229C16.7232 19.8942 16.4414 20.5334 16.4414 21.2V32.9283C16.4414 33.5948 16.7232 34.2341 17.2248 34.7054C17.7264 35.1767 18.4067 35.4415 19.1161 35.4415H38.7307C39.4401 35.4415 40.1204 35.1767 40.622 34.7054C41.1237 34.2341 41.4055 33.5948 41.4055 32.9283V21.2C41.4055 20.5334 41.1237 19.8942 40.622 19.4229C40.1204 18.9516 39.4401 18.6868 38.7307 18.6868H19.1161ZM18.2246 21.2C18.2246 20.9778 18.3185 20.7647 18.4857 20.6076C18.6529 20.4505 18.8797 20.3622 19.1161 20.3622H21.7908V22.0377C21.7908 22.4821 21.603 22.9082 21.2686 23.2224C20.9342 23.5367 20.4806 23.7132 20.0077 23.7132H18.2246V21.2ZM18.2246 25.3887H20.0077C20.9535 25.3887 21.8606 25.0356 22.5294 24.4072C23.1983 23.7788 23.574 22.9264 23.574 22.0377V20.3622H34.2729V22.0377C34.2729 22.9264 34.6486 23.7788 35.3174 24.4072C35.9862 25.0356 36.8933 25.3887 37.8392 25.3887H39.6223V28.7396H37.8392C36.8933 28.7396 35.9862 29.0926 35.3174 29.7211C34.6486 30.3495 34.2729 31.2018 34.2729 32.0905V33.766H23.574V32.0905C23.574 31.2018 23.1983 30.3495 22.5294 29.7211C21.8606 29.0926 20.9535 28.7396 20.0077 28.7396H18.2246V25.3887ZM36.056 20.3622H38.7307C38.9672 20.3622 39.194 20.4505 39.3612 20.6076C39.5284 20.7647 39.6223 20.9778 39.6223 21.2V23.7132H37.8392C37.3662 23.7132 36.9127 23.5367 36.5783 23.2224C36.2439 22.9082 36.056 22.4821 36.056 22.0377V20.3622ZM39.6223 30.4151V32.9283C39.6223 33.1505 39.5284 33.3635 39.3612 33.5206C39.194 33.6778 38.9672 33.766 38.7307 33.766H36.056V32.0905C36.056 31.6462 36.2439 31.22 36.5783 30.9058C36.9127 30.5916 37.3662 30.4151 37.8392 30.4151H39.6223ZM21.7908 33.766H19.1161C18.8797 33.766 18.6529 33.6778 18.4857 33.5206C18.3185 33.3635 18.2246 33.1505 18.2246 32.9283V30.4151H20.0077C20.4806 30.4151 20.9342 30.5916 21.2686 30.9058C21.603 31.22 21.7908 31.6462 21.7908 32.0905V33.766ZM43.1886 32.9283C43.1886 34.0392 42.7189 35.1046 41.8829 35.8901C41.0469 36.6757 39.913 37.117 38.7307 37.117H20.1593C20.3437 37.6072 20.6854 38.0315 21.1373 38.3316C21.5892 38.6317 22.1291 38.7927 22.6824 38.7924H38.7307C40.386 38.7924 41.9734 38.1746 43.1438 37.0749C44.3142 35.9751 44.9717 34.4835 44.9717 32.9283V24.5509C44.972 24.031 44.8007 23.5237 44.4813 23.0991C44.162 22.6745 43.7103 22.3534 43.1886 22.1801V32.9283Z" fill="white"/>
</svg>
