<svg width="46" height="64" viewBox="0 0 46 64" fill="none" xmlns="http://www.w3.org/2000/svg">
<path d="M31.8061 32.7H28.6701L27.9561 30.544C32.8071 28.794 36.3001 24.153 36.3001 18.7V13.1C36.3001 6.149 30.6441 0.5 23.7001 0.5H22.3001C15.3491 0.5 9.7001 6.149 9.7001 13.1V18.7C9.7001 24.153 13.1861 28.794 18.0371 30.544L17.3231 32.7H14.1941C6.6971 32.7 0.600098 38.965 0.600098 46.665V59.153C0.600098 61.547 2.4411 63.5 4.7091 63.5H41.2911C43.5521 63.5 45.4001 61.547 45.4001 59.153V46.665C45.4001 38.965 39.2961 32.7 31.8061 32.7ZM22.3001 3.3H23.7001C24.4141 3.3 25.1141 3.384 25.7861 3.531C25.6601 8.823 21.3271 13.1 16.0001 13.1H12.5001C12.5001 7.696 16.8961 3.3 22.3001 3.3ZM12.5001 18.7V15.9H16.0001C22.5101 15.9 27.8861 10.93 28.5301 4.588C31.4911 6.275 33.5001 9.453 33.5001 13.1V18.7C33.5001 24.104 29.1041 28.5 23.7001 28.5H22.3001C16.8961 28.5 12.5001 24.104 12.5001 18.7ZM21.6001 60.7H4.7091C3.9881 60.7 3.4001 60.007 3.4001 59.153V46.665C3.4001 41.618 6.6481 37.348 11.1001 35.969V43.403C9.0771 44.012 7.6001 45.881 7.6001 48.1V51.6C7.6001 52.37 8.2231 53 9.0001 53C9.7701 53 10.4001 52.37 10.4001 51.6V48.1C10.4001 46.938 11.3381 46 12.5001 46C13.6551 46 14.6001 46.938 14.6001 48.1V51.6C14.6001 52.37 15.2231 53 16.0001 53C16.7701 53 17.4001 52.37 17.4001 51.6V48.1C17.4001 45.881 15.9161 44.012 13.9001 43.403V35.514C13.9981 35.514 14.0891 35.5 14.1941 35.5H16.8891C16.9521 35.605 17.0221 35.703 17.1061 35.787L21.6001 40.281V60.7ZM19.6961 34.422L20.7741 31.195C21.2711 31.258 21.7821 31.3 22.3001 31.3H23.7001C24.2111 31.3 24.7221 31.258 25.2191 31.195L26.2971 34.422L23.0001 37.719L19.6961 34.422ZM42.6001 59.153C42.6001 60.007 42.0121 60.7 41.2911 60.7H24.4001V40.281L28.8871 35.787C28.9781 35.703 29.0481 35.605 29.1041 35.5H31.8061C31.9041 35.5 32.0021 35.514 32.1001 35.514V43.403C30.0771 44.012 28.6001 45.881 28.6001 48.1C28.6001 50.802 30.7981 53 33.5001 53C36.2021 53 38.4001 50.802 38.4001 48.1C38.4001 45.881 36.9161 44.012 34.9001 43.403V35.969C39.3451 37.348 42.6001 41.618 42.6001 46.665V59.153ZM33.5001 46C34.6551 46 35.6001 46.938 35.6001 48.1C35.6001 49.255 34.6551 50.2 33.5001 50.2C32.3381 50.2 31.4001 49.255 31.4001 48.1C31.4001 46.938 32.3381 46 33.5001 46Z" fill="#0000FF"/>
</svg>
