<svg width="90" height="90" viewBox="0 0 90 90" fill="none" xmlns="http://www.w3.org/2000/svg">
<g clip-path="url(#clip0_67_737)">
<path d="M62.9211 61.7044L60.9928 63.5026L55.2693 57.3661L53.2373 55.1864L55.1656 53.3882L57.1977 55.5679L62.9211 61.7044Z" fill="#78909C"/>
<path d="M57.1977 55.5679C56.89 55.8791 56.5736 56.1849 56.252 56.4855C55.9303 56.7861 55.6016 57.0814 55.2693 57.3644L53.2373 55.1847L55.1709 53.3865L57.1977 55.5679ZM63.2305 61.9927C62.9229 62.3039 62.6064 62.6097 62.2848 62.9103C61.9631 63.2109 61.6344 63.5062 61.3021 63.7892L59.2701 61.6095L61.2037 59.8113L63.2305 61.9927Z" fill="#465E66"/>
<path d="M65.1991 33.0837C64.9755 39.3729 62.8932 45.4548 59.2151 50.5613C55.5371 55.6678 50.4282 59.5698 44.5338 61.7744C38.6394 63.979 32.2238 64.3874 26.0974 62.948C19.971 61.5085 14.4086 58.2859 10.1127 53.687C4.3556 47.5131 1.28638 39.3054 1.58009 30.8688C1.8738 22.4323 5.50639 14.4579 11.679 8.69931C24.511 -3.27139 44.6942 -2.57003 56.6649 10.2655C59.5257 13.3156 61.753 16.9029 63.2179 20.8196C64.6828 24.7364 65.3562 28.9049 65.1991 33.0837Z" fill="#546E7A"/>
<path d="M59.2542 32.8887C59.0215 39.5884 56.1978 45.9363 51.3779 50.5956C46.558 55.2548 40.118 57.8617 33.4143 57.8672C33.1084 57.8672 32.8008 57.8619 32.4915 57.8514C30.8842 57.7961 29.2855 57.5931 27.7155 57.245C24.7261 56.5805 21.8802 55.385 19.3131 53.7153C17.539 52.5586 15.9122 51.1904 14.4686 49.6407C9.84078 44.6126 7.38958 37.9581 7.64991 31.1295C7.91024 24.3008 10.861 17.8523 15.8582 13.1912C20.8554 8.53006 27.4934 6.03469 34.3236 6.24964C41.1539 6.46458 47.6218 9.37239 52.3161 14.3385C53.3507 15.447 54.287 16.6433 55.1145 17.9139C56.7859 20.4788 57.9833 23.3229 58.6495 26.311C59.1297 28.469 59.3329 30.6793 59.2542 32.8887Z" fill="#90CAF9"/>
<path d="M86.699 88.344C85.6108 89.363 84.175 89.9287 82.6842 89.9261H82.475C81.7034 89.9018 80.9441 89.7249 80.2412 89.4057C79.5382 89.0865 78.9054 88.6313 78.3793 88.0663L56.7266 65.6806L65.3398 57.6421L86.9891 80.0155C88.0525 81.1596 88.6192 82.6786 88.5648 84.2397C88.5104 85.8008 87.8395 87.2767 86.699 88.344Z" fill="#5E35B1"/>
<path d="M87.4654 87.4723C86.9211 88.2327 86.2036 88.8525 85.3721 89.2804C84.5407 89.7084 83.6193 89.9321 82.6842 89.9333H82.475C81.7029 89.908 80.9433 89.7301 80.2404 89.4097C79.5374 89.0892 78.9048 88.6327 78.3793 88.0665L56.7266 65.6807L58.1223 64.3782L79.7293 86.7129C80.2553 87.2782 80.888 87.7338 81.591 88.0533C82.294 88.3728 83.0532 88.5499 83.825 88.5745H84.0342C85.2654 88.5774 86.4662 88.1917 87.4654 87.4723Z" fill="#4A2A96"/>
<path d="M65.2183 60.293L85.6071 80.6818" stroke="white" stroke-width="2.25" stroke-linecap="round" stroke-linejoin="round"/>
<path d="M53.7645 12.9866C48.7133 7.62988 41.747 4.49051 34.3881 4.25456C27.0293 4.01861 19.8762 6.70526 14.4922 11.7274C9.10824 16.7494 5.93116 23.6986 5.65532 31.0561C5.37948 38.4136 8.02732 45.5811 13.0202 50.9922C15.5092 53.6752 18.5058 55.8377 21.8362 57.3548C25.1667 58.8719 28.765 59.7134 32.4229 59.8305C32.7551 59.8428 33.0856 59.8481 33.4161 59.8481C38.8414 59.8432 44.1473 58.2543 48.6824 55.2764C53.2175 52.2986 56.7844 48.0613 58.9453 43.0849C61.1062 38.1084 61.7671 32.6093 60.8467 27.2625C59.9264 21.9158 57.4649 16.9541 53.7645 12.9866ZM59.2541 32.8885C59.0214 39.5882 56.1978 45.9361 51.3779 50.5954C46.558 55.2546 40.118 57.8615 33.4143 57.867C33.1084 57.867 32.8008 57.8618 32.4914 57.8512C27.3783 57.6694 22.4337 55.9764 18.2822 52.986C14.1307 49.9957 10.9584 45.8421 9.16609 41.05C7.37377 36.2578 7.04179 31.042 8.21206 26.0612C9.38233 21.0805 12.0024 16.5582 15.7413 13.0657C19.4838 9.57424 24.1776 7.27109 29.2292 6.4475C34.2808 5.62391 39.4631 6.31688 44.1208 8.43876C48.7785 10.5606 52.7024 14.0161 55.3961 18.3682C58.0898 22.7202 59.4324 27.7734 59.2541 32.8885Z" fill="#546E7A"/>
<path d="M53.7645 12.9866C48.7133 7.62988 41.747 4.49051 34.3881 4.25456C27.0293 4.01861 19.8762 6.70526 14.4922 11.7274C9.10824 16.7494 5.93116 23.6986 5.65532 31.0561C5.37948 38.4136 8.02732 45.5811 13.0202 50.9922C15.5092 53.6752 18.5058 55.8377 21.8362 57.3548C25.1667 58.8719 28.765 59.7134 32.4229 59.8305C32.7551 59.8428 33.0856 59.8481 33.4161 59.8481C38.8414 59.8432 44.1473 58.2543 48.6824 55.2764C53.2175 52.2986 56.7844 48.0613 58.9453 43.0849C61.1062 38.1084 61.7671 32.6093 60.8467 27.2625C59.9264 21.9158 57.4649 16.9541 53.7645 12.9866ZM59.2541 32.8885C59.0214 39.5882 56.1978 45.9361 51.3779 50.5954C46.558 55.2546 40.118 57.8615 33.4143 57.867C33.1084 57.867 32.8008 57.8618 32.4914 57.8512C27.3783 57.6694 22.4337 55.9764 18.2822 52.986C14.1307 49.9957 10.9584 45.8421 9.16609 41.05C7.37377 36.2578 7.04179 31.042 8.21206 26.0612C9.38233 21.0805 12.0024 16.5582 15.7413 13.0657C19.4838 9.57424 24.1776 7.27109 29.2292 6.4475C34.2808 5.62391 39.4631 6.31688 44.1208 8.43876C48.7785 10.5606 52.7024 14.0161 55.3961 18.3682C58.0898 22.7202 59.4324 27.7734 59.2541 32.8885Z" fill="#72A3FD"/>
<path d="M39.2486 39.1411H27.5006C25.9423 39.1444 24.449 39.7654 23.3479 40.8681C22.2469 41.9707 21.628 43.465 21.627 45.0232C21.627 46.3208 21.8888 46.9285 23.9766 47.3728C23.9766 47.3728 31.0052 48.6093 33.375 48.6093C35.7448 48.6093 42.7735 47.3728 42.7735 47.3728C44.8612 46.9285 45.1231 46.3208 45.1231 45.0232C45.122 43.4648 44.503 41.9705 43.4018 40.8678C42.3005 39.7652 40.807 39.1442 39.2486 39.1411Z" fill="#40B8B2"/>
<path d="M39.2486 39.1411H27.5006C25.9423 39.1444 24.449 39.7654 23.3479 40.8681C22.2469 41.9707 21.628 43.465 21.627 45.0232C21.627 46.3208 21.8888 46.9285 23.9766 47.3728C23.9766 47.3728 31.0052 48.6093 33.375 48.6093C35.7448 48.6093 42.7735 47.3728 42.7735 47.3728C44.8612 46.9285 45.1231 46.3208 45.1231 45.0232C45.122 43.4648 44.503 41.9705 43.4018 40.8678C42.3005 39.7652 40.807 39.1442 39.2486 39.1411Z" fill="url(#paint0_linear_67_737)"/>
<path d="M24.5378 42.9614H23.7908C23.7921 41.7512 24.2735 40.5911 25.1291 39.7354C25.9848 38.8797 27.145 38.3984 28.3551 38.397H38.3936C39.5941 38.3941 40.7468 38.867 41.5993 39.7123L41.0747 40.2441C40.3617 39.5372 39.3976 39.1416 38.3936 39.1441H28.3551C27.3431 39.1452 26.3728 39.5478 25.6572 40.2634C24.9415 40.979 24.539 41.9493 24.5378 42.9614Z" fill="url(#paint1_linear_67_737)"/>
<path d="M24.1643 48.6033C25.1595 48.6033 25.9663 47.7965 25.9663 46.8013C25.9663 45.8061 25.1595 44.9993 24.1643 44.9993C23.1691 44.9993 22.3623 45.8061 22.3623 46.8013C22.3623 47.7965 23.1691 48.6033 24.1643 48.6033Z" fill="url(#paint2_radial_67_737)"/>
<path d="M23.7908 46.8012V42.9612C23.7908 42.4674 24.5378 42.4667 24.5378 42.9612V46.8012C24.5378 47.2951 23.7908 47.2957 23.7908 46.8012Z" fill="url(#paint3_linear_67_737)"/>
<path d="M42.9113 42.3088C42.7682 41.3221 42.3065 40.4092 41.5964 39.7093C41.2445 39.3628 40.7198 39.8945 41.0722 40.2416C41.6427 40.8042 42.0221 41.5318 42.1566 42.3217C41.4645 42.4251 40.8325 42.7734 40.3754 43.3032C39.9183 43.833 39.6664 44.5092 39.6655 45.209V47.3189C39.6658 47.5912 39.7476 47.857 39.9003 48.0824C40.0531 48.3077 40.2698 48.4821 40.5225 48.5832C40.9797 48.766 41.2474 48.0792 40.7877 47.8845C40.6766 47.8375 40.5818 47.7587 40.5151 47.6582C40.4483 47.5576 40.4127 47.4396 40.4126 47.319V45.2552C40.4126 44.0734 41.3374 43.0732 42.5186 43.0381C42.8092 43.0296 43.0985 43.0795 43.3694 43.1847C43.6403 43.29 43.8874 43.4485 44.096 43.6509C44.3046 43.8533 44.4705 44.0954 44.5839 44.3631C44.6974 44.6307 44.756 44.9183 44.7563 45.209V47.3189C44.7561 47.4396 44.7205 47.5576 44.6538 47.6582C44.5871 47.7587 44.4923 47.8374 44.3811 47.8845C43.9215 48.0792 44.1894 48.766 44.6463 48.5832C44.8991 48.4821 45.1158 48.3077 45.2685 48.0823C45.4212 47.857 45.503 47.5911 45.5033 47.3189V45.209C45.5024 44.4917 45.2377 43.7999 44.7598 43.2651C44.2818 42.7303 43.6239 42.39 42.9113 42.3088Z" fill="url(#paint4_linear_67_737)"/>
<path d="M33.375 15.1406C24.8604 15.3764 23.8125 20.575 23.8125 26.406H42.9375C42.9375 20.575 41.8896 15.3764 33.375 15.1406Z" fill="#3D3C3B"/>
<path d="M33.375 15.1406C24.8604 15.3764 23.8125 20.575 23.8125 26.406H42.9375C42.9375 20.575 41.8896 15.3764 33.375 15.1406Z" fill="url(#paint5_radial_67_737)"/>
<path d="M33.375 44.915C33.375 44.915 29.8506 41.0959 29.8506 39.1494V36.7998H36.8994V39.1494C36.8994 41.0959 33.375 44.915 33.375 44.915Z" fill="#BD7768"/>
<path d="M33.375 44.915C33.375 44.915 29.8506 41.0959 29.8506 39.1494V36.7998H36.8994V39.1494C36.8994 41.0959 33.375 44.915 33.375 44.915Z" fill="url(#paint6_linear_67_737)"/>
<path d="M41.5063 31.6089C41.5268 31.4874 41.5846 31.3752 41.6718 31.2881C41.7589 31.2009 41.8711 31.1432 41.9927 31.1228C42.5371 31.026 43.0306 30.742 43.3877 30.3198C43.7448 29.8977 43.9431 29.364 43.9483 28.811V27.0488C43.943 26.4935 43.7429 25.9577 43.3831 25.5348C43.0232 25.1119 42.5262 24.8287 41.9789 24.7347C41.8615 24.7146 41.7528 24.66 41.6666 24.5778C41.5804 24.4956 41.5207 24.3895 41.4951 24.2732C41.2614 23.2283 40.679 22.2941 39.8437 21.6242C39.0085 20.9543 37.9701 20.5887 36.8994 20.5874H29.8506C28.7799 20.5887 27.7415 20.9543 26.9063 21.6242C26.071 22.2941 25.4886 23.2283 25.2549 24.2732C25.2293 24.3895 25.1696 24.4956 25.0834 24.5778C24.9973 24.66 24.8885 24.7146 24.7711 24.7347C24.2238 24.8287 23.7269 25.1119 23.367 25.5348C23.0071 25.9577 22.807 26.4935 22.8018 27.0488V28.811C22.8069 29.364 23.0052 29.8977 23.3623 30.3198C23.7194 30.742 24.2129 31.026 24.7573 31.1228C24.8788 31.1431 24.991 31.2009 25.0782 31.288C25.1654 31.3752 25.2232 31.4873 25.2436 31.6089L41.5063 31.6089Z" fill="#BD7768"/>
<path d="M41.5063 31.6089C41.5268 31.4874 41.5846 31.3752 41.6718 31.2881C41.7589 31.2009 41.8711 31.1432 41.9927 31.1228C42.5371 31.026 43.0306 30.742 43.3877 30.3198C43.7448 29.8977 43.9431 29.364 43.9483 28.811V27.0488C43.943 26.4935 43.7429 25.9577 43.3831 25.5348C43.0232 25.1119 42.5262 24.8287 41.9789 24.7347C41.8615 24.7146 41.7528 24.66 41.6666 24.5778C41.5804 24.4956 41.5207 24.3895 41.4951 24.2732C41.2614 23.2283 40.679 22.2941 39.8437 21.6242C39.0085 20.9543 37.9701 20.5887 36.8994 20.5874H29.8506C28.7799 20.5887 27.7415 20.9543 26.9063 21.6242C26.071 22.2941 25.4886 23.2283 25.2549 24.2732C25.2293 24.3895 25.1696 24.4956 25.0834 24.5778C24.9973 24.66 24.8885 24.7146 24.7711 24.7347C24.2238 24.8287 23.7269 25.1119 23.367 25.5348C23.0071 25.9577 22.807 26.4935 22.8018 27.0488V28.811C22.8069 29.364 23.0052 29.8977 23.3623 30.3198C23.7194 30.742 24.2129 31.026 24.7573 31.1228C24.8788 31.1431 24.991 31.2009 25.0782 31.288C25.1654 31.3752 25.2232 31.4873 25.2436 31.6089L41.5063 31.6089Z" fill="url(#paint7_radial_67_737)"/>
<path d="M25.7381 31.427L24.6193 24.7117C24.5381 24.2243 25.2749 24.101 25.3562 24.5889L26.475 31.3043L25.7381 31.427Z" fill="#EAF5FB"/>
<path d="M30.5903 28.2059C31.0473 27.7489 31.0473 27.0079 30.5903 26.551C30.1333 26.094 29.3924 26.094 28.9354 26.551C28.4784 27.0079 28.4784 27.7489 28.9354 28.2059C29.3924 28.6629 30.1333 28.6629 30.5903 28.2059Z" fill="#3D3C3B"/>
<path d="M37.8149 28.2061C38.2719 27.7491 38.2719 27.0082 37.8149 26.5512C37.3579 26.0942 36.617 26.0942 36.16 26.5512C35.703 27.0082 35.703 27.7491 36.16 28.2061C36.617 28.6631 37.3579 28.6631 37.8149 28.2061Z" fill="#3D3C3B"/>
<path d="M30.5903 28.2059C31.0473 27.7489 31.0473 27.0079 30.5903 26.551C30.1333 26.094 29.3924 26.094 28.9354 26.551C28.4784 27.0079 28.4784 27.7489 28.9354 28.2059C29.3924 28.6629 30.1333 28.6629 30.5903 28.2059Z" fill="url(#paint8_radial_67_737)"/>
<path d="M37.8149 28.2061C38.2719 27.7491 38.2719 27.0082 37.8149 26.5512C37.3579 26.0942 36.617 26.0942 36.16 26.5512C35.703 27.0082 35.703 27.7491 36.16 28.2061C36.617 28.6631 37.3579 28.6631 37.8149 28.2061Z" fill="url(#paint9_radial_67_737)"/>
<path d="M41.7615 31.2776H38.3457C37.0836 31.2776 35.8707 30.8654 34.8114 30.1793C34.3485 29.8794 33.1508 29.3922 31.9357 30.1793C30.8764 30.8654 29.6635 31.2776 28.4014 31.2776H24.9883C25.0541 31.6785 25.8245 38.86 33.3742 38.86C39.5406 38.86 41.2727 34.2754 41.7615 31.2776Z" fill="#EAF5FB"/>
<path d="M40.2749 31.3041L41.3937 24.5887C41.475 24.1012 42.2118 24.2242 42.1307 24.7115L41.0118 31.4269L40.2749 31.3041Z" fill="#B2C8CE"/>
<path d="M41.7615 31.2776H38.3457C37.0836 31.2776 35.8707 30.8654 34.8114 30.1793C34.3485 29.8794 33.1508 29.3922 31.9357 30.1793C30.8764 30.8654 29.6635 31.2776 28.4014 31.2776H24.9883C25.0541 31.6785 25.8245 38.86 33.3742 38.86C39.5406 38.86 41.2727 34.2754 41.7615 31.2776Z" fill="url(#paint10_radial_67_737)"/>
<path d="M164.844 47.4373C165.117 45.8103 165.891 44.3091 167.058 43.1428C168.225 41.9764 169.726 41.2031 171.354 40.9305C178.641 39.6353 185.246 35.8333 190.026 30.1825C194.807 24.5316 197.461 17.3875 197.53 9.98632V-13.602C197.46 -21.035 194.782 -28.2073 189.965 -33.8682C185.147 -39.5292 178.495 -43.3195 171.169 -44.5783C169.598 -44.8467 168.142 -45.5781 166.988 -46.6786C165.835 -47.7792 165.036 -49.1989 164.693 -50.7562C161.565 -64.7424 153.769 -77.2473 142.589 -86.214C131.408 -95.1807 117.509 -100.075 103.177 -100.092H8.8242C-5.50768 -100.075 -19.407 -95.1807 -30.5873 -86.214C-41.7677 -77.2473 -49.5634 -64.7424 -52.692 -50.7562C-53.0342 -49.1989 -53.8333 -47.7792 -54.9869 -46.6786C-56.1406 -45.5781 -57.5965 -44.8467 -59.1681 -44.5783C-66.4941 -43.3195 -73.1458 -39.5292 -77.9632 -33.8682C-82.7806 -28.2073 -85.4582 -21.035 -85.5288 -13.602V9.98632C-85.4595 17.3873 -82.8052 24.5313 -78.0251 30.182C-73.2451 35.8327 -66.6401 39.6347 -59.353 40.9301C-57.7259 41.2027 -56.2243 41.976 -55.0574 43.1424C-53.8905 44.3087 -53.1164 45.8099 -52.843 47.4369L164.844 47.4373Z" fill="#BD7768"/>
<path d="M164.844 47.4373C165.117 45.8103 165.891 44.3091 167.058 43.1428C168.225 41.9764 169.726 41.2031 171.354 40.9305C178.641 39.6353 185.246 35.8333 190.026 30.1825C194.807 24.5316 197.461 17.3875 197.53 9.98632V-13.602C197.46 -21.035 194.782 -28.2073 189.965 -33.8682C185.147 -39.5292 178.495 -43.3195 171.169 -44.5783C169.598 -44.8467 168.142 -45.5781 166.988 -46.6786C165.835 -47.7792 165.036 -49.1989 164.693 -50.7562C161.565 -64.7424 153.769 -77.2473 142.589 -86.214C131.408 -95.1807 117.509 -100.075 103.177 -100.092H8.8242C-5.50768 -100.075 -19.407 -95.1807 -30.5873 -86.214C-41.7677 -77.2473 -49.5634 -64.7424 -52.692 -50.7562C-53.0342 -49.1989 -53.8333 -47.7792 -54.9869 -46.6786C-56.1406 -45.5781 -57.5965 -44.8467 -59.1681 -44.5783C-66.4941 -43.3195 -73.1458 -39.5292 -77.9632 -33.8682C-82.7806 -28.2073 -85.4582 -21.035 -85.5288 -13.602V9.98632C-85.4595 17.3873 -82.8052 24.5313 -78.0251 30.182C-73.2451 35.8327 -66.6401 39.6347 -59.353 40.9301C-57.7259 41.2027 -56.2243 41.976 -55.0574 43.1424C-53.8905 44.3087 -53.1164 45.8099 -52.843 47.4369L164.844 47.4373Z" fill="url(#paint11_radial_67_737)"/>
<path d="M18.7269 1.8874C24.8441 -4.22977 24.8441 -14.1477 18.7269 -20.2648C12.6097 -26.382 2.69183 -26.382 -3.42534 -20.2648C-9.54252 -14.1477 -9.54252 -4.22977 -3.42534 1.8874C2.69183 8.00457 12.6097 8.00457 18.7269 1.8874Z" fill="#3D3C3B"/>
<path d="M115.432 1.88813C121.549 -4.22904 121.549 -14.1469 115.432 -20.2641C109.315 -26.3813 99.3972 -26.3813 93.28 -20.2641C87.1628 -14.1469 87.1628 -4.22904 93.28 1.88813C99.3972 8.00531 109.315 8.00531 115.432 1.88813Z" fill="#3D3C3B"/>
<path d="M18.7269 1.8874C24.8441 -4.22977 24.8441 -14.1477 18.7269 -20.2648C12.6097 -26.382 2.69183 -26.382 -3.42534 -20.2648C-9.54252 -14.1477 -9.54252 -4.22977 -3.42534 1.8874C2.69183 8.00457 12.6097 8.00457 18.7269 1.8874Z" fill="url(#paint12_radial_67_737)"/>
<path d="M115.432 1.88813C121.549 -4.22904 121.549 -14.1469 115.432 -20.2641C109.315 -26.3813 99.3972 -26.3813 93.28 -20.2641C87.1628 -14.1469 87.1628 -4.22904 93.28 1.88813C99.3972 8.00531 109.315 8.00531 115.432 1.88813Z" fill="url(#paint13_radial_67_737)"/>
<path d="M168.26 43.0037H122.538C105.644 43.0037 89.4087 37.4869 75.2294 28.303C69.0322 24.289 53.0008 17.7677 36.7351 28.303C22.5558 37.4869 6.32053 43.0037 -10.5733 43.0037H-56.2598C-55.3789 48.37 -45.0659 144.5 55.9912 144.5C138.532 144.5 161.717 83.1317 168.26 43.0037Z" fill="#EAF5FB"/>
<path d="M168.26 43.0037H122.538C105.644 43.0037 89.4087 37.4869 75.2294 28.303C69.0322 24.289 53.0008 17.7677 36.7351 28.303C22.5558 37.4869 6.32053 43.0037 -10.5733 43.0037H-56.2598C-55.3789 48.37 -45.0659 144.5 55.9912 144.5C138.532 144.5 161.717 83.1317 168.26 43.0037Z" fill="url(#paint14_radial_67_737)"/>
</g>
<defs>
<linearGradient id="paint0_linear_67_737" x1="33.375" y1="48.6093" x2="33.375" y2="39.1411" gradientUnits="userSpaceOnUse">
<stop offset="0.006" stop-color="#6DB8B4" stop-opacity="0"/>
<stop offset="1" stop-color="#2B9993"/>
</linearGradient>
<linearGradient id="paint1_linear_67_737" x1="23.7908" y1="40.6792" x2="41.5994" y2="40.6792" gradientUnits="userSpaceOnUse">
<stop stop-color="#444241"/>
<stop offset="1" stop-color="#2B2A2A"/>
</linearGradient>
<radialGradient id="paint2_radial_67_737" cx="0" cy="0" r="1" gradientUnits="userSpaceOnUse" gradientTransform="translate(22.4856 44.6217) scale(3.48598)">
<stop stop-color="#9595A8"/>
<stop offset="0.286" stop-color="#9292A4"/>
<stop offset="0.54" stop-color="#88889A"/>
<stop offset="0.781" stop-color="#787888"/>
<stop offset="1" stop-color="#626270"/>
</radialGradient>
<linearGradient id="paint3_linear_67_737" x1="23.7908" y1="44.8812" x2="24.5378" y2="44.8812" gradientUnits="userSpaceOnUse">
<stop stop-color="#B8B8CF"/>
<stop offset="1" stop-color="#9797B8"/>
</linearGradient>
<linearGradient id="paint4_linear_67_737" x1="39.6655" y1="44.1052" x2="45.5033" y2="44.1052" gradientUnits="userSpaceOnUse">
<stop stop-color="#B8B8CF"/>
<stop offset="1" stop-color="#9797B8"/>
</linearGradient>
<radialGradient id="paint5_radial_67_737" cx="0" cy="0" r="1" gradientUnits="userSpaceOnUse" gradientTransform="translate(21.7024 15.7333) scale(17.9967 17.9967)">
<stop offset="0.282" stop-color="#3D3C3B" stop-opacity="0"/>
<stop offset="0.514" stop-color="#393837" stop-opacity="0.169"/>
<stop offset="0.826" stop-color="#2D2C2B" stop-opacity="0.646"/>
<stop offset="1" stop-color="#242423"/>
</radialGradient>
<linearGradient id="paint6_linear_67_737" x1="33.375" y1="44.915" x2="33.375" y2="36.7998" gradientUnits="userSpaceOnUse">
<stop stop-color="#BD7768" stop-opacity="0"/>
<stop offset="0.04" stop-color="#BB7566" stop-opacity="0.046"/>
<stop offset="0.501" stop-color="#A25D4E" stop-opacity="0.557"/>
<stop offset="0.833" stop-color="#924E40" stop-opacity="0.877"/>
<stop offset="1" stop-color="#8C483A"/>
</linearGradient>
<radialGradient id="paint7_radial_67_737" cx="0" cy="0" r="1" gradientUnits="userSpaceOnUse" gradientTransform="translate(21.8281 21.7031) scale(18.5293)">
<stop offset="0.196" stop-color="#BD7768" stop-opacity="0"/>
<stop offset="1" stop-color="#8C483A"/>
</radialGradient>
<radialGradient id="paint8_radial_67_737" cx="0" cy="0" r="1" gradientUnits="userSpaceOnUse" gradientTransform="translate(28.1973 25.8604) scale(2.58315)">
<stop offset="0.282" stop-color="#3D3C3B" stop-opacity="0"/>
<stop offset="0.514" stop-color="#393837" stop-opacity="0.169"/>
<stop offset="0.826" stop-color="#2D2C2B" stop-opacity="0.646"/>
<stop offset="1" stop-color="#242423"/>
</radialGradient>
<radialGradient id="paint9_radial_67_737" cx="0" cy="0" r="1" gradientUnits="userSpaceOnUse" gradientTransform="translate(35.4218 25.8606) scale(2.58315)">
<stop offset="0.282" stop-color="#3D3C3B" stop-opacity="0"/>
<stop offset="0.514" stop-color="#393837" stop-opacity="0.169"/>
<stop offset="0.826" stop-color="#2D2C2B" stop-opacity="0.646"/>
<stop offset="1" stop-color="#242423"/>
</radialGradient>
<radialGradient id="paint10_radial_67_737" cx="0" cy="0" r="1" gradientUnits="userSpaceOnUse" gradientTransform="translate(21.82 29.2901) scale(17.418 17.418)">
<stop stop-color="#EAF5FB" stop-opacity="0"/>
<stop offset="0.18" stop-color="#E9F4FB" stop-opacity="0.014"/>
<stop offset="0.319" stop-color="#E6F2F9" stop-opacity="0.057"/>
<stop offset="0.443" stop-color="#E0EFF7" stop-opacity="0.13"/>
<stop offset="0.56" stop-color="#D8EBF5" stop-opacity="0.234"/>
<stop offset="0.67" stop-color="#CEE5F1" stop-opacity="0.367"/>
<stop offset="0.777" stop-color="#C1DEED" stop-opacity="0.531"/>
<stop offset="0.88" stop-color="#B2D5E7" stop-opacity="0.726"/>
<stop offset="0.978" stop-color="#A1CBE1" stop-opacity="0.945"/>
<stop offset="1" stop-color="#9DC9E0"/>
</radialGradient>
<radialGradient id="paint11_radial_67_737" cx="0" cy="0" r="1" gradientUnits="userSpaceOnUse" gradientTransform="translate(-98.5618 -85.1579) scale(248.026 248.026)">
<stop offset="0.196" stop-color="#BD7768" stop-opacity="0"/>
<stop offset="1" stop-color="#8C483A"/>
</radialGradient>
<radialGradient id="paint12_radial_67_737" cx="0" cy="0" r="1" gradientUnits="userSpaceOnUse" gradientTransform="translate(-13.3052 -29.5087) scale(34.577)">
<stop offset="0.282" stop-color="#3D3C3B" stop-opacity="0"/>
<stop offset="0.514" stop-color="#393837" stop-opacity="0.169"/>
<stop offset="0.826" stop-color="#2D2C2B" stop-opacity="0.646"/>
<stop offset="1" stop-color="#242423"/>
</radialGradient>
<radialGradient id="paint13_radial_67_737" cx="0" cy="0" r="1" gradientUnits="userSpaceOnUse" gradientTransform="translate(83.3991 -29.508) scale(34.577)">
<stop offset="0.282" stop-color="#3D3C3B" stop-opacity="0"/>
<stop offset="0.514" stop-color="#393837" stop-opacity="0.169"/>
<stop offset="0.826" stop-color="#2D2C2B" stop-opacity="0.646"/>
<stop offset="1" stop-color="#242423"/>
</radialGradient>
<radialGradient id="paint14_radial_67_737" cx="0" cy="0" r="1" gradientUnits="userSpaceOnUse" gradientTransform="translate(-98.6688 16.401) scale(233.151 233.151)">
<stop stop-color="#EAF5FB" stop-opacity="0"/>
<stop offset="0.18" stop-color="#E9F4FB" stop-opacity="0.014"/>
<stop offset="0.319" stop-color="#E6F2F9" stop-opacity="0.057"/>
<stop offset="0.443" stop-color="#E0EFF7" stop-opacity="0.13"/>
<stop offset="0.56" stop-color="#D8EBF5" stop-opacity="0.234"/>
<stop offset="0.67" stop-color="#CEE5F1" stop-opacity="0.367"/>
<stop offset="0.777" stop-color="#C1DEED" stop-opacity="0.531"/>
<stop offset="0.88" stop-color="#B2D5E7" stop-opacity="0.726"/>
<stop offset="0.978" stop-color="#A1CBE1" stop-opacity="0.945"/>
<stop offset="1" stop-color="#9DC9E0"/>
</radialGradient>
<clipPath id="clip0_67_737">
<rect width="90" height="90" fill="white"/>
</clipPath>
</defs>
</svg>
