<svg width="60" height="76" viewBox="0 0 60 76" fill="none" xmlns="http://www.w3.org/2000/svg">
<path d="M22.9681 32.5121C23.1258 32.5133 23.2822 32.4828 23.4278 32.4223C23.5735 32.3618 23.7056 32.2727 23.8161 32.1601C23.9283 32.0493 24.0174 31.9172 24.0782 31.7717C24.139 31.6261 24.1704 31.4699 24.1704 31.3121C24.1704 31.1544 24.139 30.9982 24.0782 30.8526C24.0174 30.7071 23.9283 30.575 23.8161 30.4641L19.0881 25.7361L23.8161 21.0001C23.934 20.8903 24.0285 20.7578 24.0941 20.6106C24.1597 20.4634 24.195 20.3045 24.1978 20.1434C24.2007 19.9823 24.171 19.8222 24.1107 19.6728C24.0503 19.5234 23.9605 19.3876 23.8465 19.2737C23.7326 19.1597 23.5968 19.0699 23.4474 19.0095C23.298 18.9492 23.138 18.9195 22.9768 18.9224C22.8157 18.9252 22.6568 18.9605 22.5096 19.0261C22.3624 19.0917 22.2299 19.1862 22.1201 19.3041L17.3921 24.0401L12.4961 19.1441H13.6241C14.917 19.0198 16.1172 18.4182 16.9906 17.4568C17.864 16.4954 18.3479 15.243 18.3479 13.9441C18.3479 12.6452 17.864 11.3929 16.9906 10.4315C16.1172 9.47008 14.917 8.8685 13.6241 8.74414H9.62407C9.30581 8.74414 9.00059 8.87057 8.77554 9.09561C8.5505 9.32066 8.42407 9.62588 8.42407 9.94414V26.0001C8.42407 26.3184 8.5505 26.6236 8.77554 26.8487C9.00059 27.0737 9.30581 27.2001 9.62407 27.2001C9.94233 27.2001 10.2476 27.0737 10.4726 26.8487C10.6976 26.6236 10.8241 26.3184 10.8241 26.0001V20.8401L15.7121 25.7361L11.4081 30.0001C11.2958 30.111 11.2067 30.2431 11.1459 30.3886C11.0851 30.5342 11.0538 30.6904 11.0538 30.8481C11.0538 31.0059 11.0851 31.1621 11.1459 31.3077C11.2067 31.4532 11.2958 31.5853 11.4081 31.6961C11.518 31.8094 11.6499 31.8991 11.7958 31.9596C11.9416 32.0201 12.0982 32.0503 12.2561 32.0481C12.4138 32.0493 12.5702 32.0188 12.7158 31.9583C12.8615 31.8978 12.9936 31.8087 13.1041 31.6961L17.3921 27.4161L22.1201 32.1441C22.2292 32.2596 22.3607 32.3517 22.5064 32.415C22.6521 32.4782 22.8092 32.5113 22.9681 32.5121ZM10.8001 11.1041H13.6241C14.346 11.1426 15.0257 11.4565 15.5231 11.9811C16.0205 12.5058 16.2978 13.2012 16.2978 13.9241C16.2978 14.6471 16.0205 15.3425 15.5231 15.8672C15.0257 16.3918 14.346 16.7057 13.6241 16.7441H10.8001V11.1041Z" fill="#0000FF"/>
<path d="M54.384 35.6001V34.6001H54.632C54.9503 34.6001 55.2555 34.4737 55.4805 34.2486C55.7056 34.0236 55.832 33.7184 55.832 33.4001V27.9121C55.832 27.5938 55.7056 27.2886 55.4805 27.0636C55.2555 26.8385 54.9503 26.7121 54.632 26.7121H48.4V15.1281C48.4079 15.051 48.4079 14.9732 48.4 14.8961V14.8961C48.381 14.7926 48.3459 14.6927 48.296 14.6001V14.5361C48.2438 14.4425 48.1792 14.3564 48.104 14.2801L34.968 1.20011C34.8957 1.1224 34.8087 1.05985 34.712 1.01611L34.648 0.976107C34.5577 0.927421 34.4606 0.892374 34.36 0.872107C34.2829 0.864245 34.2052 0.864245 34.128 0.872107H1.72002C1.41385 0.871556 1.11905 0.988053 0.895966 1.19775C0.672883 1.40745 0.538389 1.69449 0.52002 2.00011V60.6001C0.52002 60.9184 0.646448 61.2236 0.871492 61.4486C1.09654 61.6737 1.40176 61.8001 1.72002 61.8001H19.6V74.0001C19.6 74.3184 19.7264 74.6236 19.9515 74.8486C20.1765 75.0737 20.4818 75.2001 20.8 75.2001H37.8C38.1183 75.2001 38.4235 75.0737 38.6485 74.8486C38.8736 74.6236 39 74.3184 39 74.0001V70.0801H58.28C58.5976 70.078 58.9016 69.9509 59.1262 69.7263C59.3508 69.5017 59.4779 69.1977 59.48 68.8801V42.6161C59.479 41.0587 58.9857 39.5414 58.0704 38.2813C57.1551 37.0211 55.8648 36.0827 54.384 35.6001V35.6001ZM19.984 47.3121V42.3281H38.592V47.3201L19.984 47.3121ZM35.096 49.7121H36.584V52.4321H22V49.7121H35.096ZM38.984 58.9041V49.7201H39.784C40.1016 49.718 40.4056 49.5909 40.6302 49.3663C40.8548 49.1417 40.9819 48.8377 40.984 48.5201V46.1201H57.08V58.9201L38.984 58.9041ZM57.064 43.7041H40.992V41.1281C40.992 40.8098 40.8656 40.5046 40.6405 40.2796C40.4155 40.0545 40.1103 39.9281 39.792 39.9281H38.312C38.76 39.2292 39.3764 38.654 40.1047 38.2556C40.8331 37.8572 41.6498 37.6483 42.48 37.6481H52.08C53.397 37.6502 54.6594 38.1743 55.5906 39.1055C56.5218 40.0368 57.0459 41.2992 57.048 42.6161L57.064 43.7041ZM51.984 35.2481H42.608V34.6001H51.984V35.2481ZM53.432 32.2001H41.2V29.1121H53.432V32.2001ZM22 54.8401H36.6V67.6401H22V54.8401ZM36.6 72.7761H22V70.0561H36.6V72.7761ZM57.08 67.6561H39V61.3121H57.08V67.6561ZM44.328 13.9281H35.32V4.92011L44.328 13.9281ZM2.92002 59.4001V3.22411H32.92V15.1281C32.92 15.4464 33.0464 15.7516 33.2715 15.9766C33.4965 16.2017 33.8018 16.3281 34.12 16.3281H46V26.7281H39.96C39.6418 26.7281 39.3365 26.8545 39.1115 27.0796C38.8864 27.3046 38.76 27.6098 38.76 27.9281V33.4161C38.76 33.7344 38.8864 34.0396 39.1115 34.2646C39.3365 34.4897 39.6418 34.6161 39.96 34.6161H40.208V35.6001C39.1682 35.9369 38.2158 36.4996 37.4192 37.2479C36.6225 37.9962 36.0013 38.9114 35.6 39.9281H18.8C18.4818 39.9281 18.1765 40.0545 17.9515 40.2796C17.7264 40.5046 17.6 40.8098 17.6 41.1281V48.5201C17.6 48.8384 17.7264 49.1436 17.9515 49.3686C18.1765 49.5937 18.4818 49.7201 18.8 49.7201H19.6V59.4001H2.92002Z" fill="#0000FF"/>
<path d="M50.144 51.304H48.496V49.704C48.4923 49.5704 48.468 49.4382 48.424 49.312C48.3436 49.0773 48.1914 48.8737 47.989 48.7302C47.7866 48.5866 47.5442 48.5103 47.296 48.512C46.9778 48.512 46.6726 48.6384 46.4475 48.8635C46.2225 49.0885 46.0961 49.3937 46.0961 49.712V51.312H44.448C44.1298 51.312 43.8246 51.4384 43.5995 51.6635C43.3745 51.8885 43.248 52.1937 43.248 52.512C43.248 52.8302 43.3745 53.1355 43.5995 53.3605C43.8246 53.5856 44.1298 53.712 44.448 53.712H46.0961V55.36C46.1 55.6407 46.2024 55.9112 46.3852 56.1243C46.568 56.3374 46.8198 56.4796 47.0967 56.5263C47.3736 56.5729 47.658 56.5209 47.9005 56.3795C48.1431 56.238 48.3283 56.016 48.424 55.752C48.468 55.6258 48.4923 55.4936 48.496 55.36V53.704H50.144C50.4623 53.704 50.7675 53.5776 50.9926 53.3525C51.2176 53.1275 51.344 52.8222 51.344 52.504C51.344 52.1857 51.2176 51.8805 50.9926 51.6555C50.7675 51.4304 50.4623 51.304 50.144 51.304ZM26.448 62.448H28.096V64.048C28.096 64.3662 28.2225 64.6715 28.4475 64.8965C28.6726 65.1216 28.9778 65.248 29.296 65.248C29.6143 65.248 29.9195 65.1216 30.1446 64.8965C30.3696 64.6715 30.496 64.3662 30.496 64.048V62.448H32.136C32.3561 62.4495 32.5722 62.3897 32.7602 62.2752C32.9481 62.1608 33.1004 61.9962 33.2 61.8C33.297 61.6324 33.3468 61.4416 33.344 61.248C33.344 60.9297 33.2176 60.6245 32.9926 60.3995C32.7675 60.1744 32.4623 60.048 32.144 60.048H30.496V58.4C30.496 58.0817 30.3696 57.7765 30.1446 57.5515C29.9195 57.3264 29.6143 57.2 29.296 57.2C28.9778 57.2 28.6726 57.3264 28.4475 57.5515C28.2225 57.7765 28.096 58.0817 28.096 58.4V60.048H26.448C26.1298 60.048 25.8246 60.1744 25.5995 60.3995C25.3745 60.6245 25.248 60.9297 25.248 61.248C25.2493 61.4411 25.2988 61.6308 25.392 61.8C25.4918 61.9944 25.643 62.1577 25.8292 62.272C26.0155 62.3863 26.2295 62.4471 26.448 62.448Z" fill="#0000FF"/>
</svg>
