<svg width="66" height="44" viewBox="0 0 66 44" fill="none" xmlns="http://www.w3.org/2000/svg">
<path d="M57.8828 23.3016C59.4057 23.3016 60.8663 23.9066 61.9432 24.9835C63.02 26.0603 63.625 27.5209 63.625 29.0438V29.0438C63.625 30.5667 63.02 32.0273 61.9432 33.1041C60.8663 34.181 59.4057 34.786 57.8828 34.786H8.11719C6.59426 34.786 5.13372 34.181 4.05685 33.1041C2.97998 32.0273 2.375 30.5667 2.375 29.0438C2.375 27.5209 2.97998 26.0603 4.05685 24.9835C5.13372 23.9066 6.59426 23.3016 8.11719 23.3016H40.2844M12.4812 34.786L12.6891 42.4422M53.3109 34.786L53.5187 42.4422M52.6875 9.27974V1.55786H44.9656V9.27974H37.2438V17.0016H44.9656V24.7235H52.6875V17.0016H60.4094V9.27974H52.6875ZM26.875 22.1969C27.4328 21.1032 26.6453 18.861 24.4031 17.8219L9.70312 15.011C8.7379 15.0508 7.82776 15.4714 7.17183 16.1806C6.5159 16.8898 6.1676 17.83 6.20312 18.7954V19.5172C6.1676 20.4826 6.5159 21.4228 7.17183 22.132C7.82776 22.8412 8.7379 23.2618 9.70312 23.3016H24.4031C24.5125 23.3016 26.3172 23.3125 26.875 22.1969Z" stroke="#0000FF" stroke-width="3" stroke-linecap="round" stroke-linejoin="round"/>
</svg>
